%
M48
M72
T01C0.0236
T02C0.0315
T03C0.0320
T04C0.0400
T05C0.0440
T06C0.1260
T07C0.1300
T08C0.1450
%
T01
X1775Y6785
X1088Y7098
X775Y7785
X1088Y8473
X1775Y8785
X2463Y8473
X2775Y7785
X2463Y7098
X4775Y6785
X6775Y6785
X8775Y6785
X10775Y6785
X12275Y7785
X12588Y7098
X13275Y6785
X13963Y7098
X14275Y7785
X13963Y8473
X13275Y8785
X12588Y8473
X15775Y6785
X19775Y7785
X20088Y7098
X20775Y6785
X21463Y7098
X21775Y7785
X21463Y8473
X20775Y8785
X20088Y8473
X22775Y6785
X24775Y6785
X26775Y6785
X28025Y6785
X28650Y6785
X29275Y6785
X29275Y7785
X28650Y7785
X28025Y7785
X28025Y8785
X28650Y8785
X29275Y8785
X32025Y8785
X32650Y8785
X33275Y8785
X33275Y7785
X32650Y7785
X32025Y7785
X32025Y6785
X32650Y6785
X33275Y6785
X35775Y7160
X36775Y7785
X37088Y7098
X37775Y6785
X38463Y7098
X38775Y7785
X38463Y8473
X37775Y8785
X37088Y8473
X38775Y10785
X38775Y13285
X38775Y15285
X38775Y17285
X38775Y19285
X38775Y21285
X38775Y23285
X38775Y25285
X38775Y27285
X38775Y29285
X38775Y31285
X38775Y33285
X37775Y34785
X37088Y35098
X36775Y35785
X37088Y36473
X37775Y36785
X38463Y36473
X38775Y35785
X38463Y35098
X35775Y36785
X33775Y36785
X31775Y36785
X29775Y36785
X27775Y35285
X26775Y34785
X26775Y33785
X27775Y33285
X27775Y32285
X26775Y31785
X26775Y30785
X27775Y30285
X27775Y31285
X26775Y32785
X25775Y32285
X25775Y33285
X24775Y33785
X24775Y34785
X23775Y35285
X23775Y34285
X22775Y34785
X21775Y35285
X21775Y34285
X21775Y33285
X21775Y32285
X21775Y31285
X22775Y30785
X21775Y30285
X20775Y30785
X20775Y31785
X20775Y32785
X20775Y33785
X20775Y34785
X23775Y31285
X24775Y30785
X24775Y31785
X25775Y31285
X25775Y30285
X23775Y30285
X24775Y32785
X25775Y34285
X25775Y35285
X27775Y34285
X25025Y26785
X22275Y24785
X24025Y23785
X22275Y23035
X24025Y21785
X22275Y21035
X20275Y19535
X22275Y18910
X24025Y17535
X25650Y17035
X24025Y15535
X24025Y13410
X27150Y13785
X27150Y14910
X28525Y16535
X19400Y15535
X19150Y13160
X15650Y14785
X13525Y18535
X13525Y19785
X14775Y20785
X17025Y20285
X13525Y24160
X13525Y26035
X13525Y27785
X15775Y27785
X16275Y25535
X20150Y25785
X20525Y26160
X21775Y26785
X13525Y32035
X13525Y33410
X13525Y34785
X13775Y36035
X15525Y36035
X11275Y34160
X10275Y33660
X10275Y32660
X11275Y32160
X11275Y31160
X10275Y30660
X10275Y29660
X11275Y29160
X11275Y28160
X10275Y27660
X10275Y26660
X11275Y26160
X11275Y25160
X10275Y25660
X9275Y26160
X8275Y26660
X8275Y27660
X9275Y28160
X9275Y29160
X8275Y29660
X8275Y30660
X9275Y31160
X9275Y32160
X8275Y32660
X9275Y33160
X8275Y31660
X7275Y31160
X7275Y32160
X6275Y32660
X6275Y33660
X7275Y33160
X6275Y31660
X5275Y31160
X5275Y32160
X5275Y33160
X5275Y34160
X2463Y35098
X2775Y35785
X2463Y36473
X1775Y36785
X1088Y36473
X775Y35785
X1088Y35098
X1775Y34785
X775Y32785
X775Y30785
X1775Y29285
X1088Y28973
X775Y28285
X1088Y27598
X1775Y27285
X2463Y27598
X2775Y28285
X2463Y28973
X3400Y29910
X5275Y30160
X5275Y29160
X5275Y28160
X5275Y27160
X5275Y26160
X5275Y25160
X6275Y25660
X7275Y26160
X6275Y26660
X6275Y27660
X7275Y28160
X7275Y27160
X8275Y28660
X9275Y27160
X10275Y28660
X9275Y30160
X10275Y31660
X11275Y30160
X11275Y27160
X11275Y33160
X11275Y21035
X10275Y20535
X10275Y19535
X11275Y19035
X11275Y18035
X10275Y17535
X10275Y16535
X11275Y16035
X11275Y15035
X10275Y14535
X10275Y13535
X11275Y13035
X11275Y12035
X10275Y12535
X9275Y13035
X8275Y13535
X8275Y14535
X9275Y15035
X9275Y16035
X8275Y16535
X8275Y17535
X9275Y18035
X9275Y19035
X8275Y19535
X9275Y20035
X8275Y18535
X7275Y18035
X7275Y19035
X6275Y19535
X6275Y20535
X7275Y20035
X6275Y18535
X5275Y18035
X5275Y19035
X5275Y20035
X5275Y21035
X5275Y17035
X5275Y16035
X5275Y15035
X5275Y14035
X5275Y13035
X5275Y12035
X6275Y12535
X7275Y13035
X6275Y13535
X6275Y14535
X7275Y15035
X7275Y14035
X8275Y15535
X9275Y14035
X10275Y15535
X9275Y17035
X10275Y18535
X11275Y17035
X11275Y14035
X11275Y20035
X2463Y15973
X2775Y15285
X2463Y14598
X1775Y14285
X1088Y14598
X775Y15285
X1088Y15973
X1775Y16285
X775Y10785
T02
X17400Y24285
X17400Y25660
X18775Y25660
X20900Y21535
X20900Y20160
X22150Y19785
X24150Y19785
X19525Y20160
X29650Y14285
X30650Y14285
X33150Y10785
X34150Y10785
X35650Y19160
X36525Y19160
X36525Y21160
X35650Y21160
X35150Y26785
X33150Y26785
T03
X33650Y27910
X34650Y27910
X36025Y30535
X32400Y30535
X31150Y30660
X31150Y29535
X29150Y29535
X29150Y30660
X30525Y27535
X30525Y26160
X31025Y24785
X31025Y23785
X31025Y22785
X31025Y21785
X31025Y20785
X31025Y19785
X31025Y18785
X31525Y17535
X30525Y17160
X30525Y15785
X33525Y15535
X34525Y16535
X34525Y17535
X33525Y17535
X34025Y18785
X34025Y19785
X34025Y20785
X34025Y21785
X34025Y22785
X34025Y23785
X34025Y24785
X28025Y24660
X27150Y24660
X26150Y24660
X25150Y24660
X24150Y25785
X22150Y25785
X19525Y27660
X18400Y27785
X17900Y26785
X17150Y28660
X17150Y29660
X17150Y30660
X15650Y30660
X15650Y29660
X15650Y28660
X14400Y27785
X14900Y26785
X19525Y29660
X18400Y31535
X17900Y32535
X18525Y34023
X18525Y35423
X14900Y32535
X14400Y31535
X25150Y22660
X26150Y22660
X27150Y22660
X28025Y22660
X28025Y20660
X27150Y20660
X26150Y20660
X25150Y20660
X25150Y18660
X26150Y18660
X27150Y18660
X28025Y18660
X26525Y17160
X26525Y15785
X28400Y10535
X30400Y10535
X35150Y10535
X36275Y10535
X37525Y11535
X37525Y13535
X36275Y14535
X35150Y14535
X37525Y15535
X37525Y16535
X37525Y17535
X26525Y26160
X26525Y27535
X32400Y34535
X31150Y34910
X31150Y36035
X29150Y36035
X29150Y34910
X36025Y34535
X19525Y18535
X18400Y18410
X17900Y19410
X17150Y17535
X17150Y16535
X17150Y15535
X15650Y15535
X15650Y16535
X15650Y17535
X14400Y18410
X14900Y19410
X19525Y16535
X18400Y14660
X17900Y13660
X17650Y12160
X18775Y12160
X18775Y10160
X17650Y10160
X16525Y10160
X15400Y10160
X15400Y12160
X16525Y12160
X14900Y13660
X14400Y14660
X8900Y9860
X8900Y8460
X5400Y8460
X5400Y9860
X3275Y19535
X3275Y21035
X3275Y22535
X3275Y24035
X1275Y24035
X1275Y22535
X1275Y21035
X1275Y19535
T04
X5650Y22785
X12150Y22785
X12150Y35910
X5650Y35910
X29150Y33785
X29150Y32785
X29150Y31785
X33650Y30160
X34650Y33160
X33650Y35160
T05
X27525Y28535
X23525Y28535
X13775Y28660
X13775Y29660
X13775Y30660
X13775Y17535
X13775Y16535
X13775Y15535
T06
X17150Y22910
X21150Y22910
X31900Y14535
X31900Y10535
T07
X37775Y7785
X20775Y7785
X13275Y7785
X1775Y7785
X1775Y15285
X1775Y28285
X1775Y35785
X23000Y32785
X37775Y35785
T08
X6900Y29660
X6900Y16535
M30
