G75*
%MOIN*%
%OFA0B0*%
%FSLAX25Y25*%
%IPPOS*%
%LPD*%
%AMOC8*
5,1,8,0,0,1.08239X$1,22.5*
%
%ADD10C,0.05600*%
%ADD11OC8,0.07800*%
%ADD12C,0.06800*%
%ADD13C,0.17800*%
%ADD14OC8,0.07400*%
%ADD15OC8,0.06400*%
%ADD16C,0.13398*%
%ADD17OC8,0.07100*%
%ADD18C,0.07100*%
%ADD19R,0.60000X0.25000*%
%ADD20R,0.07898X0.07099*%
%ADD21OC8,0.09400*%
%ADD22OC8,0.26200*%
%ADD23OC8,0.04562*%
%ADD24R,0.06400X0.06400*%
%ADD25C,0.07400*%
%ADD26C,0.07400*%
%ADD27C,0.19300*%
%ADD28C,0.08400*%
%ADD29R,0.07800X0.07800*%
%ADD30R,0.06693X0.11811*%
%ADD31R,0.12500X0.12500*%
D10*
X0154100Y0155350D02*
X0158900Y0155350D01*
X0158900Y0165350D02*
X0154100Y0165350D01*
X0154100Y0175350D02*
X0158900Y0175350D01*
X0169100Y0175350D02*
X0173900Y0175350D01*
X0173900Y0165350D02*
X0169100Y0165350D01*
X0169100Y0155350D02*
X0173900Y0155350D01*
X0251500Y0184200D02*
X0251500Y0189000D01*
X0261500Y0189000D02*
X0261500Y0184200D01*
X0271500Y0184200D02*
X0271500Y0189000D01*
X0271500Y0204200D02*
X0271500Y0209000D01*
X0261500Y0209000D02*
X0261500Y0204200D01*
X0251500Y0204200D02*
X0251500Y0209000D01*
X0251500Y0224200D02*
X0251500Y0229000D01*
X0261500Y0229000D02*
X0261500Y0224200D01*
X0271500Y0224200D02*
X0271500Y0229000D01*
X0271500Y0244200D02*
X0271500Y0249000D01*
X0261500Y0249000D02*
X0261500Y0244200D01*
X0251500Y0244200D02*
X0251500Y0249000D01*
X0307850Y0247850D02*
X0312650Y0247850D01*
X0312650Y0237850D02*
X0307850Y0237850D01*
X0307850Y0227850D02*
X0312650Y0227850D01*
X0312650Y0217850D02*
X0307850Y0217850D01*
X0307850Y0207850D02*
X0312650Y0207850D01*
X0312650Y0197850D02*
X0307850Y0197850D01*
X0307850Y0187850D02*
X0312650Y0187850D01*
X0337850Y0187850D02*
X0342650Y0187850D01*
X0342650Y0197850D02*
X0337850Y0197850D01*
X0337850Y0207850D02*
X0342650Y0207850D01*
X0342650Y0217850D02*
X0337850Y0217850D01*
X0337850Y0227850D02*
X0342650Y0227850D01*
X0342650Y0237850D02*
X0337850Y0237850D01*
X0337850Y0247850D02*
X0342650Y0247850D01*
X0173900Y0286600D02*
X0169100Y0286600D01*
X0169100Y0296600D02*
X0173900Y0296600D01*
X0173900Y0306600D02*
X0169100Y0306600D01*
X0158900Y0306600D02*
X0154100Y0306600D01*
X0154100Y0296600D02*
X0158900Y0296600D01*
X0158900Y0286600D02*
X0154100Y0286600D01*
D11*
X0195250Y0276600D03*
X0195250Y0296600D03*
X0221500Y0257850D03*
X0241500Y0257850D03*
X0280250Y0246600D03*
X0280250Y0226600D03*
X0280250Y0206600D03*
X0280250Y0186600D03*
X0315250Y0175350D03*
X0335250Y0175350D03*
X0375250Y0135350D03*
X0375250Y0115350D03*
X0304000Y0105350D03*
X0284000Y0105350D03*
X0195250Y0165350D03*
X0195250Y0185350D03*
X0187750Y0121600D03*
X0176500Y0121600D03*
X0165250Y0121600D03*
X0154000Y0121600D03*
X0154000Y0101600D03*
X0165250Y0101600D03*
X0176500Y0101600D03*
X0187750Y0101600D03*
X0032750Y0195350D03*
X0032750Y0210350D03*
X0032750Y0225350D03*
X0032750Y0240350D03*
X0012750Y0240350D03*
X0012750Y0225350D03*
X0012750Y0210350D03*
X0012750Y0195350D03*
X0291500Y0295350D03*
X0291500Y0306600D03*
X0311500Y0306600D03*
X0311500Y0295350D03*
X0311500Y0349100D03*
X0311500Y0360350D03*
X0291500Y0360350D03*
X0291500Y0349100D03*
D12*
X0294500Y0337850D02*
X0288500Y0337850D01*
X0288500Y0327850D02*
X0294500Y0327850D01*
X0294500Y0317850D02*
X0288500Y0317850D01*
X0336500Y0304600D02*
X0336500Y0298600D01*
X0346500Y0328600D02*
X0346500Y0334600D01*
X0336500Y0348600D02*
X0336500Y0354600D01*
D13*
X0230000Y0327850D03*
D14*
X0184000Y0315350D03*
X0144000Y0315350D03*
X0144000Y0277850D03*
X0174000Y0256600D03*
X0187750Y0256600D03*
X0174000Y0242850D03*
X0209000Y0215350D03*
X0209000Y0201600D03*
X0195250Y0201600D03*
X0184000Y0184100D03*
X0144000Y0184100D03*
X0144000Y0146600D03*
X0184000Y0146600D03*
X0265250Y0157850D03*
X0265250Y0171600D03*
X0296500Y0142850D03*
X0306500Y0142850D03*
X0305250Y0157850D03*
X0305250Y0171600D03*
X0335250Y0155350D03*
X0351500Y0145350D03*
X0362750Y0145350D03*
X0375250Y0155350D03*
X0362750Y0105350D03*
X0351500Y0105350D03*
X0341500Y0107850D03*
X0331500Y0107850D03*
X0305250Y0261600D03*
X0305250Y0275350D03*
X0336500Y0279100D03*
X0346500Y0279100D03*
X0360250Y0305350D03*
X0324000Y0305350D03*
X0324000Y0345350D03*
X0360250Y0345350D03*
X0265250Y0275350D03*
X0265250Y0261600D03*
X0184000Y0277850D03*
D15*
X0221500Y0197850D03*
X0241500Y0197850D03*
X0331500Y0267850D03*
X0351500Y0267850D03*
X0356500Y0211600D03*
X0365250Y0211600D03*
X0365250Y0191600D03*
X0356500Y0191600D03*
D16*
X0319000Y0145350D03*
X0319000Y0105350D03*
X0211500Y0229100D03*
X0171500Y0229100D03*
D17*
X0185250Y0340225D03*
X0089000Y0084600D03*
X0054000Y0084600D03*
D18*
X0054000Y0098600D03*
X0089000Y0098600D03*
X0185250Y0354225D03*
D19*
X0306500Y0076600D03*
D20*
X0271500Y0117252D03*
X0271500Y0128448D03*
D21*
X0121500Y0227850D03*
X0056500Y0227850D03*
X0056500Y0359100D03*
X0121500Y0359100D03*
D22*
X0017750Y0357850D03*
X0017750Y0282850D03*
X0017750Y0152850D03*
X0017750Y0077850D03*
X0132750Y0077850D03*
X0207750Y0077850D03*
X0377750Y0077850D03*
X0377750Y0357850D03*
D23*
X0017750Y0067850D03*
X0010875Y0070975D03*
X0007750Y0077850D03*
X0010875Y0084725D03*
X0017750Y0087850D03*
X0024625Y0084725D03*
X0027750Y0077850D03*
X0024625Y0070975D03*
X0017750Y0142850D03*
X0010875Y0145975D03*
X0007750Y0152850D03*
X0010875Y0159725D03*
X0017750Y0162850D03*
X0024625Y0159725D03*
X0027750Y0152850D03*
X0024625Y0145975D03*
X0125875Y0084725D03*
X0122750Y0077850D03*
X0125875Y0070975D03*
X0132750Y0067850D03*
X0139625Y0070975D03*
X0142750Y0077850D03*
X0139625Y0084725D03*
X0132750Y0087850D03*
X0197750Y0077850D03*
X0200875Y0070975D03*
X0207750Y0067850D03*
X0214625Y0070975D03*
X0217750Y0077850D03*
X0214625Y0084725D03*
X0207750Y0087850D03*
X0200875Y0084725D03*
X0367750Y0077850D03*
X0370875Y0070975D03*
X0377750Y0067850D03*
X0384625Y0070975D03*
X0387750Y0077850D03*
X0384625Y0084725D03*
X0377750Y0087850D03*
X0370875Y0084725D03*
X0377750Y0347850D03*
X0370875Y0350975D03*
X0367750Y0357850D03*
X0370875Y0364725D03*
X0377750Y0367850D03*
X0384625Y0364725D03*
X0387750Y0357850D03*
X0384625Y0350975D03*
X0027750Y0357850D03*
X0024625Y0350975D03*
X0017750Y0347850D03*
X0010875Y0350975D03*
X0007750Y0357850D03*
X0010875Y0364725D03*
X0017750Y0367850D03*
X0024625Y0364725D03*
X0017750Y0292850D03*
X0010875Y0289725D03*
X0007750Y0282850D03*
X0010875Y0275975D03*
X0017750Y0272850D03*
X0024625Y0275975D03*
X0027750Y0282850D03*
X0024625Y0289725D03*
D24*
X0179000Y0267850D03*
X0179000Y0325350D03*
X0179000Y0194100D03*
X0179000Y0136600D03*
X0345250Y0175350D03*
X0375250Y0165350D03*
D25*
X0375250Y0175350D03*
X0345250Y0165350D03*
X0149000Y0136600D03*
X0149000Y0194100D03*
X0149000Y0267850D03*
X0149000Y0325350D03*
D26*
X0141050Y0306600D02*
X0134450Y0306600D01*
X0134450Y0296600D02*
X0141050Y0296600D01*
X0141050Y0286600D02*
X0134450Y0286600D01*
X0134450Y0175350D02*
X0141050Y0175350D01*
X0141050Y0165350D02*
X0134450Y0165350D01*
X0134450Y0155350D02*
X0141050Y0155350D01*
D27*
X0069000Y0165350D03*
X0069000Y0296600D03*
D28*
X0275250Y0285350D03*
D29*
X0235250Y0285350D03*
D30*
X0232248Y0106600D03*
X0250752Y0106600D03*
D31*
X0241500Y0106600D03*
M02*
