G75*
%MOIN*%
%OFA0B0*%
%FSLAX25Y25*%
%IPPOS*%
%LPD*%
%AMOC8*
5,1,8,0,0,1.08239X$1,22.5*
%
%ADD10C,0.04800*%
%ADD11OC8,0.07000*%
%ADD12C,0.06000*%
%ADD13C,0.17000*%
%ADD14OC8,0.06600*%
%ADD15OC8,0.05600*%
%ADD16OC8,0.06300*%
%ADD17C,0.06300*%
%ADD18R,0.07098X0.06299*%
%ADD19OC8,0.08600*%
%ADD20OC8,0.25400*%
%ADD21OC8,0.03762*%
%ADD22R,0.05600X0.05600*%
%ADD23C,0.06600*%
%ADD24C,0.06600*%
%ADD25C,0.18500*%
%ADD26C,0.07600*%
%ADD27R,0.07000X0.07000*%
%ADD28R,0.15748X0.15748*%
%ADD29C,0.03200*%
%ADD30C,0.03762*%
%ADD31C,0.01600*%
%ADD32C,0.04000*%
%ADD33R,0.03762X0.03762*%
%ADD34R,0.05000X0.05000*%
D10*
X0154100Y0155350D02*
X0158900Y0155350D01*
X0158900Y0165350D02*
X0154100Y0165350D01*
X0154100Y0175350D02*
X0158900Y0175350D01*
X0169100Y0175350D02*
X0173900Y0175350D01*
X0173900Y0165350D02*
X0169100Y0165350D01*
X0169100Y0155350D02*
X0173900Y0155350D01*
X0251500Y0184200D02*
X0251500Y0189000D01*
X0261500Y0189000D02*
X0261500Y0184200D01*
X0271500Y0184200D02*
X0271500Y0189000D01*
X0271500Y0204200D02*
X0271500Y0209000D01*
X0261500Y0209000D02*
X0261500Y0204200D01*
X0251500Y0204200D02*
X0251500Y0209000D01*
X0251500Y0224200D02*
X0251500Y0229000D01*
X0261500Y0229000D02*
X0261500Y0224200D01*
X0271500Y0224200D02*
X0271500Y0229000D01*
X0271500Y0244200D02*
X0271500Y0249000D01*
X0261500Y0249000D02*
X0261500Y0244200D01*
X0251500Y0244200D02*
X0251500Y0249000D01*
X0307850Y0247850D02*
X0312650Y0247850D01*
X0312650Y0237850D02*
X0307850Y0237850D01*
X0307850Y0227850D02*
X0312650Y0227850D01*
X0312650Y0217850D02*
X0307850Y0217850D01*
X0307850Y0207850D02*
X0312650Y0207850D01*
X0312650Y0197850D02*
X0307850Y0197850D01*
X0307850Y0187850D02*
X0312650Y0187850D01*
X0337850Y0187850D02*
X0342650Y0187850D01*
X0342650Y0197850D02*
X0337850Y0197850D01*
X0337850Y0207850D02*
X0342650Y0207850D01*
X0342650Y0217850D02*
X0337850Y0217850D01*
X0337850Y0227850D02*
X0342650Y0227850D01*
X0342650Y0237850D02*
X0337850Y0237850D01*
X0337850Y0247850D02*
X0342650Y0247850D01*
X0173900Y0286600D02*
X0169100Y0286600D01*
X0169100Y0296600D02*
X0173900Y0296600D01*
X0173900Y0306600D02*
X0169100Y0306600D01*
X0158900Y0306600D02*
X0154100Y0306600D01*
X0154100Y0296600D02*
X0158900Y0296600D01*
X0158900Y0286600D02*
X0154100Y0286600D01*
D11*
X0195250Y0276600D03*
X0195250Y0296600D03*
X0221500Y0257850D03*
X0241500Y0257850D03*
X0280250Y0246600D03*
X0280250Y0226600D03*
X0280250Y0206600D03*
X0280250Y0186600D03*
X0315250Y0175350D03*
X0335250Y0175350D03*
X0375250Y0135350D03*
X0375250Y0115350D03*
X0304000Y0105350D03*
X0284000Y0105350D03*
X0195250Y0165350D03*
X0195250Y0185350D03*
X0187750Y0121600D03*
X0176500Y0121600D03*
X0165250Y0121600D03*
X0154000Y0121600D03*
X0154000Y0101600D03*
X0165250Y0101600D03*
X0176500Y0101600D03*
X0187750Y0101600D03*
X0032750Y0195350D03*
X0032750Y0210350D03*
X0032750Y0225350D03*
X0032750Y0240350D03*
X0012750Y0240350D03*
X0012750Y0225350D03*
X0012750Y0210350D03*
X0012750Y0195350D03*
X0291500Y0295350D03*
X0291500Y0306600D03*
X0311500Y0306600D03*
X0311500Y0295350D03*
X0311500Y0349100D03*
X0311500Y0360350D03*
X0291500Y0360350D03*
X0291500Y0349100D03*
D12*
X0294500Y0337850D02*
X0288500Y0337850D01*
X0288500Y0327850D02*
X0294500Y0327850D01*
X0294500Y0317850D02*
X0288500Y0317850D01*
X0336500Y0304600D02*
X0336500Y0298600D01*
X0346500Y0328600D02*
X0346500Y0334600D01*
X0336500Y0348600D02*
X0336500Y0354600D01*
D13*
X0230000Y0327850D03*
D14*
X0184000Y0315350D03*
X0144000Y0315350D03*
X0144000Y0277850D03*
X0174000Y0256600D03*
X0187750Y0256600D03*
X0174000Y0242850D03*
X0209000Y0215350D03*
X0209000Y0201600D03*
X0195250Y0201600D03*
X0184000Y0184100D03*
X0144000Y0184100D03*
X0144000Y0146600D03*
X0184000Y0146600D03*
X0265250Y0157850D03*
X0265250Y0171600D03*
X0296500Y0142850D03*
X0306500Y0142850D03*
X0305250Y0157850D03*
X0305250Y0171600D03*
X0335250Y0155350D03*
X0351500Y0145350D03*
X0362750Y0145350D03*
X0375250Y0155350D03*
X0362750Y0105350D03*
X0351500Y0105350D03*
X0341500Y0107850D03*
X0331500Y0107850D03*
X0305250Y0261600D03*
X0305250Y0275350D03*
X0336500Y0279100D03*
X0346500Y0279100D03*
X0360250Y0305350D03*
X0324000Y0305350D03*
X0324000Y0345350D03*
X0360250Y0345350D03*
X0265250Y0275350D03*
X0265250Y0261600D03*
X0184000Y0277850D03*
D15*
X0221500Y0197850D03*
X0241500Y0197850D03*
X0331500Y0267850D03*
X0351500Y0267850D03*
X0356500Y0211600D03*
X0365250Y0211600D03*
X0365250Y0191600D03*
X0356500Y0191600D03*
D16*
X0185250Y0340225D03*
X0089000Y0084600D03*
X0054000Y0084600D03*
D17*
X0054000Y0098600D03*
X0089000Y0098600D03*
X0185250Y0354225D03*
D18*
X0271500Y0128448D03*
X0271500Y0117252D03*
D19*
X0121500Y0227850D03*
X0056500Y0227850D03*
X0056500Y0359100D03*
X0121500Y0359100D03*
D20*
X0017750Y0357850D03*
X0017750Y0282850D03*
X0017750Y0152850D03*
X0017750Y0077850D03*
X0132750Y0077850D03*
X0207750Y0077850D03*
X0377750Y0077850D03*
X0377750Y0357850D03*
D21*
X0370875Y0350975D03*
X0367750Y0357850D03*
X0370875Y0364725D03*
X0377750Y0367850D03*
X0384625Y0364725D03*
X0387750Y0357850D03*
X0384625Y0350975D03*
X0377750Y0347850D03*
X0377750Y0087850D03*
X0370875Y0084725D03*
X0367750Y0077850D03*
X0370875Y0070975D03*
X0377750Y0067850D03*
X0384625Y0070975D03*
X0387750Y0077850D03*
X0384625Y0084725D03*
X0217750Y0077850D03*
X0214625Y0070975D03*
X0207750Y0067850D03*
X0200875Y0070975D03*
X0197750Y0077850D03*
X0200875Y0084725D03*
X0207750Y0087850D03*
X0214625Y0084725D03*
X0142750Y0077850D03*
X0139625Y0070975D03*
X0132750Y0067850D03*
X0125875Y0070975D03*
X0122750Y0077850D03*
X0125875Y0084725D03*
X0132750Y0087850D03*
X0139625Y0084725D03*
X0027750Y0077850D03*
X0024625Y0070975D03*
X0017750Y0067850D03*
X0010875Y0070975D03*
X0007750Y0077850D03*
X0010875Y0084725D03*
X0017750Y0087850D03*
X0024625Y0084725D03*
X0017750Y0142850D03*
X0010875Y0145975D03*
X0007750Y0152850D03*
X0010875Y0159725D03*
X0017750Y0162850D03*
X0024625Y0159725D03*
X0027750Y0152850D03*
X0024625Y0145975D03*
X0017750Y0272850D03*
X0010875Y0275975D03*
X0007750Y0282850D03*
X0010875Y0289725D03*
X0017750Y0292850D03*
X0024625Y0289725D03*
X0027750Y0282850D03*
X0024625Y0275975D03*
X0017750Y0347850D03*
X0010875Y0350975D03*
X0007750Y0357850D03*
X0010875Y0364725D03*
X0017750Y0367850D03*
X0024625Y0364725D03*
X0027750Y0357850D03*
X0024625Y0350975D03*
D22*
X0179000Y0325350D03*
X0179000Y0267850D03*
X0179000Y0194100D03*
X0179000Y0136600D03*
X0345250Y0175350D03*
X0375250Y0165350D03*
D23*
X0375250Y0175350D03*
X0345250Y0165350D03*
X0149000Y0136600D03*
X0149000Y0194100D03*
X0149000Y0267850D03*
X0149000Y0325350D03*
D24*
X0141050Y0306600D02*
X0134450Y0306600D01*
X0134450Y0296600D02*
X0141050Y0296600D01*
X0141050Y0286600D02*
X0134450Y0286600D01*
X0134450Y0175350D02*
X0141050Y0175350D01*
X0141050Y0165350D02*
X0134450Y0165350D01*
X0134450Y0155350D02*
X0141050Y0155350D01*
D25*
X0069000Y0165350D03*
X0069000Y0296600D03*
D26*
X0275250Y0285350D03*
D27*
X0235250Y0285350D03*
D28*
X0227720Y0106600D03*
X0255280Y0106600D03*
D29*
X0286500Y0076600D02*
X0287750Y0077850D01*
X0292750Y0077850D01*
X0320250Y0077850D02*
X0325250Y0077850D01*
X0326500Y0076600D01*
X0305250Y0157850D02*
X0305250Y0159100D01*
X0292750Y0171600D01*
X0292750Y0205350D01*
X0305250Y0217850D01*
X0310250Y0217850D01*
X0310250Y0207850D02*
X0305250Y0207850D01*
X0300250Y0202850D01*
X0300250Y0176600D01*
X0305250Y0171600D01*
D30*
X0285250Y0165350D03*
X0271500Y0149100D03*
X0256500Y0170350D03*
X0240250Y0175350D03*
X0222750Y0189100D03*
X0202750Y0195350D03*
X0222750Y0210350D03*
X0240250Y0217850D03*
X0222750Y0230350D03*
X0240250Y0237850D03*
X0222750Y0247850D03*
X0217750Y0267850D03*
X0250250Y0267850D03*
X0257750Y0302850D03*
X0247750Y0307850D03*
X0247750Y0317850D03*
X0257750Y0322850D03*
X0257750Y0332850D03*
X0247750Y0337850D03*
X0247750Y0347850D03*
X0237750Y0352850D03*
X0237750Y0342850D03*
X0227750Y0347850D03*
X0217750Y0352850D03*
X0217750Y0342850D03*
X0217750Y0332850D03*
X0217750Y0322850D03*
X0217750Y0312850D03*
X0227750Y0307850D03*
X0217750Y0302850D03*
X0207750Y0307850D03*
X0207750Y0317850D03*
X0207750Y0327850D03*
X0207750Y0337850D03*
X0207750Y0347850D03*
X0237750Y0312850D03*
X0237750Y0302850D03*
X0257750Y0312850D03*
X0267750Y0307850D03*
X0267750Y0317850D03*
X0277750Y0322850D03*
X0277750Y0332850D03*
X0267750Y0337850D03*
X0267750Y0347850D03*
X0277750Y0352850D03*
X0277750Y0342850D03*
X0267750Y0327850D03*
X0257750Y0342850D03*
X0257750Y0352850D03*
X0247750Y0327850D03*
X0277750Y0312850D03*
X0277750Y0302850D03*
X0297750Y0367850D03*
X0317750Y0367850D03*
X0337750Y0367850D03*
X0357750Y0367850D03*
X0387750Y0332850D03*
X0387750Y0312850D03*
X0387750Y0292850D03*
X0387750Y0272850D03*
X0387750Y0252850D03*
X0387750Y0232850D03*
X0387750Y0212850D03*
X0387750Y0192850D03*
X0387750Y0172850D03*
X0387750Y0152850D03*
X0387750Y0132850D03*
X0387750Y0107850D03*
X0357750Y0071600D03*
X0332750Y0067850D03*
X0326500Y0067850D03*
X0320250Y0067850D03*
X0320250Y0077850D03*
X0326500Y0077850D03*
X0332750Y0077850D03*
X0332750Y0087850D03*
X0326500Y0087850D03*
X0320250Y0087850D03*
X0292750Y0087850D03*
X0286500Y0087850D03*
X0280250Y0087850D03*
X0280250Y0077850D03*
X0286500Y0077850D03*
X0292750Y0077850D03*
X0292750Y0067850D03*
X0286500Y0067850D03*
X0280250Y0067850D03*
X0267750Y0067850D03*
X0247750Y0067850D03*
X0227750Y0067850D03*
X0240250Y0134100D03*
X0240250Y0155350D03*
X0194000Y0155350D03*
X0191500Y0131600D03*
X0156500Y0147850D03*
X0135250Y0185350D03*
X0135250Y0197850D03*
X0147750Y0207850D03*
X0170250Y0202850D03*
X0135250Y0241600D03*
X0135250Y0260350D03*
X0135250Y0277850D03*
X0157750Y0277850D03*
X0162750Y0255350D03*
X0112750Y0251600D03*
X0112750Y0261600D03*
X0102750Y0266600D03*
X0102750Y0276600D03*
X0112750Y0281600D03*
X0112750Y0291600D03*
X0102750Y0296600D03*
X0102750Y0306600D03*
X0112750Y0311600D03*
X0112750Y0321600D03*
X0102750Y0326600D03*
X0102750Y0336600D03*
X0112750Y0341600D03*
X0112750Y0331600D03*
X0102750Y0316600D03*
X0092750Y0311600D03*
X0092750Y0321600D03*
X0082750Y0326600D03*
X0092750Y0331600D03*
X0082750Y0316600D03*
X0082750Y0306600D03*
X0082750Y0296600D03*
X0092750Y0291600D03*
X0092750Y0281600D03*
X0082750Y0276600D03*
X0082750Y0266600D03*
X0092750Y0261600D03*
X0092750Y0271600D03*
X0082750Y0286600D03*
X0072750Y0281600D03*
X0062750Y0276600D03*
X0062750Y0266600D03*
X0072750Y0261600D03*
X0062750Y0256600D03*
X0052750Y0251600D03*
X0052750Y0261600D03*
X0052750Y0271600D03*
X0052750Y0281600D03*
X0052750Y0291600D03*
X0052750Y0301600D03*
X0052750Y0311600D03*
X0052750Y0321600D03*
X0052750Y0331600D03*
X0052750Y0341600D03*
X0062750Y0336600D03*
X0062750Y0326600D03*
X0072750Y0321600D03*
X0072750Y0311600D03*
X0062750Y0316600D03*
X0072750Y0331600D03*
X0092750Y0301600D03*
X0102750Y0286600D03*
X0112750Y0271600D03*
X0102750Y0256600D03*
X0072750Y0271600D03*
X0034000Y0299100D03*
X0007750Y0307850D03*
X0007750Y0327850D03*
X0112750Y0301600D03*
X0135250Y0320350D03*
X0135250Y0334100D03*
X0135250Y0347850D03*
X0137750Y0360350D03*
X0155250Y0360350D03*
X0112750Y0210350D03*
X0102750Y0205350D03*
X0102750Y0195350D03*
X0112750Y0190350D03*
X0112750Y0180350D03*
X0102750Y0175350D03*
X0102750Y0165350D03*
X0112750Y0160350D03*
X0112750Y0150350D03*
X0102750Y0145350D03*
X0102750Y0135350D03*
X0112750Y0130350D03*
X0112750Y0120350D03*
X0102750Y0125350D03*
X0092750Y0130350D03*
X0082750Y0135350D03*
X0082750Y0145350D03*
X0092750Y0150350D03*
X0092750Y0160350D03*
X0082750Y0165350D03*
X0082750Y0175350D03*
X0092750Y0180350D03*
X0092750Y0190350D03*
X0082750Y0195350D03*
X0092750Y0200350D03*
X0082750Y0185350D03*
X0072750Y0180350D03*
X0072750Y0190350D03*
X0062750Y0195350D03*
X0062750Y0205350D03*
X0072750Y0200350D03*
X0062750Y0185350D03*
X0052750Y0180350D03*
X0052750Y0190350D03*
X0052750Y0200350D03*
X0052750Y0210350D03*
X0052750Y0170350D03*
X0052750Y0160350D03*
X0052750Y0150350D03*
X0052750Y0140350D03*
X0052750Y0130350D03*
X0052750Y0120350D03*
X0062750Y0125350D03*
X0072750Y0130350D03*
X0062750Y0135350D03*
X0062750Y0145350D03*
X0072750Y0150350D03*
X0072750Y0140350D03*
X0082750Y0155350D03*
X0092750Y0140350D03*
X0102750Y0155350D03*
X0092750Y0170350D03*
X0102750Y0185350D03*
X0112750Y0170350D03*
X0112750Y0140350D03*
X0112750Y0200350D03*
X0007750Y0107850D03*
X0047750Y0067850D03*
X0067750Y0067850D03*
X0087750Y0067850D03*
X0107750Y0067850D03*
X0157750Y0067850D03*
D31*
X0005050Y0065150D02*
X0005050Y0134050D01*
X0027038Y0134050D01*
X0027800Y0134812D01*
X0036550Y0143562D01*
X0036550Y0162138D01*
X0035788Y0162900D01*
X0027038Y0171650D01*
X0005050Y0171650D01*
X0005050Y0264050D01*
X0027038Y0264050D01*
X0027800Y0264812D01*
X0036550Y0273562D01*
X0036550Y0292138D01*
X0035788Y0292900D01*
X0027038Y0301650D01*
X0005050Y0301650D01*
X0005050Y0370511D01*
X0390401Y0370511D01*
X0390401Y0065150D01*
X0152800Y0065150D01*
X0152800Y0085888D01*
X0152038Y0086650D01*
X0140788Y0097900D01*
X0124712Y0097900D01*
X0123950Y0097138D01*
X0112700Y0085888D01*
X0112700Y0065150D01*
X0005050Y0065150D01*
X0005050Y0066047D02*
X0112700Y0066047D01*
X0112700Y0067646D02*
X0005050Y0067646D01*
X0005050Y0069244D02*
X0112700Y0069244D01*
X0112700Y0070843D02*
X0005050Y0070843D01*
X0005050Y0072441D02*
X0112700Y0072441D01*
X0112700Y0074040D02*
X0005050Y0074040D01*
X0005050Y0075638D02*
X0112700Y0075638D01*
X0112700Y0077237D02*
X0005050Y0077237D01*
X0005050Y0078835D02*
X0112700Y0078835D01*
X0112700Y0080434D02*
X0091834Y0080434D01*
X0091050Y0079650D02*
X0093950Y0082550D01*
X0093950Y0084600D01*
X0093950Y0086650D01*
X0091050Y0089550D01*
X0089000Y0089550D01*
X0089000Y0084600D01*
X0089000Y0084600D01*
X0093950Y0084600D01*
X0089000Y0084600D01*
X0089000Y0084600D01*
X0089000Y0084600D01*
X0084050Y0084600D01*
X0084050Y0086650D01*
X0086950Y0089550D01*
X0089000Y0089550D01*
X0089000Y0084600D01*
X0089000Y0079650D01*
X0091050Y0079650D01*
X0089000Y0079650D02*
X0089000Y0084600D01*
X0089000Y0084600D01*
X0084050Y0084600D01*
X0084050Y0082550D01*
X0086950Y0079650D01*
X0089000Y0079650D01*
X0089000Y0080434D02*
X0089000Y0080434D01*
X0089000Y0082032D02*
X0089000Y0082032D01*
X0089000Y0083631D02*
X0089000Y0083631D01*
X0089000Y0085229D02*
X0089000Y0085229D01*
X0089000Y0086828D02*
X0089000Y0086828D01*
X0089000Y0088426D02*
X0089000Y0088426D01*
X0092174Y0088426D02*
X0115238Y0088426D01*
X0116836Y0090025D02*
X0005050Y0090025D01*
X0005050Y0091623D02*
X0118435Y0091623D01*
X0120033Y0093222D02*
X0005050Y0093222D01*
X0005050Y0094820D02*
X0050497Y0094820D01*
X0051083Y0094234D02*
X0052976Y0093450D01*
X0055024Y0093450D01*
X0056917Y0094234D01*
X0058366Y0095683D01*
X0059150Y0097576D01*
X0059150Y0099624D01*
X0058366Y0101517D01*
X0056917Y0102966D01*
X0055024Y0103750D01*
X0052976Y0103750D01*
X0051083Y0102966D01*
X0049634Y0101517D01*
X0048850Y0099624D01*
X0048850Y0097576D01*
X0049634Y0095683D01*
X0051083Y0094234D01*
X0049329Y0096419D02*
X0005050Y0096419D01*
X0005050Y0098017D02*
X0048850Y0098017D01*
X0048850Y0099616D02*
X0005050Y0099616D01*
X0005050Y0101214D02*
X0049509Y0101214D01*
X0050930Y0102813D02*
X0005050Y0102813D01*
X0005050Y0104411D02*
X0149316Y0104411D01*
X0148700Y0103795D02*
X0148700Y0101600D01*
X0154000Y0101600D01*
X0154000Y0101600D01*
X0154000Y0106900D01*
X0156195Y0106900D01*
X0159300Y0103795D01*
X0159300Y0101600D01*
X0154000Y0101600D01*
X0154000Y0101600D01*
X0154000Y0101600D01*
X0154000Y0106900D01*
X0151805Y0106900D01*
X0148700Y0103795D01*
X0148700Y0102813D02*
X0092070Y0102813D01*
X0091917Y0102966D02*
X0090024Y0103750D01*
X0087976Y0103750D01*
X0086083Y0102966D01*
X0084634Y0101517D01*
X0083850Y0099624D01*
X0083850Y0097576D01*
X0084634Y0095683D01*
X0086083Y0094234D01*
X0087976Y0093450D01*
X0090024Y0093450D01*
X0091917Y0094234D01*
X0093366Y0095683D01*
X0094150Y0097576D01*
X0094150Y0099624D01*
X0093366Y0101517D01*
X0091917Y0102966D01*
X0093491Y0101214D02*
X0148700Y0101214D01*
X0148700Y0101600D02*
X0148700Y0099405D01*
X0151805Y0096300D01*
X0154000Y0096300D01*
X0156195Y0096300D01*
X0159300Y0099405D01*
X0159300Y0101600D01*
X0154000Y0101600D01*
X0154000Y0096300D01*
X0154000Y0101600D01*
X0154000Y0101600D01*
X0148700Y0101600D01*
X0148700Y0099616D02*
X0094150Y0099616D01*
X0094150Y0098017D02*
X0150087Y0098017D01*
X0151686Y0096419D02*
X0142270Y0096419D01*
X0143868Y0094820D02*
X0390401Y0094820D01*
X0390401Y0093222D02*
X0145467Y0093222D01*
X0147065Y0091623D02*
X0390401Y0091623D01*
X0390401Y0090025D02*
X0148664Y0090025D01*
X0150262Y0088426D02*
X0390401Y0088426D01*
X0390401Y0086828D02*
X0151861Y0086828D01*
X0152800Y0085229D02*
X0390401Y0085229D01*
X0390401Y0083631D02*
X0152800Y0083631D01*
X0152800Y0082032D02*
X0390401Y0082032D01*
X0390401Y0080434D02*
X0152800Y0080434D01*
X0152800Y0078835D02*
X0390401Y0078835D01*
X0390401Y0077237D02*
X0152800Y0077237D01*
X0152800Y0075638D02*
X0390401Y0075638D01*
X0390401Y0074040D02*
X0152800Y0074040D01*
X0152800Y0072441D02*
X0390401Y0072441D01*
X0390401Y0070843D02*
X0152800Y0070843D01*
X0152800Y0069244D02*
X0390401Y0069244D01*
X0390401Y0067646D02*
X0152800Y0067646D01*
X0152800Y0066047D02*
X0390401Y0066047D01*
X0390401Y0096419D02*
X0190064Y0096419D01*
X0189945Y0096300D02*
X0193050Y0099405D01*
X0193050Y0101600D01*
X0193050Y0103795D01*
X0189945Y0106900D01*
X0187750Y0106900D01*
X0187750Y0101600D01*
X0187750Y0101600D01*
X0193050Y0101600D01*
X0187750Y0101600D01*
X0187750Y0101600D01*
X0187750Y0101600D01*
X0182450Y0101600D01*
X0182450Y0103795D01*
X0185555Y0106900D01*
X0187750Y0106900D01*
X0187750Y0101600D01*
X0187750Y0096300D01*
X0189945Y0096300D01*
X0187750Y0096300D02*
X0187750Y0101600D01*
X0187750Y0101600D01*
X0182450Y0101600D01*
X0182450Y0099405D01*
X0185555Y0096300D01*
X0187750Y0096300D01*
X0187750Y0096419D02*
X0187750Y0096419D01*
X0187750Y0098017D02*
X0187750Y0098017D01*
X0187750Y0099616D02*
X0187750Y0099616D01*
X0187750Y0101214D02*
X0187750Y0101214D01*
X0187750Y0102813D02*
X0187750Y0102813D01*
X0187750Y0104411D02*
X0187750Y0104411D01*
X0187750Y0106010D02*
X0187750Y0106010D01*
X0190836Y0106010D02*
X0226920Y0106010D01*
X0226920Y0105800D02*
X0218046Y0105800D01*
X0218046Y0098489D01*
X0218169Y0098031D01*
X0218406Y0097621D01*
X0218741Y0097286D01*
X0219152Y0097049D01*
X0219609Y0096926D01*
X0226920Y0096926D01*
X0226920Y0105800D01*
X0226920Y0107400D01*
X0218046Y0107400D01*
X0218046Y0114711D01*
X0218169Y0115169D01*
X0218406Y0115579D01*
X0218741Y0115914D01*
X0219152Y0116151D01*
X0219609Y0116274D01*
X0226920Y0116274D01*
X0226920Y0107400D01*
X0228520Y0107400D01*
X0228520Y0116274D01*
X0235831Y0116274D01*
X0236289Y0116151D01*
X0236700Y0115914D01*
X0237035Y0115579D01*
X0237272Y0115169D01*
X0237394Y0114711D01*
X0237394Y0111531D01*
X0237880Y0112017D01*
X0240229Y0112990D01*
X0242771Y0112990D01*
X0245120Y0112017D01*
X0245406Y0111731D01*
X0245406Y0115302D01*
X0246577Y0116474D01*
X0263982Y0116474D01*
X0265154Y0115302D01*
X0265154Y0109400D01*
X0268461Y0109400D01*
X0268700Y0109631D01*
X0268700Y0112102D01*
X0267122Y0112102D01*
X0265951Y0113274D01*
X0265951Y0121230D01*
X0267122Y0122401D01*
X0275878Y0122401D01*
X0277049Y0121230D01*
X0277049Y0113274D01*
X0275878Y0112102D01*
X0274300Y0112102D01*
X0274300Y0108980D01*
X0274308Y0108958D01*
X0274300Y0108423D01*
X0274300Y0107889D01*
X0274291Y0107867D01*
X0274291Y0107844D01*
X0274078Y0107354D01*
X0273874Y0106859D01*
X0273858Y0106843D01*
X0273848Y0106822D01*
X0273464Y0106450D01*
X0273086Y0106072D01*
X0273065Y0106063D01*
X0271560Y0104605D01*
X0271182Y0104226D01*
X0271160Y0104218D01*
X0271144Y0104202D01*
X0270646Y0104005D01*
X0270152Y0103800D01*
X0270130Y0103800D01*
X0270108Y0103792D01*
X0269573Y0103800D01*
X0265154Y0103800D01*
X0265154Y0097898D01*
X0263982Y0096726D01*
X0246577Y0096726D01*
X0245406Y0097898D01*
X0245406Y0101468D01*
X0245120Y0101183D01*
X0242771Y0100210D01*
X0240229Y0100210D01*
X0237880Y0101183D01*
X0237394Y0101668D01*
X0237394Y0098489D01*
X0237272Y0098031D01*
X0237035Y0097621D01*
X0236700Y0097286D01*
X0236289Y0097049D01*
X0235831Y0096926D01*
X0228520Y0096926D01*
X0228520Y0105800D01*
X0226920Y0105800D01*
X0226920Y0104411D02*
X0228520Y0104411D01*
X0228520Y0102813D02*
X0226920Y0102813D01*
X0226920Y0101214D02*
X0228520Y0101214D01*
X0228520Y0099616D02*
X0226920Y0099616D01*
X0226920Y0098017D02*
X0228520Y0098017D01*
X0237264Y0098017D02*
X0245406Y0098017D01*
X0245406Y0099616D02*
X0237394Y0099616D01*
X0237394Y0101214D02*
X0237849Y0101214D01*
X0245151Y0101214D02*
X0245406Y0101214D01*
X0245406Y0112404D02*
X0244187Y0112404D01*
X0245406Y0114002D02*
X0237394Y0114002D01*
X0237394Y0112404D02*
X0238813Y0112404D01*
X0237013Y0115601D02*
X0245704Y0115601D01*
X0255280Y0106600D02*
X0269595Y0106600D01*
X0271500Y0108445D01*
X0271500Y0117252D01*
X0277049Y0117199D02*
X0369750Y0117199D01*
X0369750Y0117628D02*
X0369750Y0113072D01*
X0372972Y0109850D01*
X0377528Y0109850D01*
X0380750Y0113072D01*
X0380750Y0117628D01*
X0377528Y0120850D01*
X0372972Y0120850D01*
X0369750Y0117628D01*
X0370920Y0118798D02*
X0277049Y0118798D01*
X0277049Y0120396D02*
X0372518Y0120396D01*
X0377982Y0120396D02*
X0390401Y0120396D01*
X0390401Y0118798D02*
X0379580Y0118798D01*
X0380750Y0117199D02*
X0390401Y0117199D01*
X0390401Y0115601D02*
X0380750Y0115601D01*
X0380750Y0114002D02*
X0390401Y0114002D01*
X0390401Y0112404D02*
X0380082Y0112404D01*
X0378484Y0110805D02*
X0390401Y0110805D01*
X0390401Y0109207D02*
X0366106Y0109207D01*
X0364862Y0110450D02*
X0362750Y0110450D01*
X0362750Y0105350D01*
X0362750Y0105350D01*
X0367850Y0105350D01*
X0367850Y0107462D01*
X0364862Y0110450D01*
X0362750Y0110450D02*
X0362750Y0105350D01*
X0362750Y0105350D01*
X0362750Y0105350D01*
X0357650Y0105350D01*
X0357650Y0107462D01*
X0360638Y0110450D01*
X0362750Y0110450D01*
X0362750Y0109207D02*
X0362750Y0109207D01*
X0362750Y0107608D02*
X0362750Y0107608D01*
X0362750Y0106010D02*
X0362750Y0106010D01*
X0362750Y0105350D02*
X0357650Y0105350D01*
X0357650Y0103238D01*
X0360638Y0100250D01*
X0362750Y0100250D01*
X0364862Y0100250D01*
X0367850Y0103238D01*
X0367850Y0105350D01*
X0362750Y0105350D01*
X0362750Y0100250D01*
X0362750Y0105350D01*
X0362750Y0105350D01*
X0362750Y0104411D02*
X0362750Y0104411D01*
X0362750Y0102813D02*
X0362750Y0102813D01*
X0362750Y0101214D02*
X0362750Y0101214D01*
X0365827Y0101214D02*
X0390401Y0101214D01*
X0390401Y0099616D02*
X0325427Y0099616D01*
X0326290Y0100479D02*
X0327599Y0103640D01*
X0327599Y0104255D01*
X0329305Y0102550D01*
X0333695Y0102550D01*
X0336500Y0105355D01*
X0339305Y0102550D01*
X0343695Y0102550D01*
X0346200Y0105055D01*
X0346200Y0103155D01*
X0349305Y0100050D01*
X0353695Y0100050D01*
X0356800Y0103155D01*
X0356800Y0107545D01*
X0353695Y0110650D01*
X0349305Y0110650D01*
X0346800Y0108145D01*
X0346800Y0110045D01*
X0343695Y0113150D01*
X0339305Y0113150D01*
X0336500Y0110345D01*
X0333695Y0113150D01*
X0329305Y0113150D01*
X0326315Y0110160D01*
X0326290Y0110221D01*
X0323871Y0112640D01*
X0320710Y0113949D01*
X0317290Y0113949D01*
X0314129Y0112640D01*
X0311710Y0110221D01*
X0310401Y0107060D01*
X0310401Y0103640D01*
X0311710Y0100479D01*
X0314129Y0098060D01*
X0317290Y0096751D01*
X0320710Y0096751D01*
X0323871Y0098060D01*
X0326290Y0100479D01*
X0326595Y0101214D02*
X0348140Y0101214D01*
X0346542Y0102813D02*
X0343958Y0102813D01*
X0345557Y0104411D02*
X0346200Y0104411D01*
X0346800Y0109207D02*
X0347862Y0109207D01*
X0346040Y0110805D02*
X0372016Y0110805D01*
X0370418Y0112404D02*
X0344441Y0112404D01*
X0338559Y0112404D02*
X0334441Y0112404D01*
X0336040Y0110805D02*
X0336960Y0110805D01*
X0337443Y0104411D02*
X0335557Y0104411D01*
X0333958Y0102813D02*
X0339042Y0102813D01*
X0329042Y0102813D02*
X0327257Y0102813D01*
X0323768Y0098017D02*
X0390401Y0098017D01*
X0390401Y0102813D02*
X0367425Y0102813D01*
X0367850Y0104411D02*
X0390401Y0104411D01*
X0390401Y0106010D02*
X0367850Y0106010D01*
X0367704Y0107608D02*
X0390401Y0107608D01*
X0390401Y0121995D02*
X0276284Y0121995D01*
X0275878Y0123299D02*
X0277049Y0124470D01*
X0277049Y0132426D01*
X0275878Y0133598D01*
X0275500Y0133598D01*
X0275500Y0138646D01*
X0275381Y0138933D01*
X0275381Y0140560D01*
X0274210Y0141731D01*
X0272583Y0141731D01*
X0272296Y0141850D01*
X0270704Y0141850D01*
X0270417Y0141731D01*
X0268790Y0141731D01*
X0267619Y0140560D01*
X0267619Y0138933D01*
X0267500Y0138646D01*
X0267500Y0133598D01*
X0267122Y0133598D01*
X0265951Y0132426D01*
X0265951Y0124470D01*
X0267122Y0123299D01*
X0275878Y0123299D01*
X0276172Y0123593D02*
X0390401Y0123593D01*
X0390401Y0125192D02*
X0277049Y0125192D01*
X0277049Y0126790D02*
X0390401Y0126790D01*
X0390401Y0128389D02*
X0277049Y0128389D01*
X0277049Y0129987D02*
X0372834Y0129987D01*
X0372972Y0129850D02*
X0377528Y0129850D01*
X0380750Y0133072D01*
X0380750Y0137628D01*
X0377528Y0140850D01*
X0372972Y0140850D01*
X0369750Y0137628D01*
X0369750Y0133072D01*
X0372972Y0129850D01*
X0371236Y0131586D02*
X0277049Y0131586D01*
X0276291Y0133184D02*
X0369750Y0133184D01*
X0369750Y0134783D02*
X0275500Y0134783D01*
X0275500Y0136382D02*
X0369750Y0136382D01*
X0370102Y0137980D02*
X0323678Y0137980D01*
X0323871Y0138060D02*
X0326290Y0140479D01*
X0327599Y0143640D01*
X0327599Y0147060D01*
X0326290Y0150221D01*
X0323871Y0152640D01*
X0320710Y0153949D01*
X0317290Y0153949D01*
X0314129Y0152640D01*
X0311710Y0150221D01*
X0310401Y0147060D01*
X0310401Y0146162D01*
X0308612Y0147950D01*
X0306500Y0147950D01*
X0306500Y0142850D01*
X0302750Y0146600D01*
X0302410Y0145973D02*
X0300873Y0145973D01*
X0301641Y0145204D02*
X0298695Y0148150D01*
X0294305Y0148150D01*
X0291200Y0145045D01*
X0291200Y0140655D01*
X0294305Y0137550D01*
X0298695Y0137550D01*
X0301641Y0140496D01*
X0304388Y0137750D01*
X0306500Y0137750D01*
X0308612Y0137750D01*
X0311600Y0140738D01*
X0311600Y0140744D01*
X0311710Y0140479D01*
X0314129Y0138060D01*
X0317290Y0136751D01*
X0320710Y0136751D01*
X0323871Y0138060D01*
X0325390Y0139579D02*
X0371700Y0139579D01*
X0368050Y0143155D02*
X0364945Y0140050D01*
X0360555Y0140050D01*
X0357450Y0143155D01*
X0357450Y0147545D01*
X0360555Y0150650D01*
X0364945Y0150650D01*
X0368050Y0147545D01*
X0368050Y0143155D01*
X0367671Y0142776D02*
X0390401Y0142776D01*
X0390401Y0144374D02*
X0368050Y0144374D01*
X0368050Y0145973D02*
X0390401Y0145973D01*
X0390401Y0147571D02*
X0368024Y0147571D01*
X0366426Y0149170D02*
X0390401Y0149170D01*
X0390401Y0150768D02*
X0378163Y0150768D01*
X0377445Y0150050D02*
X0380550Y0153155D01*
X0380550Y0157545D01*
X0377545Y0160550D01*
X0378878Y0160550D01*
X0380050Y0161722D01*
X0380050Y0168978D01*
X0378878Y0170150D01*
X0376546Y0170150D01*
X0378252Y0170857D01*
X0379743Y0172348D01*
X0380550Y0174296D01*
X0380550Y0176404D01*
X0379743Y0178352D01*
X0378252Y0179843D01*
X0376304Y0180650D01*
X0374196Y0180650D01*
X0372248Y0179843D01*
X0370757Y0178352D01*
X0369950Y0176404D01*
X0369950Y0174296D01*
X0370757Y0172348D01*
X0372248Y0170857D01*
X0373954Y0170150D01*
X0371622Y0170150D01*
X0370450Y0168978D01*
X0370450Y0161722D01*
X0371622Y0160550D01*
X0372955Y0160550D01*
X0369950Y0157545D01*
X0369950Y0153155D01*
X0373055Y0150050D01*
X0377445Y0150050D01*
X0379762Y0152367D02*
X0390401Y0152367D01*
X0390401Y0153965D02*
X0380550Y0153965D01*
X0380550Y0155564D02*
X0390401Y0155564D01*
X0390401Y0157162D02*
X0380550Y0157162D01*
X0379335Y0158761D02*
X0390401Y0158761D01*
X0390401Y0160359D02*
X0377736Y0160359D01*
X0380050Y0161958D02*
X0390401Y0161958D01*
X0390401Y0163556D02*
X0380050Y0163556D01*
X0380050Y0165155D02*
X0390401Y0165155D01*
X0390401Y0166753D02*
X0380050Y0166753D01*
X0380050Y0168352D02*
X0390401Y0168352D01*
X0390401Y0169950D02*
X0379078Y0169950D01*
X0378944Y0171549D02*
X0390401Y0171549D01*
X0390401Y0173147D02*
X0380074Y0173147D01*
X0380550Y0174746D02*
X0390401Y0174746D01*
X0390401Y0176344D02*
X0380550Y0176344D01*
X0379913Y0177943D02*
X0390401Y0177943D01*
X0390401Y0179541D02*
X0378554Y0179541D01*
X0371946Y0179541D02*
X0349487Y0179541D01*
X0350050Y0178978D02*
X0348878Y0180150D01*
X0341622Y0180150D01*
X0340450Y0178978D01*
X0340450Y0177645D01*
X0337445Y0180650D01*
X0335250Y0180650D01*
X0335250Y0175350D01*
X0335250Y0175350D01*
X0335250Y0170050D01*
X0337445Y0170050D01*
X0340450Y0173055D01*
X0340450Y0171722D01*
X0341622Y0170550D01*
X0348878Y0170550D01*
X0350050Y0171722D01*
X0350050Y0178978D01*
X0350050Y0177943D02*
X0370587Y0177943D01*
X0369950Y0176344D02*
X0350050Y0176344D01*
X0350050Y0174746D02*
X0369950Y0174746D01*
X0370426Y0173147D02*
X0350050Y0173147D01*
X0349877Y0171549D02*
X0371556Y0171549D01*
X0371422Y0169950D02*
X0347455Y0169950D01*
X0347208Y0170076D02*
X0346444Y0170324D01*
X0345651Y0170450D01*
X0345250Y0170450D01*
X0345250Y0165350D01*
X0350350Y0165350D01*
X0350350Y0165751D01*
X0350224Y0166544D01*
X0349976Y0167308D01*
X0349612Y0168023D01*
X0349140Y0168672D01*
X0348572Y0169240D01*
X0347923Y0169712D01*
X0347208Y0170076D01*
X0345250Y0169950D02*
X0345250Y0169950D01*
X0345250Y0170450D02*
X0344849Y0170450D01*
X0344056Y0170324D01*
X0343292Y0170076D01*
X0342577Y0169712D01*
X0341928Y0169240D01*
X0341360Y0168672D01*
X0340888Y0168023D01*
X0340524Y0167308D01*
X0340276Y0166544D01*
X0340150Y0165751D01*
X0340150Y0165350D01*
X0345250Y0165350D01*
X0345250Y0165350D01*
X0345250Y0165350D01*
X0350350Y0165350D01*
X0350350Y0164949D01*
X0350224Y0164156D01*
X0349976Y0163392D01*
X0349612Y0162677D01*
X0349140Y0162028D01*
X0348572Y0161460D01*
X0347923Y0160988D01*
X0347208Y0160624D01*
X0346444Y0160376D01*
X0345651Y0160250D01*
X0345250Y0160250D01*
X0345250Y0165350D01*
X0345250Y0165350D01*
X0345250Y0165350D01*
X0345250Y0170450D01*
X0345250Y0168352D02*
X0345250Y0168352D01*
X0345250Y0166753D02*
X0345250Y0166753D01*
X0345250Y0165350D02*
X0340150Y0165350D01*
X0340150Y0164949D01*
X0340276Y0164156D01*
X0340524Y0163392D01*
X0340888Y0162677D01*
X0341360Y0162028D01*
X0341928Y0161460D01*
X0342577Y0160988D01*
X0343292Y0160624D01*
X0344056Y0160376D01*
X0344849Y0160250D01*
X0345250Y0160250D01*
X0345250Y0165350D01*
X0345250Y0165155D02*
X0345250Y0165155D01*
X0345250Y0163556D02*
X0345250Y0163556D01*
X0345250Y0161958D02*
X0345250Y0161958D01*
X0345250Y0160359D02*
X0345250Y0160359D01*
X0346341Y0160359D02*
X0372764Y0160359D01*
X0371165Y0158761D02*
X0339335Y0158761D01*
X0340550Y0157545D02*
X0337445Y0160650D01*
X0333055Y0160650D01*
X0329950Y0157545D01*
X0329950Y0153155D01*
X0333055Y0150050D01*
X0337445Y0150050D01*
X0340550Y0153155D01*
X0340550Y0157545D01*
X0340550Y0157162D02*
X0369950Y0157162D01*
X0369950Y0155564D02*
X0340550Y0155564D01*
X0340550Y0153965D02*
X0369950Y0153965D01*
X0370738Y0152367D02*
X0339762Y0152367D01*
X0338163Y0150768D02*
X0372337Y0150768D01*
X0370450Y0161958D02*
X0349070Y0161958D01*
X0350030Y0163556D02*
X0370450Y0163556D01*
X0370450Y0165155D02*
X0350350Y0165155D01*
X0350157Y0166753D02*
X0370450Y0166753D01*
X0370450Y0168352D02*
X0349373Y0168352D01*
X0343045Y0169950D02*
X0317628Y0169950D01*
X0317528Y0169850D02*
X0320750Y0173072D01*
X0320750Y0177628D01*
X0317528Y0180850D01*
X0312972Y0180850D01*
X0309750Y0177628D01*
X0309750Y0174595D01*
X0307445Y0176900D01*
X0305041Y0176900D01*
X0303850Y0178091D01*
X0303850Y0186009D01*
X0304120Y0185358D01*
X0305358Y0184120D01*
X0306975Y0183450D01*
X0313525Y0183450D01*
X0315142Y0184120D01*
X0316380Y0185358D01*
X0317050Y0186975D01*
X0317050Y0188725D01*
X0316380Y0190342D01*
X0315142Y0191580D01*
X0313525Y0192250D01*
X0306975Y0192250D01*
X0305358Y0191580D01*
X0304120Y0190342D01*
X0303850Y0189691D01*
X0303850Y0196009D01*
X0304120Y0195358D01*
X0305358Y0194120D01*
X0306975Y0193450D01*
X0313525Y0193450D01*
X0315142Y0194120D01*
X0316380Y0195358D01*
X0317050Y0196975D01*
X0317050Y0198725D01*
X0316380Y0200342D01*
X0315142Y0201580D01*
X0313525Y0202250D01*
X0306975Y0202250D01*
X0305358Y0201580D01*
X0304120Y0200342D01*
X0303850Y0199691D01*
X0303850Y0201359D01*
X0306244Y0203753D01*
X0306975Y0203450D01*
X0313525Y0203450D01*
X0315142Y0204120D01*
X0316380Y0205358D01*
X0317050Y0206975D01*
X0317050Y0208725D01*
X0316380Y0210342D01*
X0315142Y0211580D01*
X0313525Y0212250D01*
X0306975Y0212250D01*
X0305358Y0211580D01*
X0305227Y0211450D01*
X0304534Y0211450D01*
X0303522Y0211031D01*
X0306244Y0213753D01*
X0306975Y0213450D01*
X0313525Y0213450D01*
X0315142Y0214120D01*
X0316380Y0215358D01*
X0317050Y0216975D01*
X0317050Y0218725D01*
X0316380Y0220342D01*
X0315142Y0221580D01*
X0313525Y0222250D01*
X0306975Y0222250D01*
X0305358Y0221580D01*
X0305227Y0221450D01*
X0304534Y0221450D01*
X0303211Y0220902D01*
X0302198Y0219889D01*
X0289698Y0207389D01*
X0289150Y0206066D01*
X0289150Y0170884D01*
X0289698Y0169561D01*
X0290711Y0168548D01*
X0299950Y0159309D01*
X0299950Y0155655D01*
X0303055Y0152550D01*
X0307445Y0152550D01*
X0310550Y0155655D01*
X0310550Y0160045D01*
X0307445Y0163150D01*
X0306291Y0163150D01*
X0303141Y0166300D01*
X0307445Y0166300D01*
X0310550Y0169405D01*
X0310550Y0172272D01*
X0312972Y0169850D01*
X0317528Y0169850D01*
X0319227Y0171549D02*
X0331556Y0171549D01*
X0333055Y0170050D02*
X0335250Y0170050D01*
X0335250Y0175350D01*
X0335250Y0175350D01*
X0335250Y0175350D01*
X0329950Y0175350D01*
X0329950Y0177545D01*
X0333055Y0180650D01*
X0335250Y0180650D01*
X0335250Y0175350D01*
X0329950Y0175350D01*
X0329950Y0173155D01*
X0333055Y0170050D01*
X0335250Y0171549D02*
X0335250Y0171549D01*
X0335250Y0173147D02*
X0335250Y0173147D01*
X0335250Y0174746D02*
X0335250Y0174746D01*
X0335250Y0176344D02*
X0335250Y0176344D01*
X0335250Y0177943D02*
X0335250Y0177943D01*
X0335250Y0179541D02*
X0335250Y0179541D01*
X0338554Y0179541D02*
X0341013Y0179541D01*
X0340450Y0177943D02*
X0340152Y0177943D01*
X0336975Y0183450D02*
X0335358Y0184120D01*
X0334120Y0185358D01*
X0333450Y0186975D01*
X0333450Y0188725D01*
X0334120Y0190342D01*
X0335358Y0191580D01*
X0336975Y0192250D01*
X0343525Y0192250D01*
X0345142Y0191580D01*
X0346380Y0190342D01*
X0347050Y0188725D01*
X0347050Y0186975D01*
X0346380Y0185358D01*
X0345142Y0184120D01*
X0343525Y0183450D01*
X0336975Y0183450D01*
X0335141Y0184337D02*
X0315359Y0184337D01*
X0316619Y0185935D02*
X0333881Y0185935D01*
X0333450Y0187534D02*
X0317050Y0187534D01*
X0316881Y0189132D02*
X0333619Y0189132D01*
X0334508Y0190731D02*
X0315992Y0190731D01*
X0314679Y0193928D02*
X0335821Y0193928D01*
X0335358Y0194120D02*
X0336975Y0193450D01*
X0343525Y0193450D01*
X0345142Y0194120D01*
X0346380Y0195358D01*
X0347050Y0196975D01*
X0347050Y0198725D01*
X0346380Y0200342D01*
X0345142Y0201580D01*
X0343525Y0202250D01*
X0336975Y0202250D01*
X0335358Y0201580D01*
X0334120Y0200342D01*
X0333450Y0198725D01*
X0333450Y0196975D01*
X0334120Y0195358D01*
X0335358Y0194120D01*
X0334050Y0195526D02*
X0316450Y0195526D01*
X0317050Y0197125D02*
X0333450Y0197125D01*
X0333450Y0198723D02*
X0317050Y0198723D01*
X0316389Y0200322D02*
X0334111Y0200322D01*
X0336179Y0201920D02*
X0314321Y0201920D01*
X0313692Y0203519D02*
X0336808Y0203519D01*
X0336975Y0203450D02*
X0335358Y0204120D01*
X0334120Y0205358D01*
X0333450Y0206975D01*
X0333450Y0208725D01*
X0334120Y0210342D01*
X0335358Y0211580D01*
X0336975Y0212250D01*
X0343525Y0212250D01*
X0345142Y0211580D01*
X0346380Y0210342D01*
X0347050Y0208725D01*
X0347050Y0206975D01*
X0346380Y0205358D01*
X0345142Y0204120D01*
X0343525Y0203450D01*
X0336975Y0203450D01*
X0334360Y0205118D02*
X0316140Y0205118D01*
X0316943Y0206716D02*
X0333557Y0206716D01*
X0333450Y0208315D02*
X0317050Y0208315D01*
X0316558Y0209913D02*
X0333942Y0209913D01*
X0335289Y0211512D02*
X0315211Y0211512D01*
X0315731Y0214709D02*
X0334769Y0214709D01*
X0335358Y0214120D02*
X0336975Y0213450D01*
X0343525Y0213450D01*
X0345142Y0214120D01*
X0346380Y0215358D01*
X0347050Y0216975D01*
X0347050Y0218725D01*
X0346380Y0220342D01*
X0345142Y0221580D01*
X0343525Y0222250D01*
X0336975Y0222250D01*
X0335358Y0221580D01*
X0334120Y0220342D01*
X0333450Y0218725D01*
X0333450Y0216975D01*
X0334120Y0215358D01*
X0335358Y0214120D01*
X0333727Y0216307D02*
X0316773Y0216307D01*
X0317050Y0217906D02*
X0333450Y0217906D01*
X0333773Y0219504D02*
X0316727Y0219504D01*
X0315620Y0221103D02*
X0334880Y0221103D01*
X0335358Y0224120D02*
X0336975Y0223450D01*
X0343525Y0223450D01*
X0345142Y0224120D01*
X0346380Y0225358D01*
X0347050Y0226975D01*
X0347050Y0228725D01*
X0346380Y0230342D01*
X0345142Y0231580D01*
X0343525Y0232250D01*
X0336975Y0232250D01*
X0335358Y0231580D01*
X0334120Y0230342D01*
X0333450Y0228725D01*
X0333450Y0226975D01*
X0334120Y0225358D01*
X0335358Y0224120D01*
X0335178Y0224300D02*
X0315322Y0224300D01*
X0315142Y0224120D02*
X0316380Y0225358D01*
X0317050Y0226975D01*
X0317050Y0228725D01*
X0316380Y0230342D01*
X0315142Y0231580D01*
X0313525Y0232250D01*
X0306975Y0232250D01*
X0305358Y0231580D01*
X0304120Y0230342D01*
X0303450Y0228725D01*
X0303450Y0226975D01*
X0304120Y0225358D01*
X0305358Y0224120D01*
X0306975Y0223450D01*
X0313525Y0223450D01*
X0315142Y0224120D01*
X0316604Y0225898D02*
X0333896Y0225898D01*
X0333450Y0227497D02*
X0317050Y0227497D01*
X0316897Y0229095D02*
X0333603Y0229095D01*
X0334471Y0230694D02*
X0316029Y0230694D01*
X0314589Y0233891D02*
X0335911Y0233891D01*
X0335358Y0234120D02*
X0336975Y0233450D01*
X0343525Y0233450D01*
X0345142Y0234120D01*
X0346380Y0235358D01*
X0347050Y0236975D01*
X0347050Y0238725D01*
X0346380Y0240342D01*
X0345142Y0241580D01*
X0343525Y0242250D01*
X0336975Y0242250D01*
X0335358Y0241580D01*
X0334120Y0240342D01*
X0333450Y0238725D01*
X0333450Y0236975D01*
X0334120Y0235358D01*
X0335358Y0234120D01*
X0334065Y0235489D02*
X0316435Y0235489D01*
X0316380Y0235358D02*
X0317050Y0236975D01*
X0317050Y0238725D01*
X0316380Y0240342D01*
X0315142Y0241580D01*
X0313525Y0242250D01*
X0306975Y0242250D01*
X0305358Y0241580D01*
X0304120Y0240342D01*
X0303450Y0238725D01*
X0303450Y0236975D01*
X0304120Y0235358D01*
X0305358Y0234120D01*
X0306975Y0233450D01*
X0313525Y0233450D01*
X0315142Y0234120D01*
X0316380Y0235358D01*
X0317050Y0237088D02*
X0333450Y0237088D01*
X0333450Y0238686D02*
X0317050Y0238686D01*
X0316404Y0240285D02*
X0334096Y0240285D01*
X0336089Y0241883D02*
X0314411Y0241883D01*
X0313602Y0243482D02*
X0390401Y0243482D01*
X0390401Y0245080D02*
X0345820Y0245080D01*
X0345854Y0245114D02*
X0346242Y0245649D01*
X0346542Y0246238D01*
X0346747Y0246866D01*
X0346850Y0247519D01*
X0346850Y0247850D01*
X0346850Y0248181D01*
X0346747Y0248834D01*
X0346542Y0249462D01*
X0346242Y0250051D01*
X0345854Y0250586D01*
X0345386Y0251054D01*
X0344851Y0251442D01*
X0344262Y0251742D01*
X0343634Y0251947D01*
X0342981Y0252050D01*
X0340250Y0252050D01*
X0340250Y0247850D01*
X0340250Y0247850D01*
X0346850Y0247850D01*
X0340250Y0247850D01*
X0340250Y0247850D01*
X0340250Y0252050D01*
X0337519Y0252050D01*
X0336866Y0251947D01*
X0336238Y0251742D01*
X0335649Y0251442D01*
X0335114Y0251054D01*
X0334646Y0250586D01*
X0334258Y0250051D01*
X0333958Y0249462D01*
X0333753Y0248834D01*
X0333650Y0248181D01*
X0333650Y0247850D01*
X0340250Y0247850D01*
X0340250Y0243650D01*
X0342981Y0243650D01*
X0343634Y0243753D01*
X0344262Y0243958D01*
X0344851Y0244258D01*
X0345386Y0244646D01*
X0345854Y0245114D01*
X0346686Y0246679D02*
X0390401Y0246679D01*
X0390401Y0248277D02*
X0346835Y0248277D01*
X0346332Y0249876D02*
X0390401Y0249876D01*
X0390401Y0251474D02*
X0344788Y0251474D01*
X0340250Y0251474D02*
X0340250Y0251474D01*
X0340250Y0249876D02*
X0340250Y0249876D01*
X0340250Y0248277D02*
X0340250Y0248277D01*
X0340250Y0247850D02*
X0340250Y0247850D01*
X0340250Y0247850D01*
X0340250Y0243650D01*
X0337519Y0243650D01*
X0336866Y0243753D01*
X0336238Y0243958D01*
X0335649Y0244258D01*
X0335114Y0244646D01*
X0334646Y0245114D01*
X0334258Y0245649D01*
X0333958Y0246238D01*
X0333753Y0246866D01*
X0333650Y0247519D01*
X0333650Y0247850D01*
X0340250Y0247850D01*
X0340250Y0246679D02*
X0340250Y0246679D01*
X0340250Y0245080D02*
X0340250Y0245080D01*
X0344411Y0241883D02*
X0390401Y0241883D01*
X0390401Y0240285D02*
X0346404Y0240285D01*
X0347050Y0238686D02*
X0390401Y0238686D01*
X0390401Y0237088D02*
X0347050Y0237088D01*
X0346435Y0235489D02*
X0390401Y0235489D01*
X0390401Y0233891D02*
X0344589Y0233891D01*
X0346029Y0230694D02*
X0390401Y0230694D01*
X0390401Y0232292D02*
X0274114Y0232292D01*
X0274236Y0232204D02*
X0273701Y0232592D01*
X0273112Y0232892D01*
X0272484Y0233097D01*
X0271831Y0233200D01*
X0271500Y0233200D01*
X0271500Y0226600D01*
X0271500Y0226600D01*
X0275700Y0226600D01*
X0280250Y0226600D01*
X0280250Y0226600D01*
X0280250Y0231900D01*
X0282445Y0231900D01*
X0285550Y0228795D01*
X0285550Y0226600D01*
X0280250Y0226600D01*
X0280250Y0226600D01*
X0280250Y0231900D01*
X0278055Y0231900D01*
X0275671Y0229516D01*
X0275597Y0229984D01*
X0275392Y0230612D01*
X0275092Y0231201D01*
X0274704Y0231736D01*
X0274236Y0232204D01*
X0275351Y0230694D02*
X0276848Y0230694D01*
X0280250Y0230694D02*
X0280250Y0230694D01*
X0280250Y0229095D02*
X0280250Y0229095D01*
X0280250Y0227497D02*
X0280250Y0227497D01*
X0280250Y0226600D02*
X0280250Y0226600D01*
X0285550Y0226600D01*
X0285550Y0224405D01*
X0282445Y0221300D01*
X0280250Y0221300D01*
X0280250Y0226600D01*
X0280250Y0226600D01*
X0280250Y0221300D01*
X0278055Y0221300D01*
X0275671Y0223684D01*
X0275597Y0223216D01*
X0275392Y0222588D01*
X0275092Y0221999D01*
X0274704Y0221464D01*
X0274236Y0220996D01*
X0273701Y0220608D01*
X0273112Y0220308D01*
X0272484Y0220103D01*
X0271831Y0220000D01*
X0271500Y0220000D01*
X0271500Y0226600D01*
X0271500Y0226600D01*
X0271500Y0226600D01*
X0271500Y0226600D01*
X0267300Y0226600D01*
X0267300Y0229331D01*
X0267403Y0229984D01*
X0267608Y0230612D01*
X0267908Y0231201D01*
X0268296Y0231736D01*
X0268764Y0232204D01*
X0269299Y0232592D01*
X0269888Y0232892D01*
X0270516Y0233097D01*
X0271169Y0233200D01*
X0271500Y0233200D01*
X0271500Y0226600D01*
X0280250Y0226600D01*
X0280250Y0225898D02*
X0280250Y0225898D01*
X0280250Y0224300D02*
X0280250Y0224300D01*
X0280250Y0222701D02*
X0280250Y0222701D01*
X0283846Y0222701D02*
X0390401Y0222701D01*
X0390401Y0221103D02*
X0345620Y0221103D01*
X0346727Y0219504D02*
X0390401Y0219504D01*
X0390401Y0217906D02*
X0347050Y0217906D01*
X0346773Y0216307D02*
X0354419Y0216307D01*
X0354512Y0216400D02*
X0351700Y0213588D01*
X0351700Y0209612D01*
X0354512Y0206800D01*
X0358488Y0206800D01*
X0360875Y0209187D01*
X0363262Y0206800D01*
X0367238Y0206800D01*
X0370050Y0209612D01*
X0370050Y0213588D01*
X0367238Y0216400D01*
X0363262Y0216400D01*
X0360875Y0214013D01*
X0358488Y0216400D01*
X0354512Y0216400D01*
X0352820Y0214709D02*
X0345731Y0214709D01*
X0345211Y0211512D02*
X0351700Y0211512D01*
X0351700Y0213110D02*
X0305601Y0213110D01*
X0305289Y0211512D02*
X0304003Y0211512D01*
X0298616Y0216307D02*
X0214300Y0216307D01*
X0214300Y0217545D02*
X0211345Y0220501D01*
X0213210Y0220501D01*
X0216371Y0221810D01*
X0218790Y0224229D01*
X0220099Y0227390D01*
X0220099Y0230810D01*
X0218790Y0233971D01*
X0216371Y0236390D01*
X0213210Y0237699D01*
X0209790Y0237699D01*
X0206629Y0236390D01*
X0204210Y0233971D01*
X0202901Y0230810D01*
X0202901Y0227390D01*
X0203101Y0226906D01*
X0199250Y0230757D01*
X0199250Y0249943D01*
X0202657Y0253350D01*
X0204828Y0253350D01*
X0206000Y0254522D01*
X0206000Y0256693D01*
X0206407Y0257100D01*
X0208578Y0257100D01*
X0209750Y0258272D01*
X0209750Y0264928D01*
X0208578Y0266100D01*
X0201922Y0266100D01*
X0200750Y0264928D01*
X0200750Y0262757D01*
X0200343Y0262350D01*
X0198172Y0262350D01*
X0197000Y0261178D01*
X0197000Y0259007D01*
X0193050Y0255057D01*
X0193050Y0258795D01*
X0189945Y0261900D01*
X0185555Y0261900D01*
X0182450Y0258795D01*
X0182450Y0254405D01*
X0185555Y0251300D01*
X0189945Y0251300D01*
X0191398Y0252753D01*
X0191250Y0252396D01*
X0191250Y0228304D01*
X0191859Y0226834D01*
X0203700Y0214993D01*
X0203700Y0213155D01*
X0206805Y0210050D01*
X0211195Y0210050D01*
X0214300Y0213155D01*
X0214300Y0217545D01*
X0213940Y0217906D02*
X0300214Y0217906D01*
X0301813Y0219504D02*
X0212341Y0219504D01*
X0214663Y0221103D02*
X0248375Y0221103D01*
X0247770Y0221708D02*
X0249008Y0220470D01*
X0250625Y0219800D01*
X0252375Y0219800D01*
X0253992Y0220470D01*
X0255230Y0221708D01*
X0255900Y0223325D01*
X0255900Y0229875D01*
X0255230Y0231492D01*
X0253992Y0232730D01*
X0252375Y0233400D01*
X0250625Y0233400D01*
X0249008Y0232730D01*
X0247770Y0231492D01*
X0247100Y0229875D01*
X0247100Y0223325D01*
X0247770Y0221708D01*
X0247358Y0222701D02*
X0217262Y0222701D01*
X0218819Y0224300D02*
X0247100Y0224300D01*
X0247100Y0225898D02*
X0219481Y0225898D01*
X0220099Y0227497D02*
X0247100Y0227497D01*
X0247100Y0229095D02*
X0220099Y0229095D01*
X0220099Y0230694D02*
X0247439Y0230694D01*
X0248570Y0232292D02*
X0219485Y0232292D01*
X0218823Y0233891D02*
X0305911Y0233891D01*
X0304065Y0235489D02*
X0217272Y0235489D01*
X0214687Y0237088D02*
X0303450Y0237088D01*
X0303450Y0238686D02*
X0199250Y0238686D01*
X0199250Y0237088D02*
X0208313Y0237088D01*
X0205728Y0235489D02*
X0199250Y0235489D01*
X0199250Y0233891D02*
X0204177Y0233891D01*
X0203515Y0232292D02*
X0199250Y0232292D01*
X0199313Y0230694D02*
X0202901Y0230694D01*
X0202901Y0229095D02*
X0200912Y0229095D01*
X0202510Y0227497D02*
X0202901Y0227497D01*
X0197591Y0221103D02*
X0174663Y0221103D01*
X0173210Y0220501D02*
X0169790Y0220501D01*
X0166629Y0221810D01*
X0164210Y0224229D01*
X0162901Y0227390D01*
X0162901Y0230810D01*
X0164210Y0233971D01*
X0166629Y0236390D01*
X0169790Y0237699D01*
X0171655Y0237699D01*
X0168700Y0240655D01*
X0168700Y0245045D01*
X0171805Y0248150D01*
X0176195Y0248150D01*
X0179300Y0245045D01*
X0179300Y0240655D01*
X0176195Y0237550D01*
X0173571Y0237550D01*
X0176371Y0236390D01*
X0178790Y0233971D01*
X0180099Y0230810D01*
X0180099Y0227390D01*
X0178790Y0224229D01*
X0176371Y0221810D01*
X0173210Y0220501D01*
X0177262Y0222701D02*
X0195992Y0222701D01*
X0194393Y0224300D02*
X0178819Y0224300D01*
X0179481Y0225898D02*
X0192795Y0225898D01*
X0191585Y0227497D02*
X0180099Y0227497D01*
X0180099Y0229095D02*
X0191250Y0229095D01*
X0191250Y0230694D02*
X0180099Y0230694D01*
X0179485Y0232292D02*
X0191250Y0232292D01*
X0191250Y0233891D02*
X0178823Y0233891D01*
X0177272Y0235489D02*
X0191250Y0235489D01*
X0191250Y0237088D02*
X0174687Y0237088D01*
X0177332Y0238686D02*
X0191250Y0238686D01*
X0191250Y0240285D02*
X0178930Y0240285D01*
X0179300Y0241883D02*
X0191250Y0241883D01*
X0191250Y0243482D02*
X0179300Y0243482D01*
X0179265Y0245080D02*
X0191250Y0245080D01*
X0191250Y0246679D02*
X0177667Y0246679D01*
X0176195Y0251300D02*
X0171805Y0251300D01*
X0168700Y0254405D01*
X0168700Y0258795D01*
X0171805Y0261900D01*
X0176195Y0261900D01*
X0179300Y0258795D01*
X0179300Y0254405D01*
X0176195Y0251300D01*
X0176370Y0251474D02*
X0185380Y0251474D01*
X0183782Y0253073D02*
X0177968Y0253073D01*
X0179300Y0254671D02*
X0182450Y0254671D01*
X0182450Y0256270D02*
X0179300Y0256270D01*
X0179300Y0257868D02*
X0182450Y0257868D01*
X0183122Y0259467D02*
X0178628Y0259467D01*
X0177030Y0261065D02*
X0184720Y0261065D01*
X0182628Y0263050D02*
X0183800Y0264222D01*
X0183800Y0271478D01*
X0182728Y0272550D01*
X0186195Y0272550D01*
X0189300Y0275655D01*
X0189300Y0280045D01*
X0186195Y0283150D01*
X0181805Y0283150D01*
X0178700Y0280045D01*
X0178700Y0275655D01*
X0181705Y0272650D01*
X0175372Y0272650D01*
X0174200Y0271478D01*
X0174200Y0264222D01*
X0175372Y0263050D01*
X0182628Y0263050D01*
X0183800Y0264262D02*
X0200750Y0264262D01*
X0200657Y0262664D02*
X0150329Y0262664D01*
X0150054Y0262550D02*
X0152002Y0263357D01*
X0153493Y0264848D01*
X0154300Y0266796D01*
X0154300Y0268904D01*
X0153493Y0270852D01*
X0152002Y0272343D01*
X0150054Y0273150D01*
X0147946Y0273150D01*
X0145998Y0272343D01*
X0144507Y0270852D01*
X0143700Y0268904D01*
X0143700Y0266796D01*
X0144507Y0264848D01*
X0145998Y0263357D01*
X0147946Y0262550D01*
X0150054Y0262550D01*
X0147671Y0262664D02*
X0005050Y0262664D01*
X0005050Y0261065D02*
X0170970Y0261065D01*
X0169372Y0259467D02*
X0005050Y0259467D01*
X0005050Y0257868D02*
X0168700Y0257868D01*
X0168700Y0256270D02*
X0005050Y0256270D01*
X0005050Y0254671D02*
X0168700Y0254671D01*
X0170032Y0253073D02*
X0005050Y0253073D01*
X0005050Y0251474D02*
X0171630Y0251474D01*
X0170333Y0246679D02*
X0005050Y0246679D01*
X0005050Y0248277D02*
X0191250Y0248277D01*
X0191250Y0249876D02*
X0005050Y0249876D01*
X0005050Y0245080D02*
X0009702Y0245080D01*
X0010472Y0245850D02*
X0007250Y0242628D01*
X0007250Y0238072D01*
X0010472Y0234850D01*
X0015028Y0234850D01*
X0018250Y0238072D01*
X0018250Y0242628D01*
X0015028Y0245850D01*
X0010472Y0245850D01*
X0008104Y0243482D02*
X0005050Y0243482D01*
X0005050Y0241883D02*
X0007250Y0241883D01*
X0007250Y0240285D02*
X0005050Y0240285D01*
X0005050Y0238686D02*
X0007250Y0238686D01*
X0008234Y0237088D02*
X0005050Y0237088D01*
X0005050Y0235489D02*
X0009833Y0235489D01*
X0010472Y0230850D02*
X0007250Y0227628D01*
X0007250Y0223072D01*
X0010472Y0219850D01*
X0015028Y0219850D01*
X0018250Y0223072D01*
X0018250Y0227628D01*
X0015028Y0230850D01*
X0010472Y0230850D01*
X0010316Y0230694D02*
X0005050Y0230694D01*
X0005050Y0232292D02*
X0052033Y0232292D01*
X0053631Y0233891D02*
X0005050Y0233891D01*
X0005050Y0229095D02*
X0008717Y0229095D01*
X0007250Y0227497D02*
X0005050Y0227497D01*
X0005050Y0225898D02*
X0007250Y0225898D01*
X0007250Y0224300D02*
X0005050Y0224300D01*
X0005050Y0222701D02*
X0007621Y0222701D01*
X0009219Y0221103D02*
X0005050Y0221103D01*
X0005050Y0219504D02*
X0199189Y0219504D01*
X0200788Y0217906D02*
X0005050Y0217906D01*
X0005050Y0216307D02*
X0202386Y0216307D01*
X0203700Y0214709D02*
X0036170Y0214709D01*
X0035028Y0215850D02*
X0030472Y0215850D01*
X0027250Y0212628D01*
X0027250Y0208072D01*
X0030472Y0204850D01*
X0035028Y0204850D01*
X0038250Y0208072D01*
X0038250Y0212628D01*
X0035028Y0215850D01*
X0037768Y0213110D02*
X0203745Y0213110D01*
X0205343Y0211512D02*
X0038250Y0211512D01*
X0038250Y0209913D02*
X0247116Y0209913D01*
X0247100Y0209875D02*
X0247770Y0211492D01*
X0249008Y0212730D01*
X0250625Y0213400D01*
X0252375Y0213400D01*
X0253992Y0212730D01*
X0255230Y0211492D01*
X0255900Y0209875D01*
X0255900Y0203325D01*
X0255230Y0201708D01*
X0253992Y0200470D01*
X0252375Y0199800D01*
X0250625Y0199800D01*
X0249008Y0200470D01*
X0247770Y0201708D01*
X0247100Y0203325D01*
X0247100Y0209875D01*
X0247100Y0208315D02*
X0038250Y0208315D01*
X0036894Y0206716D02*
X0192871Y0206716D01*
X0193055Y0206900D02*
X0189950Y0203795D01*
X0189950Y0199405D01*
X0193055Y0196300D01*
X0197445Y0196300D01*
X0200550Y0199405D01*
X0200550Y0203795D01*
X0197445Y0206900D01*
X0193055Y0206900D01*
X0191272Y0205118D02*
X0035296Y0205118D01*
X0035028Y0200850D02*
X0030472Y0200850D01*
X0027250Y0197628D01*
X0027250Y0193072D01*
X0030472Y0189850D01*
X0035028Y0189850D01*
X0038250Y0193072D01*
X0038250Y0197628D01*
X0035028Y0200850D01*
X0035556Y0200322D02*
X0189950Y0200322D01*
X0189950Y0201920D02*
X0005050Y0201920D01*
X0005050Y0200322D02*
X0009944Y0200322D01*
X0010472Y0200850D02*
X0007250Y0197628D01*
X0007250Y0193072D01*
X0010472Y0189850D01*
X0015028Y0189850D01*
X0018250Y0193072D01*
X0018250Y0197628D01*
X0015028Y0200850D01*
X0010472Y0200850D01*
X0008345Y0198723D02*
X0005050Y0198723D01*
X0005050Y0197125D02*
X0007250Y0197125D01*
X0007250Y0195526D02*
X0005050Y0195526D01*
X0005050Y0193928D02*
X0007250Y0193928D01*
X0007992Y0192329D02*
X0005050Y0192329D01*
X0005050Y0190731D02*
X0009591Y0190731D01*
X0005050Y0189132D02*
X0141537Y0189132D01*
X0141805Y0189400D02*
X0138700Y0186295D01*
X0138700Y0181905D01*
X0139955Y0180650D01*
X0133396Y0180650D01*
X0131448Y0179843D01*
X0129957Y0178352D01*
X0129150Y0176404D01*
X0129150Y0174296D01*
X0129957Y0172348D01*
X0131448Y0170857D01*
X0132672Y0170350D01*
X0131448Y0169843D01*
X0129957Y0168352D01*
X0129150Y0166404D01*
X0129150Y0164296D01*
X0129957Y0162348D01*
X0131448Y0160857D01*
X0132672Y0160350D01*
X0131448Y0159843D01*
X0129957Y0158352D01*
X0129150Y0156404D01*
X0129150Y0154296D01*
X0129957Y0152348D01*
X0131448Y0150857D01*
X0133396Y0150050D01*
X0139955Y0150050D01*
X0138700Y0148795D01*
X0138700Y0144405D01*
X0141805Y0141300D01*
X0146195Y0141300D01*
X0149300Y0144405D01*
X0149300Y0146243D01*
X0150641Y0147584D01*
X0151766Y0148709D01*
X0152375Y0150179D01*
X0152375Y0151302D01*
X0153225Y0150950D01*
X0159775Y0150950D01*
X0161392Y0151620D01*
X0162630Y0152858D01*
X0163300Y0154475D01*
X0163300Y0156225D01*
X0162630Y0157842D01*
X0161392Y0159080D01*
X0159775Y0159750D01*
X0153225Y0159750D01*
X0152511Y0159454D01*
X0154007Y0160950D01*
X0159775Y0160950D01*
X0161392Y0161620D01*
X0162630Y0162858D01*
X0163300Y0164475D01*
X0163300Y0166225D01*
X0162630Y0167842D01*
X0161392Y0169080D01*
X0159775Y0169750D01*
X0153225Y0169750D01*
X0152259Y0169350D01*
X0151954Y0169350D01*
X0150484Y0168741D01*
X0149359Y0167616D01*
X0146350Y0164607D01*
X0146350Y0166404D01*
X0145543Y0168352D01*
X0144052Y0169843D01*
X0142828Y0170350D01*
X0144052Y0170857D01*
X0145543Y0172348D01*
X0146350Y0174296D01*
X0146350Y0176404D01*
X0145543Y0178352D01*
X0145095Y0178800D01*
X0146195Y0178800D01*
X0149300Y0181905D01*
X0149300Y0186295D01*
X0146195Y0189400D01*
X0141805Y0189400D01*
X0139939Y0187534D02*
X0005050Y0187534D01*
X0005050Y0185935D02*
X0138700Y0185935D01*
X0138700Y0184337D02*
X0005050Y0184337D01*
X0005050Y0182738D02*
X0138700Y0182738D01*
X0139465Y0181140D02*
X0005050Y0181140D01*
X0005050Y0179541D02*
X0131146Y0179541D01*
X0129787Y0177943D02*
X0005050Y0177943D01*
X0005050Y0176344D02*
X0129150Y0176344D01*
X0129150Y0174746D02*
X0005050Y0174746D01*
X0005050Y0173147D02*
X0129626Y0173147D01*
X0130756Y0171549D02*
X0027140Y0171549D01*
X0028738Y0169950D02*
X0131706Y0169950D01*
X0129957Y0168352D02*
X0030337Y0168352D01*
X0031935Y0166753D02*
X0129295Y0166753D01*
X0129150Y0165155D02*
X0033534Y0165155D01*
X0035132Y0163556D02*
X0129456Y0163556D01*
X0130347Y0161958D02*
X0036550Y0161958D01*
X0036550Y0160359D02*
X0132649Y0160359D01*
X0130365Y0158761D02*
X0036550Y0158761D01*
X0036550Y0157162D02*
X0129464Y0157162D01*
X0129150Y0155564D02*
X0036550Y0155564D01*
X0036550Y0153965D02*
X0129287Y0153965D01*
X0129949Y0152367D02*
X0036550Y0152367D01*
X0036550Y0150768D02*
X0131662Y0150768D01*
X0139074Y0149170D02*
X0036550Y0149170D01*
X0036550Y0147571D02*
X0138700Y0147571D01*
X0138700Y0145973D02*
X0036550Y0145973D01*
X0036550Y0144374D02*
X0138731Y0144374D01*
X0140329Y0142776D02*
X0035764Y0142776D01*
X0034166Y0141177D02*
X0146200Y0141177D01*
X0145998Y0141093D02*
X0144507Y0139602D01*
X0143700Y0137654D01*
X0143700Y0135546D01*
X0144507Y0133598D01*
X0145998Y0132107D01*
X0147946Y0131300D01*
X0150054Y0131300D01*
X0152002Y0132107D01*
X0153493Y0133598D01*
X0154300Y0135546D01*
X0154300Y0137654D01*
X0153493Y0139602D01*
X0152002Y0141093D01*
X0150054Y0141900D01*
X0147946Y0141900D01*
X0145998Y0141093D01*
X0144497Y0139579D02*
X0032567Y0139579D01*
X0030969Y0137980D02*
X0143835Y0137980D01*
X0143700Y0136382D02*
X0029370Y0136382D01*
X0027771Y0134783D02*
X0144016Y0134783D01*
X0144920Y0133184D02*
X0005050Y0133184D01*
X0005050Y0131586D02*
X0147255Y0131586D01*
X0150745Y0131586D02*
X0265951Y0131586D01*
X0265951Y0129987D02*
X0005050Y0129987D01*
X0005050Y0128389D02*
X0265951Y0128389D01*
X0265951Y0126790D02*
X0190338Y0126790D01*
X0190028Y0127100D02*
X0185472Y0127100D01*
X0182250Y0123878D01*
X0182250Y0119322D01*
X0185472Y0116100D01*
X0190028Y0116100D01*
X0193250Y0119322D01*
X0193250Y0123878D01*
X0190028Y0127100D01*
X0191936Y0125192D02*
X0265951Y0125192D01*
X0266828Y0123593D02*
X0193250Y0123593D01*
X0193250Y0121995D02*
X0266716Y0121995D01*
X0265951Y0120396D02*
X0193250Y0120396D01*
X0192726Y0118798D02*
X0265951Y0118798D01*
X0265951Y0117199D02*
X0191128Y0117199D01*
X0184372Y0117199D02*
X0179878Y0117199D01*
X0178778Y0116100D02*
X0174222Y0116100D01*
X0171000Y0119322D01*
X0171000Y0123878D01*
X0174222Y0127100D01*
X0178778Y0127100D01*
X0182000Y0123878D01*
X0182000Y0119322D01*
X0178778Y0116100D01*
X0181476Y0118798D02*
X0182774Y0118798D01*
X0182250Y0120396D02*
X0182000Y0120396D01*
X0182000Y0121995D02*
X0182250Y0121995D01*
X0182250Y0123593D02*
X0182000Y0123593D01*
X0180686Y0125192D02*
X0183564Y0125192D01*
X0185162Y0126790D02*
X0179088Y0126790D01*
X0173912Y0126790D02*
X0167838Y0126790D01*
X0167528Y0127100D02*
X0170750Y0123878D01*
X0170750Y0119322D01*
X0167528Y0116100D01*
X0162972Y0116100D01*
X0159750Y0119322D01*
X0159750Y0123878D01*
X0162972Y0127100D01*
X0167528Y0127100D01*
X0169436Y0125192D02*
X0172314Y0125192D01*
X0171000Y0123593D02*
X0170750Y0123593D01*
X0170750Y0121995D02*
X0171000Y0121995D01*
X0171000Y0120396D02*
X0170750Y0120396D01*
X0170226Y0118798D02*
X0171524Y0118798D01*
X0173122Y0117199D02*
X0168628Y0117199D01*
X0161872Y0117199D02*
X0157378Y0117199D01*
X0156278Y0116100D02*
X0159500Y0119322D01*
X0159500Y0123878D01*
X0156278Y0127100D01*
X0151722Y0127100D01*
X0148500Y0123878D01*
X0148500Y0119322D01*
X0151722Y0116100D01*
X0156278Y0116100D01*
X0158976Y0118798D02*
X0160274Y0118798D01*
X0159750Y0120396D02*
X0159500Y0120396D01*
X0159500Y0121995D02*
X0159750Y0121995D01*
X0159750Y0123593D02*
X0159500Y0123593D01*
X0158186Y0125192D02*
X0161064Y0125192D01*
X0162662Y0126790D02*
X0156588Y0126790D01*
X0151412Y0126790D02*
X0005050Y0126790D01*
X0005050Y0125192D02*
X0149814Y0125192D01*
X0148500Y0123593D02*
X0005050Y0123593D01*
X0005050Y0121995D02*
X0148500Y0121995D01*
X0148500Y0120396D02*
X0005050Y0120396D01*
X0005050Y0118798D02*
X0149024Y0118798D01*
X0150622Y0117199D02*
X0005050Y0117199D01*
X0005050Y0115601D02*
X0218428Y0115601D01*
X0218046Y0114002D02*
X0005050Y0114002D01*
X0005050Y0112404D02*
X0218046Y0112404D01*
X0218046Y0110805D02*
X0005050Y0110805D01*
X0005050Y0109207D02*
X0218046Y0109207D01*
X0218046Y0107608D02*
X0005050Y0107608D01*
X0005050Y0106010D02*
X0150914Y0106010D01*
X0154000Y0106010D02*
X0154000Y0106010D01*
X0154000Y0104411D02*
X0154000Y0104411D01*
X0154000Y0102813D02*
X0154000Y0102813D01*
X0154000Y0101214D02*
X0154000Y0101214D01*
X0154000Y0099616D02*
X0154000Y0099616D01*
X0154000Y0098017D02*
X0154000Y0098017D01*
X0154000Y0096419D02*
X0154000Y0096419D01*
X0156314Y0096419D02*
X0162936Y0096419D01*
X0163055Y0096300D02*
X0159950Y0099405D01*
X0159950Y0101600D01*
X0165250Y0101600D01*
X0165250Y0101600D01*
X0165250Y0106900D01*
X0167445Y0106900D01*
X0170550Y0103795D01*
X0170550Y0101600D01*
X0165250Y0101600D01*
X0165250Y0101600D01*
X0165250Y0101600D01*
X0165250Y0106900D01*
X0163055Y0106900D01*
X0159950Y0103795D01*
X0159950Y0101600D01*
X0165250Y0101600D01*
X0170550Y0101600D01*
X0170550Y0099405D01*
X0167445Y0096300D01*
X0165250Y0096300D01*
X0165250Y0101600D01*
X0165250Y0101600D01*
X0165250Y0096300D01*
X0163055Y0096300D01*
X0165250Y0096419D02*
X0165250Y0096419D01*
X0165250Y0098017D02*
X0165250Y0098017D01*
X0165250Y0099616D02*
X0165250Y0099616D01*
X0165250Y0101214D02*
X0165250Y0101214D01*
X0165250Y0102813D02*
X0165250Y0102813D01*
X0165250Y0104411D02*
X0165250Y0104411D01*
X0165250Y0106010D02*
X0165250Y0106010D01*
X0168336Y0106010D02*
X0173414Y0106010D01*
X0174305Y0106900D02*
X0171200Y0103795D01*
X0171200Y0101600D01*
X0176500Y0101600D01*
X0176500Y0101600D01*
X0176500Y0106900D01*
X0178695Y0106900D01*
X0181800Y0103795D01*
X0181800Y0101600D01*
X0176500Y0101600D01*
X0176500Y0101600D01*
X0176500Y0101600D01*
X0176500Y0106900D01*
X0174305Y0106900D01*
X0176500Y0106010D02*
X0176500Y0106010D01*
X0176500Y0104411D02*
X0176500Y0104411D01*
X0176500Y0102813D02*
X0176500Y0102813D01*
X0176500Y0101600D02*
X0171200Y0101600D01*
X0171200Y0099405D01*
X0174305Y0096300D01*
X0176500Y0096300D01*
X0178695Y0096300D01*
X0181800Y0099405D01*
X0181800Y0101600D01*
X0176500Y0101600D01*
X0176500Y0096300D01*
X0176500Y0101600D01*
X0176500Y0101600D01*
X0176500Y0101214D02*
X0176500Y0101214D01*
X0176500Y0099616D02*
X0176500Y0099616D01*
X0176500Y0098017D02*
X0176500Y0098017D01*
X0176500Y0096419D02*
X0176500Y0096419D01*
X0178814Y0096419D02*
X0185436Y0096419D01*
X0183837Y0098017D02*
X0180413Y0098017D01*
X0181800Y0099616D02*
X0182450Y0099616D01*
X0182450Y0101214D02*
X0181800Y0101214D01*
X0181800Y0102813D02*
X0182450Y0102813D01*
X0183066Y0104411D02*
X0181184Y0104411D01*
X0179586Y0106010D02*
X0184664Y0106010D01*
X0192434Y0104411D02*
X0218046Y0104411D01*
X0218046Y0102813D02*
X0193050Y0102813D01*
X0193050Y0101214D02*
X0218046Y0101214D01*
X0218046Y0099616D02*
X0193050Y0099616D01*
X0191663Y0098017D02*
X0218177Y0098017D01*
X0226920Y0107608D02*
X0228520Y0107608D01*
X0228520Y0109207D02*
X0226920Y0109207D01*
X0226920Y0110805D02*
X0228520Y0110805D01*
X0228520Y0112404D02*
X0226920Y0112404D01*
X0226920Y0114002D02*
X0228520Y0114002D01*
X0228520Y0115601D02*
X0226920Y0115601D01*
X0264855Y0115601D02*
X0265951Y0115601D01*
X0265951Y0114002D02*
X0265154Y0114002D01*
X0265154Y0112404D02*
X0266820Y0112404D01*
X0265154Y0110805D02*
X0268700Y0110805D01*
X0273010Y0106010D02*
X0278500Y0106010D01*
X0278500Y0107608D02*
X0274189Y0107608D01*
X0274300Y0109207D02*
X0280079Y0109207D01*
X0278500Y0107628D02*
X0281722Y0110850D01*
X0286278Y0110850D01*
X0289500Y0107628D01*
X0289500Y0103072D01*
X0286278Y0099850D01*
X0281722Y0099850D01*
X0278500Y0103072D01*
X0278500Y0107628D01*
X0278500Y0104411D02*
X0271367Y0104411D01*
X0265154Y0102813D02*
X0278759Y0102813D01*
X0280358Y0101214D02*
X0265154Y0101214D01*
X0265154Y0099616D02*
X0312573Y0099616D01*
X0311405Y0101214D02*
X0307642Y0101214D01*
X0306278Y0099850D02*
X0309500Y0103072D01*
X0309500Y0107628D01*
X0306278Y0110850D01*
X0301722Y0110850D01*
X0298500Y0107628D01*
X0298500Y0103072D01*
X0301722Y0099850D01*
X0306278Y0099850D01*
X0309241Y0102813D02*
X0310743Y0102813D01*
X0310401Y0104411D02*
X0309500Y0104411D01*
X0309500Y0106010D02*
X0310401Y0106010D01*
X0310628Y0107608D02*
X0309500Y0107608D01*
X0307921Y0109207D02*
X0311290Y0109207D01*
X0312294Y0110805D02*
X0306323Y0110805D01*
X0301677Y0110805D02*
X0286323Y0110805D01*
X0287921Y0109207D02*
X0300079Y0109207D01*
X0298500Y0107608D02*
X0289500Y0107608D01*
X0289500Y0106010D02*
X0298500Y0106010D01*
X0298500Y0104411D02*
X0289500Y0104411D01*
X0289241Y0102813D02*
X0298759Y0102813D01*
X0300358Y0101214D02*
X0287642Y0101214D01*
X0281677Y0110805D02*
X0274300Y0110805D01*
X0276180Y0112404D02*
X0313893Y0112404D01*
X0324107Y0112404D02*
X0328559Y0112404D01*
X0326960Y0110805D02*
X0325706Y0110805D01*
X0314232Y0098017D02*
X0265154Y0098017D01*
X0277049Y0114002D02*
X0369750Y0114002D01*
X0369750Y0115601D02*
X0277049Y0115601D01*
X0266709Y0133184D02*
X0183800Y0133184D01*
X0183800Y0132972D02*
X0183800Y0140228D01*
X0182728Y0141300D01*
X0186195Y0141300D01*
X0189300Y0144405D01*
X0189300Y0148795D01*
X0186195Y0151900D01*
X0181805Y0151900D01*
X0178700Y0148795D01*
X0178700Y0144405D01*
X0181705Y0141400D01*
X0175372Y0141400D01*
X0174200Y0140228D01*
X0174200Y0132972D01*
X0175372Y0131800D01*
X0182628Y0131800D01*
X0183800Y0132972D01*
X0183800Y0134783D02*
X0267500Y0134783D01*
X0267500Y0136382D02*
X0183800Y0136382D01*
X0183800Y0137980D02*
X0267500Y0137980D01*
X0267619Y0139579D02*
X0183800Y0139579D01*
X0182851Y0141177D02*
X0268236Y0141177D01*
X0274764Y0141177D02*
X0291200Y0141177D01*
X0291200Y0142776D02*
X0187671Y0142776D01*
X0189269Y0144374D02*
X0291200Y0144374D01*
X0292127Y0145973D02*
X0189300Y0145973D01*
X0189300Y0147571D02*
X0293726Y0147571D01*
X0299274Y0147571D02*
X0304009Y0147571D01*
X0304388Y0147950D02*
X0301641Y0145204D01*
X0304388Y0147950D02*
X0306500Y0147950D01*
X0306500Y0142850D01*
X0302750Y0139100D01*
X0302559Y0139579D02*
X0300724Y0139579D01*
X0299125Y0137980D02*
X0304157Y0137980D01*
X0306500Y0137980D02*
X0306500Y0137980D01*
X0306500Y0137750D02*
X0306500Y0142850D01*
X0310250Y0139100D01*
X0310441Y0139579D02*
X0312610Y0139579D01*
X0314322Y0137980D02*
X0308843Y0137980D01*
X0306500Y0137750D02*
X0306500Y0142850D01*
X0310250Y0146600D01*
X0310612Y0147571D02*
X0308991Y0147571D01*
X0306500Y0147571D02*
X0306500Y0147571D01*
X0306500Y0145973D02*
X0306500Y0145973D01*
X0306500Y0144374D02*
X0306500Y0144374D01*
X0306500Y0142850D02*
X0306500Y0142850D01*
X0306500Y0142850D01*
X0306500Y0142776D02*
X0306500Y0142776D01*
X0306500Y0141177D02*
X0306500Y0141177D01*
X0306500Y0139579D02*
X0306500Y0139579D01*
X0311274Y0149170D02*
X0188926Y0149170D01*
X0187327Y0150768D02*
X0312257Y0150768D01*
X0313856Y0152367D02*
X0177139Y0152367D01*
X0177630Y0152858D02*
X0178300Y0154475D01*
X0178300Y0156225D01*
X0177630Y0157842D01*
X0176392Y0159080D01*
X0174775Y0159750D01*
X0168225Y0159750D01*
X0166608Y0159080D01*
X0165370Y0157842D01*
X0164700Y0156225D01*
X0164700Y0154475D01*
X0165370Y0152858D01*
X0166608Y0151620D01*
X0168225Y0150950D01*
X0174775Y0150950D01*
X0176392Y0151620D01*
X0177630Y0152858D01*
X0178089Y0153965D02*
X0261640Y0153965D01*
X0263055Y0152550D02*
X0259950Y0155655D01*
X0259950Y0160045D01*
X0263055Y0163150D01*
X0267445Y0163150D01*
X0270550Y0160045D01*
X0270550Y0155655D01*
X0267445Y0152550D01*
X0263055Y0152550D01*
X0260041Y0155564D02*
X0178300Y0155564D01*
X0177912Y0157162D02*
X0259950Y0157162D01*
X0259950Y0158761D02*
X0176712Y0158761D01*
X0175741Y0161350D02*
X0191472Y0161350D01*
X0192972Y0159850D01*
X0197528Y0159850D01*
X0200750Y0163072D01*
X0200750Y0167628D01*
X0197528Y0170850D01*
X0192972Y0170850D01*
X0191472Y0169350D01*
X0175741Y0169350D01*
X0174775Y0169750D01*
X0168225Y0169750D01*
X0166608Y0169080D01*
X0165370Y0167842D01*
X0164700Y0166225D01*
X0164700Y0164475D01*
X0165370Y0162858D01*
X0166608Y0161620D01*
X0168225Y0160950D01*
X0174775Y0160950D01*
X0175741Y0161350D01*
X0166270Y0161958D02*
X0161730Y0161958D01*
X0162920Y0163556D02*
X0165080Y0163556D01*
X0164700Y0165155D02*
X0163300Y0165155D01*
X0163081Y0166753D02*
X0164919Y0166753D01*
X0165879Y0168352D02*
X0162121Y0168352D01*
X0161221Y0171549D02*
X0166779Y0171549D01*
X0166608Y0171620D02*
X0168225Y0170950D01*
X0174775Y0170950D01*
X0176392Y0171620D01*
X0177630Y0172858D01*
X0178300Y0174475D01*
X0178300Y0176225D01*
X0177630Y0177842D01*
X0176392Y0179080D01*
X0174775Y0179750D01*
X0168225Y0179750D01*
X0166608Y0179080D01*
X0165370Y0177842D01*
X0164700Y0176225D01*
X0164700Y0174475D01*
X0165370Y0172858D01*
X0166608Y0171620D01*
X0165250Y0173147D02*
X0162750Y0173147D01*
X0162630Y0172858D02*
X0163300Y0174475D01*
X0163300Y0176225D01*
X0162630Y0177842D01*
X0161392Y0179080D01*
X0159775Y0179750D01*
X0153225Y0179750D01*
X0151608Y0179080D01*
X0150370Y0177842D01*
X0149700Y0176225D01*
X0149700Y0174475D01*
X0150370Y0172858D01*
X0151608Y0171620D01*
X0153225Y0170950D01*
X0159775Y0170950D01*
X0161392Y0171620D01*
X0162630Y0172858D01*
X0163300Y0174746D02*
X0164700Y0174746D01*
X0164749Y0176344D02*
X0163251Y0176344D01*
X0162530Y0177943D02*
X0165470Y0177943D01*
X0167721Y0179541D02*
X0160279Y0179541D01*
X0152721Y0179541D02*
X0146937Y0179541D01*
X0145713Y0177943D02*
X0150470Y0177943D01*
X0149749Y0176344D02*
X0146350Y0176344D01*
X0146350Y0174746D02*
X0149700Y0174746D01*
X0150250Y0173147D02*
X0145874Y0173147D01*
X0144744Y0171549D02*
X0151779Y0171549D01*
X0150095Y0168352D02*
X0145543Y0168352D01*
X0146205Y0166753D02*
X0148496Y0166753D01*
X0146898Y0165155D02*
X0146350Y0165155D01*
X0143794Y0169950D02*
X0192072Y0169950D01*
X0198428Y0169950D02*
X0259950Y0169950D01*
X0259950Y0169405D02*
X0263055Y0166300D01*
X0267445Y0166300D01*
X0270550Y0169405D01*
X0270550Y0173795D01*
X0267445Y0176900D01*
X0263055Y0176900D01*
X0259950Y0173795D01*
X0259950Y0169405D01*
X0261003Y0168352D02*
X0200026Y0168352D01*
X0200750Y0166753D02*
X0262601Y0166753D01*
X0261862Y0161958D02*
X0199636Y0161958D01*
X0200750Y0163556D02*
X0295703Y0163556D01*
X0297301Y0161958D02*
X0268638Y0161958D01*
X0270236Y0160359D02*
X0298900Y0160359D01*
X0299950Y0158761D02*
X0270550Y0158761D01*
X0270550Y0157162D02*
X0299950Y0157162D01*
X0300041Y0155564D02*
X0270459Y0155564D01*
X0268860Y0153965D02*
X0301640Y0153965D01*
X0308860Y0153965D02*
X0329950Y0153965D01*
X0329950Y0155564D02*
X0310459Y0155564D01*
X0310550Y0157162D02*
X0329950Y0157162D01*
X0331165Y0158761D02*
X0310550Y0158761D01*
X0310236Y0160359D02*
X0332764Y0160359D01*
X0337736Y0160359D02*
X0344159Y0160359D01*
X0341430Y0161958D02*
X0308638Y0161958D01*
X0305885Y0163556D02*
X0340470Y0163556D01*
X0340150Y0165155D02*
X0304286Y0165155D01*
X0307899Y0166753D02*
X0340343Y0166753D01*
X0341127Y0168352D02*
X0309497Y0168352D01*
X0310550Y0169950D02*
X0312872Y0169950D01*
X0311273Y0171549D02*
X0310550Y0171549D01*
X0309750Y0174746D02*
X0309600Y0174746D01*
X0309750Y0176344D02*
X0308001Y0176344D01*
X0310065Y0177943D02*
X0303998Y0177943D01*
X0303850Y0179541D02*
X0311663Y0179541D01*
X0318837Y0179541D02*
X0331946Y0179541D01*
X0330347Y0177943D02*
X0320435Y0177943D01*
X0320750Y0176344D02*
X0329950Y0176344D01*
X0329950Y0174746D02*
X0320750Y0174746D01*
X0320750Y0173147D02*
X0329957Y0173147D01*
X0338944Y0171549D02*
X0340623Y0171549D01*
X0345359Y0184337D02*
X0390401Y0184337D01*
X0390401Y0185935D02*
X0346619Y0185935D01*
X0347050Y0187534D02*
X0353778Y0187534D01*
X0354512Y0186800D02*
X0358488Y0186800D01*
X0360875Y0189187D01*
X0363262Y0186800D01*
X0367238Y0186800D01*
X0370050Y0189612D01*
X0370050Y0193588D01*
X0367238Y0196400D01*
X0363262Y0196400D01*
X0360875Y0194013D01*
X0358488Y0196400D01*
X0354512Y0196400D01*
X0351700Y0193588D01*
X0351700Y0189612D01*
X0354512Y0186800D01*
X0352179Y0189132D02*
X0346881Y0189132D01*
X0345992Y0190731D02*
X0351700Y0190731D01*
X0351700Y0192329D02*
X0303850Y0192329D01*
X0303850Y0190731D02*
X0304508Y0190731D01*
X0303850Y0193928D02*
X0305821Y0193928D01*
X0304050Y0195526D02*
X0303850Y0195526D01*
X0303850Y0200322D02*
X0304111Y0200322D01*
X0304412Y0201920D02*
X0306179Y0201920D01*
X0306010Y0203519D02*
X0306808Y0203519D01*
X0295419Y0213110D02*
X0273075Y0213110D01*
X0272375Y0213400D02*
X0270625Y0213400D01*
X0269008Y0212730D01*
X0267770Y0211492D01*
X0267100Y0209875D01*
X0267100Y0203325D01*
X0267770Y0201708D01*
X0269008Y0200470D01*
X0270625Y0199800D01*
X0272375Y0199800D01*
X0273992Y0200470D01*
X0275230Y0201708D01*
X0275855Y0203217D01*
X0277972Y0201100D01*
X0282528Y0201100D01*
X0285750Y0204322D01*
X0285750Y0208878D01*
X0282528Y0212100D01*
X0277972Y0212100D01*
X0275855Y0209983D01*
X0275230Y0211492D01*
X0273992Y0212730D01*
X0272375Y0213400D01*
X0269925Y0213110D02*
X0263075Y0213110D01*
X0262375Y0213400D02*
X0260625Y0213400D01*
X0259008Y0212730D01*
X0257770Y0211492D01*
X0257100Y0209875D01*
X0257100Y0203325D01*
X0257770Y0201708D01*
X0259008Y0200470D01*
X0260625Y0199800D01*
X0262375Y0199800D01*
X0263992Y0200470D01*
X0265230Y0201708D01*
X0265900Y0203325D01*
X0265900Y0209875D01*
X0265230Y0211492D01*
X0263992Y0212730D01*
X0262375Y0213400D01*
X0259925Y0213110D02*
X0253075Y0213110D01*
X0255211Y0211512D02*
X0257789Y0211512D01*
X0257116Y0209913D02*
X0255884Y0209913D01*
X0255900Y0208315D02*
X0257100Y0208315D01*
X0257100Y0206716D02*
X0255900Y0206716D01*
X0255900Y0205118D02*
X0257100Y0205118D01*
X0257100Y0203519D02*
X0255900Y0203519D01*
X0255318Y0201920D02*
X0257682Y0201920D01*
X0259365Y0200322D02*
X0253635Y0200322D01*
X0249365Y0200322D02*
X0245816Y0200322D01*
X0246300Y0199838D02*
X0243488Y0202650D01*
X0239512Y0202650D01*
X0236700Y0199838D01*
X0236700Y0195862D01*
X0239512Y0193050D01*
X0243488Y0193050D01*
X0246300Y0195862D01*
X0246300Y0199838D01*
X0246300Y0198723D02*
X0289150Y0198723D01*
X0289150Y0197125D02*
X0246300Y0197125D01*
X0245965Y0195526D02*
X0289150Y0195526D01*
X0289150Y0193928D02*
X0244366Y0193928D01*
X0247770Y0191492D02*
X0247100Y0189875D01*
X0247100Y0183325D01*
X0247770Y0181708D01*
X0249008Y0180470D01*
X0250625Y0179800D01*
X0252375Y0179800D01*
X0253992Y0180470D01*
X0255230Y0181708D01*
X0255900Y0183325D01*
X0255900Y0189875D01*
X0255230Y0191492D01*
X0253992Y0192730D01*
X0252375Y0193400D01*
X0250625Y0193400D01*
X0249008Y0192730D01*
X0247770Y0191492D01*
X0247454Y0190731D02*
X0197647Y0190731D01*
X0197528Y0190850D02*
X0192972Y0190850D01*
X0189750Y0187628D01*
X0189750Y0183072D01*
X0192972Y0179850D01*
X0197528Y0179850D01*
X0200750Y0183072D01*
X0200750Y0187628D01*
X0197528Y0190850D01*
X0199246Y0189132D02*
X0247100Y0189132D01*
X0247100Y0187534D02*
X0200750Y0187534D01*
X0200750Y0185935D02*
X0247100Y0185935D01*
X0247100Y0184337D02*
X0200750Y0184337D01*
X0200417Y0182738D02*
X0247343Y0182738D01*
X0248338Y0181140D02*
X0198818Y0181140D01*
X0191682Y0181140D02*
X0188535Y0181140D01*
X0189300Y0181905D02*
X0189300Y0186295D01*
X0186195Y0189400D01*
X0182728Y0189400D01*
X0183800Y0190472D01*
X0183800Y0197728D01*
X0182628Y0198900D01*
X0175372Y0198900D01*
X0174200Y0197728D01*
X0174200Y0190472D01*
X0175372Y0189300D01*
X0181705Y0189300D01*
X0178700Y0186295D01*
X0178700Y0181905D01*
X0181805Y0178800D01*
X0186195Y0178800D01*
X0189300Y0181905D01*
X0189300Y0182738D02*
X0190083Y0182738D01*
X0189750Y0184337D02*
X0189300Y0184337D01*
X0189300Y0185935D02*
X0189750Y0185935D01*
X0189750Y0187534D02*
X0188061Y0187534D01*
X0186463Y0189132D02*
X0191254Y0189132D01*
X0192853Y0190731D02*
X0183800Y0190731D01*
X0183800Y0192329D02*
X0248607Y0192329D01*
X0254393Y0192329D02*
X0258607Y0192329D01*
X0259008Y0192730D02*
X0257770Y0191492D01*
X0257100Y0189875D01*
X0257100Y0183325D01*
X0257770Y0181708D01*
X0259008Y0180470D01*
X0260625Y0179800D01*
X0262375Y0179800D01*
X0263992Y0180470D01*
X0265230Y0181708D01*
X0265900Y0183325D01*
X0265900Y0189875D01*
X0265230Y0191492D01*
X0263992Y0192730D01*
X0262375Y0193400D01*
X0260625Y0193400D01*
X0259008Y0192730D01*
X0257454Y0190731D02*
X0255546Y0190731D01*
X0255900Y0189132D02*
X0257100Y0189132D01*
X0257100Y0187534D02*
X0255900Y0187534D01*
X0255900Y0185935D02*
X0257100Y0185935D01*
X0257100Y0184337D02*
X0255900Y0184337D01*
X0255657Y0182738D02*
X0257343Y0182738D01*
X0258338Y0181140D02*
X0254662Y0181140D01*
X0260900Y0174746D02*
X0178300Y0174746D01*
X0178251Y0176344D02*
X0262499Y0176344D01*
X0259950Y0173147D02*
X0177750Y0173147D01*
X0176221Y0171549D02*
X0259950Y0171549D01*
X0267899Y0166753D02*
X0292506Y0166753D01*
X0294104Y0165155D02*
X0200750Y0165155D01*
X0198037Y0160359D02*
X0260264Y0160359D01*
X0269497Y0168352D02*
X0290907Y0168352D01*
X0289537Y0169950D02*
X0270550Y0169950D01*
X0270550Y0171549D02*
X0289150Y0171549D01*
X0289150Y0173147D02*
X0270550Y0173147D01*
X0269600Y0174746D02*
X0289150Y0174746D01*
X0289150Y0176344D02*
X0268001Y0176344D01*
X0269888Y0180308D02*
X0270516Y0180103D01*
X0271169Y0180000D01*
X0271500Y0180000D01*
X0271831Y0180000D01*
X0272484Y0180103D01*
X0273112Y0180308D01*
X0273701Y0180608D01*
X0274236Y0180996D01*
X0274704Y0181464D01*
X0275092Y0181999D01*
X0275392Y0182588D01*
X0275597Y0183216D01*
X0275671Y0183684D01*
X0278055Y0181300D01*
X0280250Y0181300D01*
X0282445Y0181300D01*
X0285550Y0184405D01*
X0285550Y0186600D01*
X0285550Y0188795D01*
X0282445Y0191900D01*
X0280250Y0191900D01*
X0280250Y0186600D01*
X0280250Y0186600D01*
X0285550Y0186600D01*
X0280250Y0186600D01*
X0280250Y0186600D01*
X0280250Y0191900D01*
X0278055Y0191900D01*
X0275671Y0189516D01*
X0275597Y0189984D01*
X0275392Y0190612D01*
X0275092Y0191201D01*
X0274704Y0191736D01*
X0274236Y0192204D01*
X0273701Y0192592D01*
X0273112Y0192892D01*
X0272484Y0193097D01*
X0271831Y0193200D01*
X0271500Y0193200D01*
X0271500Y0186600D01*
X0271500Y0186600D01*
X0280250Y0186600D01*
X0280250Y0181300D01*
X0280250Y0186600D01*
X0280250Y0186600D01*
X0280250Y0186600D01*
X0275700Y0186600D01*
X0271500Y0186600D01*
X0271500Y0186600D01*
X0271500Y0180000D01*
X0271500Y0186600D01*
X0271500Y0186600D01*
X0271500Y0186600D01*
X0267300Y0186600D01*
X0267300Y0189331D01*
X0267403Y0189984D01*
X0267608Y0190612D01*
X0267908Y0191201D01*
X0268296Y0191736D01*
X0268764Y0192204D01*
X0269299Y0192592D01*
X0269888Y0192892D01*
X0270516Y0193097D01*
X0271169Y0193200D01*
X0271500Y0193200D01*
X0271500Y0186600D01*
X0267300Y0186600D01*
X0267300Y0183869D01*
X0267403Y0183216D01*
X0267608Y0182588D01*
X0267908Y0181999D01*
X0268296Y0181464D01*
X0268764Y0180996D01*
X0269299Y0180608D01*
X0269888Y0180308D01*
X0268620Y0181140D02*
X0264662Y0181140D01*
X0265657Y0182738D02*
X0267559Y0182738D01*
X0267300Y0184337D02*
X0265900Y0184337D01*
X0265900Y0185935D02*
X0267300Y0185935D01*
X0267300Y0187534D02*
X0265900Y0187534D01*
X0265900Y0189132D02*
X0267300Y0189132D01*
X0267668Y0190731D02*
X0265546Y0190731D01*
X0264393Y0192329D02*
X0268937Y0192329D01*
X0271500Y0192329D02*
X0271500Y0192329D01*
X0271500Y0190731D02*
X0271500Y0190731D01*
X0271500Y0189132D02*
X0271500Y0189132D01*
X0271500Y0187534D02*
X0271500Y0187534D01*
X0271500Y0185935D02*
X0271500Y0185935D01*
X0271500Y0184337D02*
X0271500Y0184337D01*
X0271500Y0182738D02*
X0271500Y0182738D01*
X0271500Y0181140D02*
X0271500Y0181140D01*
X0274380Y0181140D02*
X0289150Y0181140D01*
X0289150Y0182738D02*
X0283884Y0182738D01*
X0285482Y0184337D02*
X0289150Y0184337D01*
X0289150Y0185935D02*
X0285550Y0185935D01*
X0285550Y0187534D02*
X0289150Y0187534D01*
X0289150Y0189132D02*
X0285213Y0189132D01*
X0283614Y0190731D02*
X0289150Y0190731D01*
X0289150Y0192329D02*
X0274063Y0192329D01*
X0275332Y0190731D02*
X0276886Y0190731D01*
X0280250Y0190731D02*
X0280250Y0190731D01*
X0280250Y0189132D02*
X0280250Y0189132D01*
X0280250Y0187534D02*
X0280250Y0187534D01*
X0280250Y0185935D02*
X0280250Y0185935D01*
X0280250Y0184337D02*
X0280250Y0184337D01*
X0280250Y0182738D02*
X0280250Y0182738D01*
X0276616Y0182738D02*
X0275441Y0182738D01*
X0289150Y0179541D02*
X0186937Y0179541D01*
X0181063Y0179541D02*
X0175279Y0179541D01*
X0177530Y0177943D02*
X0289150Y0177943D01*
X0303850Y0181140D02*
X0390401Y0181140D01*
X0390401Y0182738D02*
X0303850Y0182738D01*
X0303850Y0184337D02*
X0305141Y0184337D01*
X0303881Y0185935D02*
X0303850Y0185935D01*
X0289150Y0200322D02*
X0273635Y0200322D01*
X0275318Y0201920D02*
X0277151Y0201920D01*
X0283349Y0201920D02*
X0289150Y0201920D01*
X0289150Y0203519D02*
X0284947Y0203519D01*
X0285750Y0205118D02*
X0289150Y0205118D01*
X0289419Y0206716D02*
X0285750Y0206716D01*
X0285750Y0208315D02*
X0290623Y0208315D01*
X0292222Y0209913D02*
X0284715Y0209913D01*
X0283117Y0211512D02*
X0293820Y0211512D01*
X0297017Y0214709D02*
X0214300Y0214709D01*
X0214255Y0213110D02*
X0249925Y0213110D01*
X0247789Y0211512D02*
X0212657Y0211512D01*
X0211195Y0206900D02*
X0206805Y0206900D01*
X0203700Y0203795D01*
X0203700Y0199405D01*
X0206805Y0196300D01*
X0211195Y0196300D01*
X0214300Y0199405D01*
X0214300Y0203795D01*
X0211195Y0206900D01*
X0211379Y0206716D02*
X0247100Y0206716D01*
X0247100Y0205118D02*
X0212978Y0205118D01*
X0214300Y0203519D02*
X0247100Y0203519D01*
X0247682Y0201920D02*
X0244218Y0201920D01*
X0238782Y0201920D02*
X0224218Y0201920D01*
X0223488Y0202650D02*
X0219512Y0202650D01*
X0216700Y0199838D01*
X0216700Y0195862D01*
X0219512Y0193050D01*
X0223488Y0193050D01*
X0226300Y0195862D01*
X0226300Y0199838D01*
X0223488Y0202650D01*
X0225816Y0200322D02*
X0237184Y0200322D01*
X0236700Y0198723D02*
X0226300Y0198723D01*
X0226300Y0197125D02*
X0236700Y0197125D01*
X0237035Y0195526D02*
X0225965Y0195526D01*
X0224366Y0193928D02*
X0238634Y0193928D01*
X0218634Y0193928D02*
X0183800Y0193928D01*
X0183800Y0195526D02*
X0217035Y0195526D01*
X0216700Y0197125D02*
X0212020Y0197125D01*
X0213619Y0198723D02*
X0216700Y0198723D01*
X0217184Y0200322D02*
X0214300Y0200322D01*
X0214300Y0201920D02*
X0218782Y0201920D01*
X0206621Y0206716D02*
X0197629Y0206716D01*
X0199228Y0205118D02*
X0205022Y0205118D01*
X0203700Y0203519D02*
X0200550Y0203519D01*
X0200550Y0201920D02*
X0203700Y0201920D01*
X0203700Y0200322D02*
X0200550Y0200322D01*
X0199869Y0198723D02*
X0204381Y0198723D01*
X0205980Y0197125D02*
X0198270Y0197125D01*
X0192230Y0197125D02*
X0183800Y0197125D01*
X0182805Y0198723D02*
X0190631Y0198723D01*
X0189950Y0203519D02*
X0005050Y0203519D01*
X0005050Y0205118D02*
X0010204Y0205118D01*
X0010472Y0204850D02*
X0015028Y0204850D01*
X0018250Y0208072D01*
X0018250Y0212628D01*
X0015028Y0215850D01*
X0010472Y0215850D01*
X0007250Y0212628D01*
X0007250Y0208072D01*
X0010472Y0204850D01*
X0008606Y0206716D02*
X0005050Y0206716D01*
X0005050Y0208315D02*
X0007250Y0208315D01*
X0007250Y0209913D02*
X0005050Y0209913D01*
X0005050Y0211512D02*
X0007250Y0211512D01*
X0007732Y0213110D02*
X0005050Y0213110D01*
X0005050Y0214709D02*
X0009330Y0214709D01*
X0016170Y0214709D02*
X0029330Y0214709D01*
X0027732Y0213110D02*
X0017768Y0213110D01*
X0018250Y0211512D02*
X0027250Y0211512D01*
X0027250Y0209913D02*
X0018250Y0209913D01*
X0018250Y0208315D02*
X0027250Y0208315D01*
X0028606Y0206716D02*
X0016894Y0206716D01*
X0015296Y0205118D02*
X0030204Y0205118D01*
X0029944Y0200322D02*
X0015556Y0200322D01*
X0017155Y0198723D02*
X0028345Y0198723D01*
X0027250Y0197125D02*
X0018250Y0197125D01*
X0018250Y0195526D02*
X0027250Y0195526D01*
X0027250Y0193928D02*
X0018250Y0193928D01*
X0017508Y0192329D02*
X0027992Y0192329D01*
X0029591Y0190731D02*
X0015909Y0190731D01*
X0035909Y0190731D02*
X0144874Y0190731D01*
X0144507Y0191098D02*
X0145998Y0189607D01*
X0147946Y0188800D01*
X0150054Y0188800D01*
X0152002Y0189607D01*
X0153493Y0191098D01*
X0154300Y0193046D01*
X0154300Y0195154D01*
X0153493Y0197102D01*
X0152002Y0198593D01*
X0150054Y0199400D01*
X0147946Y0199400D01*
X0145998Y0198593D01*
X0144507Y0197102D01*
X0143700Y0195154D01*
X0143700Y0193046D01*
X0144507Y0191098D01*
X0143997Y0192329D02*
X0037508Y0192329D01*
X0038250Y0193928D02*
X0143700Y0193928D01*
X0143854Y0195526D02*
X0038250Y0195526D01*
X0038250Y0197125D02*
X0144530Y0197125D01*
X0146312Y0198723D02*
X0037155Y0198723D01*
X0035028Y0219850D02*
X0030472Y0219850D01*
X0027250Y0223072D01*
X0027250Y0227628D01*
X0030472Y0230850D01*
X0035028Y0230850D01*
X0038250Y0227628D01*
X0038250Y0223072D01*
X0035028Y0219850D01*
X0036281Y0221103D02*
X0168337Y0221103D01*
X0165738Y0222701D02*
X0125261Y0222701D01*
X0124110Y0221550D02*
X0127800Y0225240D01*
X0127800Y0230460D01*
X0124110Y0234150D01*
X0118890Y0234150D01*
X0115200Y0230460D01*
X0115200Y0225240D01*
X0118890Y0221550D01*
X0124110Y0221550D01*
X0126859Y0224300D02*
X0164181Y0224300D01*
X0163519Y0225898D02*
X0127800Y0225898D01*
X0127800Y0227497D02*
X0162901Y0227497D01*
X0162901Y0229095D02*
X0127800Y0229095D01*
X0127566Y0230694D02*
X0162901Y0230694D01*
X0163515Y0232292D02*
X0125967Y0232292D01*
X0124369Y0233891D02*
X0164177Y0233891D01*
X0165728Y0235489D02*
X0035667Y0235489D01*
X0035028Y0234850D02*
X0038250Y0238072D01*
X0038250Y0242628D01*
X0035028Y0245850D01*
X0030472Y0245850D01*
X0027250Y0242628D01*
X0027250Y0238072D01*
X0030472Y0234850D01*
X0035028Y0234850D01*
X0037266Y0237088D02*
X0168313Y0237088D01*
X0170668Y0238686D02*
X0038250Y0238686D01*
X0038250Y0240285D02*
X0169070Y0240285D01*
X0168700Y0241883D02*
X0038250Y0241883D01*
X0037396Y0243482D02*
X0168700Y0243482D01*
X0168735Y0245080D02*
X0035798Y0245080D01*
X0029702Y0245080D02*
X0015798Y0245080D01*
X0017396Y0243482D02*
X0028104Y0243482D01*
X0027250Y0241883D02*
X0018250Y0241883D01*
X0018250Y0240285D02*
X0027250Y0240285D01*
X0027250Y0238686D02*
X0018250Y0238686D01*
X0017266Y0237088D02*
X0028234Y0237088D01*
X0029833Y0235489D02*
X0015667Y0235489D01*
X0015184Y0230694D02*
X0030316Y0230694D01*
X0028717Y0229095D02*
X0016783Y0229095D01*
X0018250Y0227497D02*
X0027250Y0227497D01*
X0027250Y0225898D02*
X0018250Y0225898D01*
X0018250Y0224300D02*
X0027250Y0224300D01*
X0027621Y0222701D02*
X0017879Y0222701D01*
X0016281Y0221103D02*
X0029219Y0221103D01*
X0037879Y0222701D02*
X0052739Y0222701D01*
X0053890Y0221550D02*
X0050200Y0225240D01*
X0050200Y0230460D01*
X0053890Y0234150D01*
X0059110Y0234150D01*
X0062800Y0230460D01*
X0062800Y0225240D01*
X0059110Y0221550D01*
X0053890Y0221550D01*
X0051141Y0224300D02*
X0038250Y0224300D01*
X0038250Y0225898D02*
X0050200Y0225898D01*
X0050200Y0227497D02*
X0038250Y0227497D01*
X0036783Y0229095D02*
X0050200Y0229095D01*
X0050434Y0230694D02*
X0035184Y0230694D01*
X0059369Y0233891D02*
X0118631Y0233891D01*
X0117033Y0232292D02*
X0060967Y0232292D01*
X0062566Y0230694D02*
X0115434Y0230694D01*
X0115200Y0229095D02*
X0062800Y0229095D01*
X0062800Y0227497D02*
X0115200Y0227497D01*
X0115200Y0225898D02*
X0062800Y0225898D01*
X0061859Y0224300D02*
X0116141Y0224300D01*
X0117739Y0222701D02*
X0060261Y0222701D01*
X0027251Y0264262D02*
X0145092Y0264262D01*
X0144087Y0265861D02*
X0028849Y0265861D01*
X0030448Y0267459D02*
X0143700Y0267459D01*
X0143764Y0269058D02*
X0032046Y0269058D01*
X0033645Y0270656D02*
X0144426Y0270656D01*
X0145910Y0272255D02*
X0035243Y0272255D01*
X0036550Y0273853D02*
X0140501Y0273853D01*
X0141805Y0272550D02*
X0146195Y0272550D01*
X0149300Y0275655D01*
X0149300Y0277493D01*
X0150641Y0278834D01*
X0151766Y0279959D01*
X0152375Y0281429D01*
X0152375Y0282552D01*
X0153225Y0282200D01*
X0159775Y0282200D01*
X0161392Y0282870D01*
X0162630Y0284108D01*
X0163300Y0285725D01*
X0163300Y0287475D01*
X0162630Y0289092D01*
X0161392Y0290330D01*
X0159775Y0291000D01*
X0153225Y0291000D01*
X0152511Y0290704D01*
X0154007Y0292200D01*
X0159775Y0292200D01*
X0161392Y0292870D01*
X0162630Y0294108D01*
X0163300Y0295725D01*
X0163300Y0297475D01*
X0162630Y0299092D01*
X0161392Y0300330D01*
X0159775Y0301000D01*
X0153225Y0301000D01*
X0152259Y0300600D01*
X0151954Y0300600D01*
X0150484Y0299991D01*
X0149359Y0298866D01*
X0146350Y0295857D01*
X0146350Y0297654D01*
X0145543Y0299602D01*
X0144052Y0301093D01*
X0142828Y0301600D01*
X0144052Y0302107D01*
X0145543Y0303598D01*
X0146350Y0305546D01*
X0146350Y0307654D01*
X0145543Y0309602D01*
X0145095Y0310050D01*
X0146195Y0310050D01*
X0149300Y0313155D01*
X0149300Y0317545D01*
X0146195Y0320650D01*
X0141805Y0320650D01*
X0138700Y0317545D01*
X0138700Y0313155D01*
X0139955Y0311900D01*
X0133396Y0311900D01*
X0131448Y0311093D01*
X0129957Y0309602D01*
X0129150Y0307654D01*
X0129150Y0305546D01*
X0129957Y0303598D01*
X0131448Y0302107D01*
X0132672Y0301600D01*
X0131448Y0301093D01*
X0129957Y0299602D01*
X0129150Y0297654D01*
X0129150Y0295546D01*
X0129957Y0293598D01*
X0131448Y0292107D01*
X0132672Y0291600D01*
X0131448Y0291093D01*
X0129957Y0289602D01*
X0129150Y0287654D01*
X0129150Y0285546D01*
X0129957Y0283598D01*
X0131448Y0282107D01*
X0133396Y0281300D01*
X0139955Y0281300D01*
X0138700Y0280045D01*
X0138700Y0275655D01*
X0141805Y0272550D01*
X0138903Y0275452D02*
X0036550Y0275452D01*
X0036550Y0277051D02*
X0138700Y0277051D01*
X0138700Y0278649D02*
X0036550Y0278649D01*
X0036550Y0280248D02*
X0138902Y0280248D01*
X0132077Y0281846D02*
X0036550Y0281846D01*
X0036550Y0283445D02*
X0130110Y0283445D01*
X0129358Y0285043D02*
X0036550Y0285043D01*
X0036550Y0286642D02*
X0129150Y0286642D01*
X0129393Y0288240D02*
X0036550Y0288240D01*
X0036550Y0289839D02*
X0130193Y0289839D01*
X0132278Y0291437D02*
X0036550Y0291437D01*
X0035653Y0293036D02*
X0130519Y0293036D01*
X0129528Y0294634D02*
X0034054Y0294634D01*
X0032456Y0296233D02*
X0129150Y0296233D01*
X0129223Y0297831D02*
X0030857Y0297831D01*
X0029259Y0299430D02*
X0129885Y0299430D01*
X0131383Y0301028D02*
X0027660Y0301028D01*
X0005050Y0302627D02*
X0130928Y0302627D01*
X0129697Y0304225D02*
X0005050Y0304225D01*
X0005050Y0305824D02*
X0129150Y0305824D01*
X0129150Y0307422D02*
X0005050Y0307422D01*
X0005050Y0309021D02*
X0129716Y0309021D01*
X0130974Y0310619D02*
X0005050Y0310619D01*
X0005050Y0312218D02*
X0139637Y0312218D01*
X0138700Y0313816D02*
X0005050Y0313816D01*
X0005050Y0315415D02*
X0138700Y0315415D01*
X0138700Y0317013D02*
X0005050Y0317013D01*
X0005050Y0318612D02*
X0139766Y0318612D01*
X0141365Y0320210D02*
X0005050Y0320210D01*
X0005050Y0321809D02*
X0145046Y0321809D01*
X0144507Y0322348D02*
X0145998Y0320857D01*
X0147946Y0320050D01*
X0150054Y0320050D01*
X0152002Y0320857D01*
X0153493Y0322348D01*
X0154300Y0324296D01*
X0154300Y0326404D01*
X0153493Y0328352D01*
X0152002Y0329843D01*
X0150054Y0330650D01*
X0147946Y0330650D01*
X0145998Y0329843D01*
X0144507Y0328352D01*
X0143700Y0326404D01*
X0143700Y0324296D01*
X0144507Y0322348D01*
X0144068Y0323407D02*
X0005050Y0323407D01*
X0005050Y0325006D02*
X0143700Y0325006D01*
X0143783Y0326604D02*
X0005050Y0326604D01*
X0005050Y0328203D02*
X0144445Y0328203D01*
X0145956Y0329801D02*
X0005050Y0329801D01*
X0005050Y0331400D02*
X0285262Y0331400D01*
X0285373Y0331511D02*
X0284839Y0330977D01*
X0284395Y0330366D01*
X0284052Y0329693D01*
X0283818Y0328974D01*
X0283700Y0328228D01*
X0283700Y0328050D01*
X0291300Y0328050D01*
X0291300Y0332650D01*
X0288122Y0332650D01*
X0287376Y0332532D01*
X0286657Y0332298D01*
X0285984Y0331955D01*
X0285373Y0331511D01*
X0285668Y0333611D02*
X0287505Y0332850D01*
X0295495Y0332850D01*
X0297332Y0333611D01*
X0298739Y0335018D01*
X0299500Y0336855D01*
X0299500Y0338845D01*
X0298739Y0340682D01*
X0297332Y0342089D01*
X0295495Y0342850D01*
X0287505Y0342850D01*
X0285668Y0342089D01*
X0284261Y0340682D01*
X0283500Y0338845D01*
X0283500Y0336855D01*
X0284261Y0335018D01*
X0285668Y0333611D01*
X0284682Y0334597D02*
X0005050Y0334597D01*
X0005050Y0336195D02*
X0182279Y0336195D01*
X0183200Y0335275D02*
X0180300Y0338175D01*
X0180300Y0340225D01*
X0185250Y0340225D01*
X0185250Y0340225D01*
X0185250Y0345175D01*
X0187300Y0345175D01*
X0190200Y0342275D01*
X0190200Y0340225D01*
X0185250Y0340225D01*
X0185250Y0340225D01*
X0185250Y0340225D01*
X0185250Y0345175D01*
X0183200Y0345175D01*
X0180300Y0342275D01*
X0180300Y0340225D01*
X0185250Y0340225D01*
X0190200Y0340225D01*
X0190200Y0338175D01*
X0187300Y0335275D01*
X0185250Y0335275D01*
X0185250Y0340225D01*
X0185250Y0340225D01*
X0185250Y0335275D01*
X0183200Y0335275D01*
X0185250Y0336195D02*
X0185250Y0336195D01*
X0185250Y0337794D02*
X0185250Y0337794D01*
X0185250Y0339392D02*
X0185250Y0339392D01*
X0185250Y0340991D02*
X0185250Y0340991D01*
X0185250Y0342589D02*
X0185250Y0342589D01*
X0185250Y0344188D02*
X0185250Y0344188D01*
X0188287Y0344188D02*
X0288634Y0344188D01*
X0289222Y0343600D02*
X0293778Y0343600D01*
X0297000Y0346822D01*
X0297000Y0351378D01*
X0293778Y0354600D01*
X0289222Y0354600D01*
X0286000Y0351378D01*
X0286000Y0346822D01*
X0289222Y0343600D01*
X0286877Y0342589D02*
X0189886Y0342589D01*
X0190200Y0340991D02*
X0284570Y0340991D01*
X0283727Y0339392D02*
X0190200Y0339392D01*
X0189819Y0337794D02*
X0283500Y0337794D01*
X0283773Y0336195D02*
X0188221Y0336195D01*
X0180681Y0337794D02*
X0005050Y0337794D01*
X0005050Y0339392D02*
X0180300Y0339392D01*
X0180300Y0340991D02*
X0005050Y0340991D01*
X0005050Y0342589D02*
X0180614Y0342589D01*
X0182213Y0344188D02*
X0005050Y0344188D01*
X0005050Y0345787D02*
X0287035Y0345787D01*
X0286000Y0347385D02*
X0005050Y0347385D01*
X0005050Y0348984D02*
X0286000Y0348984D01*
X0286000Y0350582D02*
X0188890Y0350582D01*
X0188167Y0349859D02*
X0189616Y0351308D01*
X0190400Y0353201D01*
X0190400Y0355249D01*
X0189616Y0357142D01*
X0188167Y0358591D01*
X0186274Y0359375D01*
X0184226Y0359375D01*
X0182333Y0358591D01*
X0180884Y0357142D01*
X0180100Y0355249D01*
X0180100Y0353201D01*
X0180884Y0351308D01*
X0182333Y0349859D01*
X0184226Y0349075D01*
X0186274Y0349075D01*
X0188167Y0349859D01*
X0189977Y0352181D02*
X0286802Y0352181D01*
X0288401Y0353779D02*
X0190400Y0353779D01*
X0190347Y0355378D02*
X0288694Y0355378D01*
X0289222Y0354850D02*
X0293778Y0354850D01*
X0297000Y0358072D01*
X0297000Y0362628D01*
X0293778Y0365850D01*
X0289222Y0365850D01*
X0286000Y0362628D01*
X0286000Y0358072D01*
X0289222Y0354850D01*
X0287096Y0356976D02*
X0189685Y0356976D01*
X0188184Y0358575D02*
X0286000Y0358575D01*
X0286000Y0360173D02*
X0127800Y0360173D01*
X0127800Y0361710D02*
X0124110Y0365400D01*
X0118890Y0365400D01*
X0115200Y0361710D01*
X0115200Y0356490D01*
X0118890Y0352800D01*
X0124110Y0352800D01*
X0127800Y0356490D01*
X0127800Y0361710D01*
X0127738Y0361772D02*
X0286000Y0361772D01*
X0286742Y0363370D02*
X0126139Y0363370D01*
X0124541Y0364969D02*
X0288340Y0364969D01*
X0294660Y0364969D02*
X0308623Y0364969D01*
X0309305Y0365650D02*
X0306200Y0362545D01*
X0306200Y0360350D01*
X0311500Y0360350D01*
X0316800Y0360350D01*
X0316800Y0362545D01*
X0313695Y0365650D01*
X0311500Y0365650D01*
X0311500Y0360350D01*
X0311500Y0360350D01*
X0311500Y0360350D01*
X0316800Y0360350D01*
X0316800Y0358155D01*
X0313695Y0355050D01*
X0311500Y0355050D01*
X0311500Y0360350D01*
X0311500Y0360350D01*
X0311500Y0360350D01*
X0311500Y0365650D01*
X0309305Y0365650D01*
X0311500Y0364969D02*
X0311500Y0364969D01*
X0311500Y0363370D02*
X0311500Y0363370D01*
X0311500Y0361772D02*
X0311500Y0361772D01*
X0311500Y0360350D02*
X0306200Y0360350D01*
X0306200Y0358155D01*
X0309305Y0355050D01*
X0311500Y0355050D01*
X0311500Y0360350D01*
X0311500Y0360173D02*
X0311500Y0360173D01*
X0311500Y0358575D02*
X0311500Y0358575D01*
X0311500Y0356976D02*
X0311500Y0356976D01*
X0311500Y0355378D02*
X0311500Y0355378D01*
X0311500Y0354400D02*
X0313695Y0354400D01*
X0316800Y0351295D01*
X0316800Y0349100D01*
X0311500Y0349100D01*
X0311500Y0349100D01*
X0311500Y0349100D01*
X0311500Y0354400D01*
X0309305Y0354400D01*
X0306200Y0351295D01*
X0306200Y0349100D01*
X0311500Y0349100D01*
X0316800Y0349100D01*
X0316800Y0346905D01*
X0313695Y0343800D01*
X0311500Y0343800D01*
X0311500Y0349100D01*
X0311500Y0349100D01*
X0311500Y0349100D01*
X0311500Y0354400D01*
X0311500Y0353779D02*
X0311500Y0353779D01*
X0311500Y0352181D02*
X0311500Y0352181D01*
X0311500Y0350582D02*
X0311500Y0350582D01*
X0311500Y0349100D02*
X0306200Y0349100D01*
X0306200Y0346905D01*
X0309305Y0343800D01*
X0311500Y0343800D01*
X0311500Y0349100D01*
X0311500Y0348984D02*
X0311500Y0348984D01*
X0311500Y0347385D02*
X0311500Y0347385D01*
X0311500Y0345787D02*
X0311500Y0345787D01*
X0311500Y0344188D02*
X0311500Y0344188D01*
X0314083Y0344188D02*
X0318700Y0344188D01*
X0318700Y0343155D02*
X0321805Y0340050D01*
X0326195Y0340050D01*
X0329300Y0343155D01*
X0329300Y0347545D01*
X0326195Y0350650D01*
X0321805Y0350650D01*
X0318700Y0347545D01*
X0318700Y0343155D01*
X0319265Y0342589D02*
X0296123Y0342589D01*
X0294366Y0344188D02*
X0308917Y0344188D01*
X0307318Y0345787D02*
X0295965Y0345787D01*
X0297000Y0347385D02*
X0306200Y0347385D01*
X0306200Y0348984D02*
X0297000Y0348984D01*
X0297000Y0350582D02*
X0306200Y0350582D01*
X0307085Y0352181D02*
X0296198Y0352181D01*
X0294599Y0353779D02*
X0308684Y0353779D01*
X0308977Y0355378D02*
X0294306Y0355378D01*
X0295904Y0356976D02*
X0307379Y0356976D01*
X0306200Y0358575D02*
X0297000Y0358575D01*
X0297000Y0360173D02*
X0306200Y0360173D01*
X0306200Y0361772D02*
X0297000Y0361772D01*
X0296258Y0363370D02*
X0307025Y0363370D01*
X0314377Y0364969D02*
X0390401Y0364969D01*
X0390401Y0366567D02*
X0005050Y0366567D01*
X0005050Y0364969D02*
X0053742Y0364969D01*
X0053973Y0365200D02*
X0050400Y0361627D01*
X0050400Y0359300D01*
X0056300Y0359300D01*
X0056300Y0365200D01*
X0053973Y0365200D01*
X0056300Y0364969D02*
X0056700Y0364969D01*
X0056700Y0365200D02*
X0059027Y0365200D01*
X0062600Y0361627D01*
X0062600Y0359300D01*
X0056700Y0359300D01*
X0056700Y0358900D01*
X0062600Y0358900D01*
X0062600Y0356573D01*
X0059027Y0353000D01*
X0056700Y0353000D01*
X0056700Y0358900D01*
X0056300Y0358900D01*
X0056300Y0353000D01*
X0053973Y0353000D01*
X0050400Y0356573D01*
X0050400Y0358900D01*
X0056300Y0358900D01*
X0056300Y0359300D01*
X0056700Y0359300D01*
X0056700Y0365200D01*
X0056700Y0363370D02*
X0056300Y0363370D01*
X0056300Y0361772D02*
X0056700Y0361772D01*
X0056700Y0360173D02*
X0056300Y0360173D01*
X0056300Y0358575D02*
X0056700Y0358575D01*
X0056700Y0356976D02*
X0056300Y0356976D01*
X0056300Y0355378D02*
X0056700Y0355378D01*
X0056700Y0353779D02*
X0056300Y0353779D01*
X0053194Y0353779D02*
X0005050Y0353779D01*
X0005050Y0352181D02*
X0180523Y0352181D01*
X0180100Y0353779D02*
X0125089Y0353779D01*
X0126687Y0355378D02*
X0180153Y0355378D01*
X0180815Y0356976D02*
X0127800Y0356976D01*
X0127800Y0358575D02*
X0182316Y0358575D01*
X0181610Y0350582D02*
X0005050Y0350582D01*
X0005050Y0355378D02*
X0051596Y0355378D01*
X0050400Y0356976D02*
X0005050Y0356976D01*
X0005050Y0358575D02*
X0050400Y0358575D01*
X0050400Y0360173D02*
X0005050Y0360173D01*
X0005050Y0361772D02*
X0050545Y0361772D01*
X0052143Y0363370D02*
X0005050Y0363370D01*
X0005050Y0368166D02*
X0390401Y0368166D01*
X0390401Y0369764D02*
X0005050Y0369764D01*
X0005050Y0332998D02*
X0287147Y0332998D01*
X0284107Y0329801D02*
X0182977Y0329801D01*
X0182628Y0330150D02*
X0175372Y0330150D01*
X0174200Y0328978D01*
X0174200Y0321722D01*
X0175372Y0320550D01*
X0181705Y0320550D01*
X0178700Y0317545D01*
X0178700Y0313155D01*
X0181805Y0310050D01*
X0186195Y0310050D01*
X0189300Y0313155D01*
X0189300Y0317545D01*
X0186195Y0320650D01*
X0182728Y0320650D01*
X0183800Y0321722D01*
X0183800Y0328978D01*
X0182628Y0330150D01*
X0183800Y0328203D02*
X0283700Y0328203D01*
X0283700Y0327650D02*
X0283700Y0327472D01*
X0283818Y0326726D01*
X0284052Y0326007D01*
X0284395Y0325334D01*
X0284839Y0324723D01*
X0285373Y0324189D01*
X0285984Y0323745D01*
X0286657Y0323402D01*
X0287376Y0323168D01*
X0288122Y0323050D01*
X0291300Y0323050D01*
X0291300Y0327650D01*
X0291700Y0327650D01*
X0291700Y0328050D01*
X0291300Y0328050D01*
X0291300Y0327650D01*
X0283700Y0327650D01*
X0283858Y0326604D02*
X0183800Y0326604D01*
X0183800Y0325006D02*
X0284633Y0325006D01*
X0286646Y0323407D02*
X0183800Y0323407D01*
X0183800Y0321809D02*
X0285388Y0321809D01*
X0285668Y0322089D02*
X0284261Y0320682D01*
X0283500Y0318845D01*
X0283500Y0316855D01*
X0284261Y0315018D01*
X0285668Y0313611D01*
X0287505Y0312850D01*
X0295495Y0312850D01*
X0297332Y0313611D01*
X0298739Y0315018D01*
X0299500Y0316855D01*
X0299500Y0318845D01*
X0298739Y0320682D01*
X0297332Y0322089D01*
X0295495Y0322850D01*
X0287505Y0322850D01*
X0285668Y0322089D01*
X0284066Y0320210D02*
X0186635Y0320210D01*
X0188234Y0318612D02*
X0283500Y0318612D01*
X0283500Y0317013D02*
X0189300Y0317013D01*
X0189300Y0315415D02*
X0284097Y0315415D01*
X0285463Y0313816D02*
X0189300Y0313816D01*
X0188363Y0312218D02*
X0390401Y0312218D01*
X0390401Y0313816D02*
X0297537Y0313816D01*
X0298903Y0315415D02*
X0390401Y0315415D01*
X0390401Y0317013D02*
X0299500Y0317013D01*
X0299500Y0318612D02*
X0390401Y0318612D01*
X0390401Y0320210D02*
X0298934Y0320210D01*
X0297612Y0321809D02*
X0390401Y0321809D01*
X0390401Y0323407D02*
X0296354Y0323407D01*
X0296343Y0323402D02*
X0297016Y0323745D01*
X0297627Y0324189D01*
X0298161Y0324723D01*
X0298605Y0325334D01*
X0298948Y0326007D01*
X0299182Y0326726D01*
X0299300Y0327472D01*
X0299300Y0327650D01*
X0291700Y0327650D01*
X0291700Y0323050D01*
X0294878Y0323050D01*
X0295624Y0323168D01*
X0296343Y0323402D01*
X0298367Y0325006D02*
X0343023Y0325006D01*
X0343668Y0324361D02*
X0345505Y0323600D01*
X0347495Y0323600D01*
X0349332Y0324361D01*
X0350739Y0325768D01*
X0351500Y0327605D01*
X0351500Y0335595D01*
X0350739Y0337432D01*
X0349332Y0338839D01*
X0347495Y0339600D01*
X0345505Y0339600D01*
X0343668Y0338839D01*
X0342261Y0337432D01*
X0341500Y0335595D01*
X0341500Y0327605D01*
X0342261Y0325768D01*
X0343668Y0324361D01*
X0341915Y0326604D02*
X0299142Y0326604D01*
X0299300Y0328050D02*
X0299300Y0328228D01*
X0299182Y0328974D01*
X0298948Y0329693D01*
X0298605Y0330366D01*
X0298161Y0330977D01*
X0297627Y0331511D01*
X0297016Y0331955D01*
X0296343Y0332298D01*
X0295624Y0332532D01*
X0294878Y0332650D01*
X0291700Y0332650D01*
X0291700Y0328050D01*
X0299300Y0328050D01*
X0299300Y0328203D02*
X0341500Y0328203D01*
X0341500Y0329801D02*
X0298893Y0329801D01*
X0297738Y0331400D02*
X0341500Y0331400D01*
X0341500Y0332998D02*
X0295853Y0332998D01*
X0298318Y0334597D02*
X0341500Y0334597D01*
X0341749Y0336195D02*
X0299227Y0336195D01*
X0299500Y0337794D02*
X0342623Y0337794D01*
X0345004Y0339392D02*
X0299273Y0339392D01*
X0298430Y0340991D02*
X0320864Y0340991D01*
X0318700Y0345787D02*
X0315682Y0345787D01*
X0316800Y0347385D02*
X0318700Y0347385D01*
X0320138Y0348984D02*
X0316800Y0348984D01*
X0316800Y0350582D02*
X0321737Y0350582D01*
X0326263Y0350582D02*
X0331500Y0350582D01*
X0331500Y0348984D02*
X0327862Y0348984D01*
X0329300Y0347385D02*
X0331591Y0347385D01*
X0331500Y0347605D02*
X0332261Y0345768D01*
X0333668Y0344361D01*
X0335505Y0343600D01*
X0337495Y0343600D01*
X0339332Y0344361D01*
X0340739Y0345768D01*
X0341500Y0347605D01*
X0341500Y0355595D01*
X0340739Y0357432D01*
X0339332Y0358839D01*
X0337495Y0359600D01*
X0335505Y0359600D01*
X0333668Y0358839D01*
X0332261Y0357432D01*
X0331500Y0355595D01*
X0331500Y0347605D01*
X0332253Y0345787D02*
X0329300Y0345787D01*
X0329300Y0344188D02*
X0334086Y0344188D01*
X0338914Y0344188D02*
X0354950Y0344188D01*
X0354950Y0343155D02*
X0358055Y0340050D01*
X0362445Y0340050D01*
X0365550Y0343155D01*
X0365550Y0347545D01*
X0362445Y0350650D01*
X0358055Y0350650D01*
X0354950Y0347545D01*
X0354950Y0343155D01*
X0355515Y0342589D02*
X0328735Y0342589D01*
X0327136Y0340991D02*
X0357114Y0340991D01*
X0354950Y0345787D02*
X0340747Y0345787D01*
X0341409Y0347385D02*
X0354950Y0347385D01*
X0356388Y0348984D02*
X0341500Y0348984D01*
X0341500Y0350582D02*
X0357987Y0350582D01*
X0362513Y0350582D02*
X0390401Y0350582D01*
X0390401Y0348984D02*
X0364112Y0348984D01*
X0365550Y0347385D02*
X0390401Y0347385D01*
X0390401Y0345787D02*
X0365550Y0345787D01*
X0365550Y0344188D02*
X0390401Y0344188D01*
X0390401Y0342589D02*
X0364985Y0342589D01*
X0363386Y0340991D02*
X0390401Y0340991D01*
X0390401Y0339392D02*
X0347996Y0339392D01*
X0350377Y0337794D02*
X0390401Y0337794D01*
X0390401Y0336195D02*
X0351251Y0336195D01*
X0351500Y0334597D02*
X0390401Y0334597D01*
X0390401Y0332998D02*
X0351500Y0332998D01*
X0351500Y0331400D02*
X0390401Y0331400D01*
X0390401Y0329801D02*
X0351500Y0329801D01*
X0351500Y0328203D02*
X0390401Y0328203D01*
X0390401Y0326604D02*
X0351085Y0326604D01*
X0349977Y0325006D02*
X0390401Y0325006D01*
X0390401Y0310619D02*
X0362476Y0310619D01*
X0362445Y0310650D02*
X0358055Y0310650D01*
X0354950Y0307545D01*
X0354950Y0303155D01*
X0358055Y0300050D01*
X0362445Y0300050D01*
X0365550Y0303155D01*
X0365550Y0307545D01*
X0362445Y0310650D01*
X0364075Y0309021D02*
X0390401Y0309021D01*
X0390401Y0307422D02*
X0365550Y0307422D01*
X0365550Y0305824D02*
X0390401Y0305824D01*
X0390401Y0304225D02*
X0365550Y0304225D01*
X0365022Y0302627D02*
X0390401Y0302627D01*
X0390401Y0301028D02*
X0363424Y0301028D01*
X0357076Y0301028D02*
X0341500Y0301028D01*
X0341500Y0299430D02*
X0390401Y0299430D01*
X0390401Y0297831D02*
X0341500Y0297831D01*
X0341500Y0297605D02*
X0340739Y0295768D01*
X0339332Y0294361D01*
X0337495Y0293600D01*
X0335505Y0293600D01*
X0333668Y0294361D01*
X0332261Y0295768D01*
X0331500Y0297605D01*
X0331500Y0305595D01*
X0332261Y0307432D01*
X0333668Y0308839D01*
X0335505Y0309600D01*
X0337495Y0309600D01*
X0339332Y0308839D01*
X0340739Y0307432D01*
X0341500Y0305595D01*
X0341500Y0297605D01*
X0340931Y0296233D02*
X0390401Y0296233D01*
X0390401Y0294634D02*
X0339605Y0294634D01*
X0333395Y0294634D02*
X0316800Y0294634D01*
X0316800Y0295350D02*
X0311500Y0295350D01*
X0316800Y0295350D01*
X0316800Y0297545D01*
X0313695Y0300650D01*
X0311500Y0300650D01*
X0311500Y0295350D01*
X0311500Y0295350D01*
X0311500Y0295350D01*
X0311500Y0290050D01*
X0313695Y0290050D01*
X0316800Y0293155D01*
X0316800Y0295350D01*
X0316800Y0296233D02*
X0332069Y0296233D01*
X0331500Y0297831D02*
X0316514Y0297831D01*
X0314916Y0299430D02*
X0331500Y0299430D01*
X0331500Y0301028D02*
X0327174Y0301028D01*
X0326195Y0300050D02*
X0329300Y0303155D01*
X0329300Y0307545D01*
X0326195Y0310650D01*
X0321805Y0310650D01*
X0318700Y0307545D01*
X0318700Y0303155D01*
X0321805Y0300050D01*
X0326195Y0300050D01*
X0328772Y0302627D02*
X0331500Y0302627D01*
X0331500Y0304225D02*
X0329300Y0304225D01*
X0329300Y0305824D02*
X0331595Y0305824D01*
X0332257Y0307422D02*
X0329300Y0307422D01*
X0327825Y0309021D02*
X0334107Y0309021D01*
X0338893Y0309021D02*
X0356425Y0309021D01*
X0354950Y0307422D02*
X0340743Y0307422D01*
X0341405Y0305824D02*
X0354950Y0305824D01*
X0354950Y0304225D02*
X0341500Y0304225D01*
X0341500Y0302627D02*
X0355478Y0302627D01*
X0358024Y0310619D02*
X0326226Y0310619D01*
X0321774Y0310619D02*
X0314976Y0310619D01*
X0313695Y0311900D02*
X0311500Y0311900D01*
X0311500Y0306600D01*
X0316800Y0306600D01*
X0316800Y0308795D01*
X0313695Y0311900D01*
X0311500Y0311900D02*
X0309305Y0311900D01*
X0306200Y0308795D01*
X0306200Y0306600D01*
X0311500Y0306600D01*
X0311500Y0306600D01*
X0311500Y0306600D01*
X0316800Y0306600D01*
X0316800Y0304405D01*
X0313695Y0301300D01*
X0311500Y0301300D01*
X0311500Y0306600D01*
X0311500Y0306600D01*
X0311500Y0306600D01*
X0311500Y0311900D01*
X0311500Y0310619D02*
X0311500Y0310619D01*
X0311500Y0309021D02*
X0311500Y0309021D01*
X0311500Y0307422D02*
X0311500Y0307422D01*
X0311500Y0306600D02*
X0306200Y0306600D01*
X0306200Y0304405D01*
X0309305Y0301300D01*
X0311500Y0301300D01*
X0311500Y0306600D01*
X0311500Y0305824D02*
X0311500Y0305824D01*
X0311500Y0304225D02*
X0311500Y0304225D01*
X0311500Y0302627D02*
X0311500Y0302627D01*
X0311500Y0300650D02*
X0309305Y0300650D01*
X0306200Y0297545D01*
X0306200Y0295350D01*
X0311500Y0295350D01*
X0311500Y0295350D01*
X0311500Y0295350D01*
X0311500Y0300650D01*
X0311500Y0299430D02*
X0311500Y0299430D01*
X0311500Y0297831D02*
X0311500Y0297831D01*
X0311500Y0296233D02*
X0311500Y0296233D01*
X0311500Y0295350D02*
X0306200Y0295350D01*
X0306200Y0293155D01*
X0309305Y0290050D01*
X0311500Y0290050D01*
X0311500Y0295350D01*
X0311500Y0294634D02*
X0311500Y0294634D01*
X0311500Y0293036D02*
X0311500Y0293036D01*
X0311500Y0291437D02*
X0311500Y0291437D01*
X0315082Y0291437D02*
X0390401Y0291437D01*
X0390401Y0289839D02*
X0278964Y0289839D01*
X0278535Y0290267D02*
X0276404Y0291150D01*
X0274096Y0291150D01*
X0271965Y0290267D01*
X0270333Y0288635D01*
X0269450Y0286504D01*
X0269450Y0284196D01*
X0270333Y0282065D01*
X0271965Y0280433D01*
X0274096Y0279550D01*
X0276404Y0279550D01*
X0278535Y0280433D01*
X0280167Y0282065D01*
X0281050Y0284196D01*
X0281050Y0286504D01*
X0280167Y0288635D01*
X0278535Y0290267D01*
X0280331Y0288240D02*
X0390401Y0288240D01*
X0390401Y0286642D02*
X0280993Y0286642D01*
X0281050Y0285043D02*
X0390401Y0285043D01*
X0390401Y0283445D02*
X0349368Y0283445D01*
X0348612Y0284200D02*
X0346500Y0284200D01*
X0346500Y0279100D01*
X0351600Y0279100D01*
X0351600Y0281212D01*
X0348612Y0284200D01*
X0346500Y0284200D02*
X0346500Y0279100D01*
X0346500Y0279100D01*
X0346500Y0279100D01*
X0351600Y0279100D01*
X0351600Y0276988D01*
X0348612Y0274000D01*
X0346500Y0274000D01*
X0346500Y0279100D01*
X0346500Y0279100D01*
X0346500Y0274000D01*
X0344388Y0274000D01*
X0341641Y0276746D01*
X0338695Y0273800D01*
X0334305Y0273800D01*
X0331200Y0276905D01*
X0331200Y0281295D01*
X0334305Y0284400D01*
X0338695Y0284400D01*
X0341641Y0281454D01*
X0344388Y0284200D01*
X0346500Y0284200D01*
X0346500Y0283445D02*
X0346500Y0283445D01*
X0346500Y0281846D02*
X0346500Y0281846D01*
X0346500Y0280248D02*
X0346500Y0280248D01*
X0346500Y0278649D02*
X0346500Y0278649D01*
X0346500Y0277051D02*
X0346500Y0277051D01*
X0346500Y0275452D02*
X0346500Y0275452D01*
X0350064Y0275452D02*
X0390401Y0275452D01*
X0390401Y0277051D02*
X0351600Y0277051D01*
X0351600Y0278649D02*
X0390401Y0278649D01*
X0390401Y0280248D02*
X0351600Y0280248D01*
X0350966Y0281846D02*
X0390401Y0281846D01*
X0390401Y0273853D02*
X0338749Y0273853D01*
X0340347Y0275452D02*
X0342936Y0275452D01*
X0346900Y0269755D02*
X0346900Y0267850D01*
X0351500Y0267850D01*
X0356100Y0267850D01*
X0356100Y0269755D01*
X0353405Y0272450D01*
X0351500Y0272450D01*
X0351500Y0267850D01*
X0351500Y0267850D01*
X0351500Y0267850D01*
X0356100Y0267850D01*
X0356100Y0265945D01*
X0353405Y0263250D01*
X0351500Y0263250D01*
X0351500Y0267850D01*
X0351500Y0267850D01*
X0351500Y0267850D01*
X0351500Y0272450D01*
X0349595Y0272450D01*
X0346900Y0269755D01*
X0346900Y0269058D02*
X0336300Y0269058D01*
X0336300Y0269838D02*
X0333488Y0272650D01*
X0329512Y0272650D01*
X0326700Y0269838D01*
X0326700Y0265862D01*
X0329512Y0263050D01*
X0333488Y0263050D01*
X0336300Y0265862D01*
X0336300Y0269838D01*
X0335482Y0270656D02*
X0347801Y0270656D01*
X0349400Y0272255D02*
X0333883Y0272255D01*
X0334251Y0273853D02*
X0310550Y0273853D01*
X0310550Y0273155D02*
X0307445Y0270050D01*
X0303055Y0270050D01*
X0299950Y0273155D01*
X0299950Y0277545D01*
X0303055Y0280650D01*
X0307445Y0280650D01*
X0310550Y0277545D01*
X0310550Y0273155D01*
X0309650Y0272255D02*
X0329117Y0272255D01*
X0327518Y0270656D02*
X0308052Y0270656D01*
X0307445Y0266900D02*
X0303055Y0266900D01*
X0299950Y0263795D01*
X0299950Y0259405D01*
X0303055Y0256300D01*
X0307445Y0256300D01*
X0310550Y0259405D01*
X0310550Y0263795D01*
X0307445Y0266900D01*
X0308484Y0265861D02*
X0326701Y0265861D01*
X0326700Y0267459D02*
X0183800Y0267459D01*
X0183800Y0265861D02*
X0201683Y0265861D01*
X0197000Y0261065D02*
X0190780Y0261065D01*
X0192378Y0259467D02*
X0197000Y0259467D01*
X0195862Y0257868D02*
X0193050Y0257868D01*
X0193050Y0256270D02*
X0194263Y0256270D01*
X0191250Y0251474D02*
X0190120Y0251474D01*
X0199250Y0249876D02*
X0247100Y0249876D01*
X0247100Y0249875D02*
X0247770Y0251492D01*
X0249008Y0252730D01*
X0250625Y0253400D01*
X0252375Y0253400D01*
X0253992Y0252730D01*
X0255230Y0251492D01*
X0255900Y0249875D01*
X0255900Y0243325D01*
X0255230Y0241708D01*
X0253992Y0240470D01*
X0252375Y0239800D01*
X0250625Y0239800D01*
X0249008Y0240470D01*
X0247770Y0241708D01*
X0247100Y0243325D01*
X0247100Y0249875D01*
X0247100Y0248277D02*
X0199250Y0248277D01*
X0199250Y0246679D02*
X0247100Y0246679D01*
X0247100Y0245080D02*
X0199250Y0245080D01*
X0199250Y0243482D02*
X0247100Y0243482D01*
X0247697Y0241883D02*
X0199250Y0241883D01*
X0199250Y0240285D02*
X0249454Y0240285D01*
X0253546Y0240285D02*
X0259454Y0240285D01*
X0259008Y0240470D02*
X0260625Y0239800D01*
X0262375Y0239800D01*
X0263992Y0240470D01*
X0265230Y0241708D01*
X0265900Y0243325D01*
X0265900Y0249875D01*
X0265230Y0251492D01*
X0263992Y0252730D01*
X0262375Y0253400D01*
X0260625Y0253400D01*
X0259008Y0252730D01*
X0257770Y0251492D01*
X0257100Y0249875D01*
X0257100Y0243325D01*
X0257770Y0241708D01*
X0259008Y0240470D01*
X0257697Y0241883D02*
X0255303Y0241883D01*
X0255900Y0243482D02*
X0257100Y0243482D01*
X0257100Y0245080D02*
X0255900Y0245080D01*
X0255900Y0246679D02*
X0257100Y0246679D01*
X0257100Y0248277D02*
X0255900Y0248277D01*
X0255900Y0249876D02*
X0257100Y0249876D01*
X0257762Y0251474D02*
X0255238Y0251474D01*
X0253165Y0253073D02*
X0259835Y0253073D01*
X0263165Y0253073D02*
X0269835Y0253073D01*
X0270625Y0253400D02*
X0269008Y0252730D01*
X0267770Y0251492D01*
X0267100Y0249875D01*
X0267100Y0243325D01*
X0267770Y0241708D01*
X0269008Y0240470D01*
X0270625Y0239800D01*
X0272375Y0239800D01*
X0273992Y0240470D01*
X0275230Y0241708D01*
X0275855Y0243217D01*
X0277972Y0241100D01*
X0282528Y0241100D01*
X0285750Y0244322D01*
X0285750Y0248878D01*
X0282528Y0252100D01*
X0277972Y0252100D01*
X0275855Y0249983D01*
X0275230Y0251492D01*
X0273992Y0252730D01*
X0272375Y0253400D01*
X0270625Y0253400D01*
X0273165Y0253073D02*
X0390401Y0253073D01*
X0390401Y0254671D02*
X0246100Y0254671D01*
X0247000Y0255572D02*
X0243778Y0252350D01*
X0239222Y0252350D01*
X0236000Y0255572D01*
X0236000Y0260128D01*
X0239222Y0263350D01*
X0243778Y0263350D01*
X0247000Y0260128D01*
X0247000Y0255572D01*
X0247000Y0256270D02*
X0390401Y0256270D01*
X0390401Y0257868D02*
X0309014Y0257868D01*
X0310550Y0259467D02*
X0390401Y0259467D01*
X0390401Y0261065D02*
X0310550Y0261065D01*
X0310550Y0262664D02*
X0390401Y0262664D01*
X0390401Y0264262D02*
X0354418Y0264262D01*
X0356016Y0265861D02*
X0390401Y0265861D01*
X0390401Y0267459D02*
X0356100Y0267459D01*
X0356100Y0269058D02*
X0390401Y0269058D01*
X0390401Y0270656D02*
X0355199Y0270656D01*
X0353600Y0272255D02*
X0390401Y0272255D01*
X0390401Y0293036D02*
X0316681Y0293036D01*
X0307918Y0291437D02*
X0295365Y0291437D01*
X0293778Y0289850D02*
X0297000Y0293072D01*
X0297000Y0297628D01*
X0293778Y0300850D01*
X0289222Y0300850D01*
X0286000Y0297628D01*
X0286000Y0293072D01*
X0289222Y0289850D01*
X0293778Y0289850D01*
X0296964Y0293036D02*
X0306319Y0293036D01*
X0306200Y0294634D02*
X0297000Y0294634D01*
X0297000Y0296233D02*
X0306200Y0296233D01*
X0306486Y0297831D02*
X0296797Y0297831D01*
X0295198Y0299430D02*
X0308084Y0299430D01*
X0307978Y0302627D02*
X0295305Y0302627D01*
X0293778Y0301100D02*
X0297000Y0304322D01*
X0297000Y0308878D01*
X0293778Y0312100D01*
X0289222Y0312100D01*
X0286000Y0308878D01*
X0286000Y0304322D01*
X0289222Y0301100D01*
X0293778Y0301100D01*
X0296903Y0304225D02*
X0306379Y0304225D01*
X0306200Y0305824D02*
X0297000Y0305824D01*
X0297000Y0307422D02*
X0306200Y0307422D01*
X0306425Y0309021D02*
X0296857Y0309021D01*
X0295259Y0310619D02*
X0308024Y0310619D01*
X0316575Y0309021D02*
X0320175Y0309021D01*
X0318700Y0307422D02*
X0316800Y0307422D01*
X0316800Y0305824D02*
X0318700Y0305824D01*
X0318700Y0304225D02*
X0316621Y0304225D01*
X0315022Y0302627D02*
X0319228Y0302627D01*
X0320826Y0301028D02*
X0198600Y0301028D01*
X0197528Y0302100D02*
X0192972Y0302100D01*
X0191472Y0300600D01*
X0175741Y0300600D01*
X0174775Y0301000D01*
X0168225Y0301000D01*
X0166608Y0300330D01*
X0165370Y0299092D01*
X0164700Y0297475D01*
X0164700Y0295725D01*
X0165370Y0294108D01*
X0166608Y0292870D01*
X0168225Y0292200D01*
X0174775Y0292200D01*
X0175741Y0292600D01*
X0191472Y0292600D01*
X0192972Y0291100D01*
X0197528Y0291100D01*
X0200750Y0294322D01*
X0200750Y0298878D01*
X0197528Y0302100D01*
X0200198Y0299430D02*
X0287802Y0299430D01*
X0286203Y0297831D02*
X0200750Y0297831D01*
X0200750Y0296233D02*
X0286000Y0296233D01*
X0286000Y0294634D02*
X0200750Y0294634D01*
X0199464Y0293036D02*
X0286036Y0293036D01*
X0287635Y0291437D02*
X0197865Y0291437D01*
X0192635Y0291437D02*
X0153244Y0291437D01*
X0148324Y0297831D02*
X0146277Y0297831D01*
X0146350Y0296233D02*
X0146726Y0296233D01*
X0145615Y0299430D02*
X0149923Y0299430D01*
X0151608Y0302870D02*
X0153225Y0302200D01*
X0159775Y0302200D01*
X0161392Y0302870D01*
X0162630Y0304108D01*
X0163300Y0305725D01*
X0163300Y0307475D01*
X0162630Y0309092D01*
X0161392Y0310330D01*
X0159775Y0311000D01*
X0153225Y0311000D01*
X0151608Y0310330D01*
X0150370Y0309092D01*
X0149700Y0307475D01*
X0149700Y0305725D01*
X0150370Y0304108D01*
X0151608Y0302870D01*
X0152195Y0302627D02*
X0144572Y0302627D01*
X0144117Y0301028D02*
X0191900Y0301028D01*
X0186765Y0310619D02*
X0287741Y0310619D01*
X0286143Y0309021D02*
X0177333Y0309021D01*
X0177492Y0308801D02*
X0177104Y0309336D01*
X0176636Y0309804D01*
X0176101Y0310192D01*
X0175512Y0310492D01*
X0174884Y0310697D01*
X0174231Y0310800D01*
X0171500Y0310800D01*
X0171500Y0306600D01*
X0171500Y0306600D01*
X0178100Y0306600D01*
X0178100Y0306931D01*
X0177997Y0307584D01*
X0177792Y0308212D01*
X0177492Y0308801D01*
X0178022Y0307422D02*
X0286000Y0307422D01*
X0286000Y0305824D02*
X0178029Y0305824D01*
X0177997Y0305616D02*
X0178100Y0306269D01*
X0178100Y0306600D01*
X0171500Y0306600D01*
X0171500Y0306600D01*
X0171500Y0302400D01*
X0174231Y0302400D01*
X0174884Y0302503D01*
X0175512Y0302708D01*
X0176101Y0303008D01*
X0176636Y0303396D01*
X0177104Y0303864D01*
X0177492Y0304399D01*
X0177792Y0304988D01*
X0177997Y0305616D01*
X0177366Y0304225D02*
X0286097Y0304225D01*
X0287695Y0302627D02*
X0175263Y0302627D01*
X0171500Y0302627D02*
X0171500Y0302627D01*
X0171500Y0302400D02*
X0171500Y0306600D01*
X0171500Y0306600D01*
X0171500Y0306600D01*
X0164900Y0306600D01*
X0164900Y0306931D01*
X0165003Y0307584D01*
X0165208Y0308212D01*
X0165508Y0308801D01*
X0165896Y0309336D01*
X0166364Y0309804D01*
X0166899Y0310192D01*
X0167488Y0310492D01*
X0168116Y0310697D01*
X0168769Y0310800D01*
X0171500Y0310800D01*
X0171500Y0306600D01*
X0164900Y0306600D01*
X0164900Y0306269D01*
X0165003Y0305616D01*
X0165208Y0304988D01*
X0165508Y0304399D01*
X0165896Y0303864D01*
X0166364Y0303396D01*
X0166899Y0303008D01*
X0167488Y0302708D01*
X0168116Y0302503D01*
X0168769Y0302400D01*
X0171500Y0302400D01*
X0171500Y0304225D02*
X0171500Y0304225D01*
X0171500Y0305824D02*
X0171500Y0305824D01*
X0171500Y0307422D02*
X0171500Y0307422D01*
X0171500Y0309021D02*
X0171500Y0309021D01*
X0171500Y0310619D02*
X0171500Y0310619D01*
X0167879Y0310619D02*
X0160694Y0310619D01*
X0162660Y0309021D02*
X0165667Y0309021D01*
X0164978Y0307422D02*
X0163300Y0307422D01*
X0163300Y0305824D02*
X0164971Y0305824D01*
X0165634Y0304225D02*
X0162679Y0304225D01*
X0160805Y0302627D02*
X0167737Y0302627D01*
X0165707Y0299430D02*
X0162293Y0299430D01*
X0163153Y0297831D02*
X0164847Y0297831D01*
X0164700Y0296233D02*
X0163300Y0296233D01*
X0162848Y0294634D02*
X0165152Y0294634D01*
X0166442Y0293036D02*
X0161558Y0293036D01*
X0161884Y0289839D02*
X0166116Y0289839D01*
X0166608Y0290330D02*
X0165370Y0289092D01*
X0164700Y0287475D01*
X0164700Y0285725D01*
X0165370Y0284108D01*
X0166608Y0282870D01*
X0168225Y0282200D01*
X0174775Y0282200D01*
X0176392Y0282870D01*
X0177630Y0284108D01*
X0178300Y0285725D01*
X0178300Y0287475D01*
X0177630Y0289092D01*
X0176392Y0290330D01*
X0174775Y0291000D01*
X0168225Y0291000D01*
X0166608Y0290330D01*
X0165017Y0288240D02*
X0162983Y0288240D01*
X0163300Y0286642D02*
X0164700Y0286642D01*
X0164982Y0285043D02*
X0163018Y0285043D01*
X0161967Y0283445D02*
X0166033Y0283445D01*
X0176967Y0283445D02*
X0229750Y0283445D01*
X0229750Y0285043D02*
X0178018Y0285043D01*
X0178300Y0286642D02*
X0229750Y0286642D01*
X0229750Y0288240D02*
X0177983Y0288240D01*
X0176884Y0289839D02*
X0229910Y0289839D01*
X0229750Y0289678D02*
X0229750Y0281022D01*
X0230922Y0279850D01*
X0239578Y0279850D01*
X0240750Y0281022D01*
X0240750Y0289678D01*
X0239578Y0290850D01*
X0230922Y0290850D01*
X0229750Y0289678D01*
X0229750Y0281846D02*
X0197782Y0281846D01*
X0197528Y0282100D02*
X0192972Y0282100D01*
X0189750Y0278878D01*
X0189750Y0274322D01*
X0192972Y0271100D01*
X0197528Y0271100D01*
X0200750Y0274322D01*
X0200750Y0278878D01*
X0197528Y0282100D01*
X0199381Y0280248D02*
X0230524Y0280248D01*
X0239976Y0280248D02*
X0262652Y0280248D01*
X0263055Y0280650D02*
X0259950Y0277545D01*
X0259950Y0273155D01*
X0263055Y0270050D01*
X0267445Y0270050D01*
X0270550Y0273155D01*
X0270550Y0277545D01*
X0267445Y0280650D01*
X0263055Y0280650D01*
X0261054Y0278649D02*
X0200750Y0278649D01*
X0200750Y0277051D02*
X0259950Y0277051D01*
X0259950Y0275452D02*
X0200750Y0275452D01*
X0200282Y0273853D02*
X0259950Y0273853D01*
X0260850Y0272255D02*
X0198683Y0272255D01*
X0191817Y0272255D02*
X0183023Y0272255D01*
X0183800Y0270656D02*
X0262448Y0270656D01*
X0263055Y0266900D02*
X0259950Y0263795D01*
X0259950Y0259405D01*
X0263055Y0256300D01*
X0267445Y0256300D01*
X0270550Y0259405D01*
X0270550Y0263795D01*
X0267445Y0266900D01*
X0263055Y0266900D01*
X0262016Y0265861D02*
X0208817Y0265861D01*
X0209750Y0264262D02*
X0260417Y0264262D01*
X0259950Y0262664D02*
X0244464Y0262664D01*
X0246063Y0261065D02*
X0259950Y0261065D01*
X0259950Y0259467D02*
X0247000Y0259467D01*
X0247000Y0257868D02*
X0261486Y0257868D01*
X0265238Y0251474D02*
X0267762Y0251474D01*
X0267100Y0249876D02*
X0265900Y0249876D01*
X0265900Y0248277D02*
X0267100Y0248277D01*
X0267100Y0246679D02*
X0265900Y0246679D01*
X0265900Y0245080D02*
X0267100Y0245080D01*
X0267100Y0243482D02*
X0265900Y0243482D01*
X0265303Y0241883D02*
X0267697Y0241883D01*
X0269454Y0240285D02*
X0263546Y0240285D01*
X0262375Y0233400D02*
X0260625Y0233400D01*
X0259008Y0232730D01*
X0257770Y0231492D01*
X0257100Y0229875D01*
X0257100Y0223325D01*
X0257770Y0221708D01*
X0259008Y0220470D01*
X0260625Y0219800D01*
X0262375Y0219800D01*
X0263992Y0220470D01*
X0265230Y0221708D01*
X0265900Y0223325D01*
X0265900Y0229875D01*
X0265230Y0231492D01*
X0263992Y0232730D01*
X0262375Y0233400D01*
X0264430Y0232292D02*
X0268886Y0232292D01*
X0267649Y0230694D02*
X0265561Y0230694D01*
X0265900Y0229095D02*
X0267300Y0229095D01*
X0267300Y0227497D02*
X0265900Y0227497D01*
X0265900Y0225898D02*
X0267300Y0225898D01*
X0267300Y0226600D02*
X0267300Y0223869D01*
X0267403Y0223216D01*
X0267608Y0222588D01*
X0267908Y0221999D01*
X0268296Y0221464D01*
X0268764Y0220996D01*
X0269299Y0220608D01*
X0269888Y0220308D01*
X0270516Y0220103D01*
X0271169Y0220000D01*
X0271500Y0220000D01*
X0271500Y0226600D01*
X0267300Y0226600D01*
X0267300Y0224300D02*
X0265900Y0224300D01*
X0265642Y0222701D02*
X0267571Y0222701D01*
X0268658Y0221103D02*
X0264625Y0221103D01*
X0258375Y0221103D02*
X0254625Y0221103D01*
X0255642Y0222701D02*
X0257358Y0222701D01*
X0257100Y0224300D02*
X0255900Y0224300D01*
X0255900Y0225898D02*
X0257100Y0225898D01*
X0257100Y0227497D02*
X0255900Y0227497D01*
X0255900Y0229095D02*
X0257100Y0229095D01*
X0257439Y0230694D02*
X0255561Y0230694D01*
X0254430Y0232292D02*
X0258570Y0232292D01*
X0271500Y0232292D02*
X0271500Y0232292D01*
X0271500Y0230694D02*
X0271500Y0230694D01*
X0271500Y0229095D02*
X0271500Y0229095D01*
X0271500Y0227497D02*
X0271500Y0227497D01*
X0271500Y0225898D02*
X0271500Y0225898D01*
X0271500Y0224300D02*
X0271500Y0224300D01*
X0271500Y0222701D02*
X0271500Y0222701D01*
X0271500Y0221103D02*
X0271500Y0221103D01*
X0274342Y0221103D02*
X0303695Y0221103D01*
X0305178Y0224300D02*
X0285445Y0224300D01*
X0285550Y0225898D02*
X0303896Y0225898D01*
X0303450Y0227497D02*
X0285550Y0227497D01*
X0285250Y0229095D02*
X0303603Y0229095D01*
X0304471Y0230694D02*
X0283652Y0230694D01*
X0276654Y0222701D02*
X0275429Y0222701D01*
X0275211Y0211512D02*
X0277383Y0211512D01*
X0267789Y0211512D02*
X0265211Y0211512D01*
X0265884Y0209913D02*
X0267116Y0209913D01*
X0267100Y0208315D02*
X0265900Y0208315D01*
X0265900Y0206716D02*
X0267100Y0206716D01*
X0267100Y0205118D02*
X0265900Y0205118D01*
X0265900Y0203519D02*
X0267100Y0203519D01*
X0267682Y0201920D02*
X0265318Y0201920D01*
X0263635Y0200322D02*
X0269365Y0200322D01*
X0273546Y0240285D02*
X0304096Y0240285D01*
X0306089Y0241883D02*
X0283311Y0241883D01*
X0284910Y0243482D02*
X0306898Y0243482D01*
X0306975Y0243450D02*
X0305358Y0244120D01*
X0304120Y0245358D01*
X0303450Y0246975D01*
X0303450Y0248725D01*
X0304120Y0250342D01*
X0305358Y0251580D01*
X0306975Y0252250D01*
X0313525Y0252250D01*
X0315142Y0251580D01*
X0316380Y0250342D01*
X0317050Y0248725D01*
X0317050Y0246975D01*
X0316380Y0245358D01*
X0315142Y0244120D01*
X0313525Y0243450D01*
X0306975Y0243450D01*
X0304397Y0245080D02*
X0285750Y0245080D01*
X0285750Y0246679D02*
X0303573Y0246679D01*
X0303450Y0248277D02*
X0285750Y0248277D01*
X0284752Y0249876D02*
X0303927Y0249876D01*
X0305252Y0251474D02*
X0283154Y0251474D01*
X0277346Y0251474D02*
X0275238Y0251474D01*
X0269014Y0257868D02*
X0301486Y0257868D01*
X0299950Y0259467D02*
X0270550Y0259467D01*
X0270550Y0261065D02*
X0299950Y0261065D01*
X0299950Y0262664D02*
X0270550Y0262664D01*
X0270083Y0264262D02*
X0300417Y0264262D01*
X0302016Y0265861D02*
X0268484Y0265861D01*
X0268052Y0270656D02*
X0302448Y0270656D01*
X0300850Y0272255D02*
X0269650Y0272255D01*
X0270550Y0273853D02*
X0299950Y0273853D01*
X0299950Y0275452D02*
X0270550Y0275452D01*
X0270550Y0277051D02*
X0299950Y0277051D01*
X0301054Y0278649D02*
X0269446Y0278649D01*
X0267848Y0280248D02*
X0272412Y0280248D01*
X0270552Y0281846D02*
X0240750Y0281846D01*
X0240750Y0283445D02*
X0269761Y0283445D01*
X0269450Y0285043D02*
X0240750Y0285043D01*
X0240750Y0286642D02*
X0269507Y0286642D01*
X0270169Y0288240D02*
X0240750Y0288240D01*
X0240590Y0289839D02*
X0271536Y0289839D01*
X0280739Y0283445D02*
X0333349Y0283445D01*
X0331751Y0281846D02*
X0279948Y0281846D01*
X0278088Y0280248D02*
X0302652Y0280248D01*
X0307848Y0280248D02*
X0331200Y0280248D01*
X0331200Y0278649D02*
X0309446Y0278649D01*
X0310550Y0277051D02*
X0331200Y0277051D01*
X0332653Y0275452D02*
X0310550Y0275452D01*
X0310083Y0264262D02*
X0328299Y0264262D01*
X0326700Y0269058D02*
X0183800Y0269058D01*
X0180501Y0273853D02*
X0147499Y0273853D01*
X0149097Y0275452D02*
X0178903Y0275452D01*
X0178700Y0277051D02*
X0149300Y0277051D01*
X0150456Y0278649D02*
X0178700Y0278649D01*
X0178902Y0280248D02*
X0151885Y0280248D01*
X0152375Y0281846D02*
X0180501Y0281846D01*
X0187499Y0281846D02*
X0192718Y0281846D01*
X0191119Y0280248D02*
X0189098Y0280248D01*
X0189300Y0278649D02*
X0189750Y0278649D01*
X0189750Y0277051D02*
X0189300Y0277051D01*
X0189097Y0275452D02*
X0189750Y0275452D01*
X0190218Y0273853D02*
X0187499Y0273853D01*
X0174977Y0272255D02*
X0152090Y0272255D01*
X0153574Y0270656D02*
X0174200Y0270656D01*
X0174200Y0269058D02*
X0154236Y0269058D01*
X0154300Y0267459D02*
X0174200Y0267459D01*
X0174200Y0265861D02*
X0153913Y0265861D01*
X0152908Y0264262D02*
X0174200Y0264262D01*
X0200781Y0251474D02*
X0247762Y0251474D01*
X0249835Y0253073D02*
X0244501Y0253073D01*
X0238499Y0253073D02*
X0224501Y0253073D01*
X0223778Y0252350D02*
X0227000Y0255572D01*
X0227000Y0260128D01*
X0223778Y0263350D01*
X0219222Y0263350D01*
X0216000Y0260128D01*
X0216000Y0255572D01*
X0219222Y0252350D01*
X0223778Y0252350D01*
X0226100Y0254671D02*
X0236900Y0254671D01*
X0236000Y0256270D02*
X0227000Y0256270D01*
X0227000Y0257868D02*
X0236000Y0257868D01*
X0236000Y0259467D02*
X0227000Y0259467D01*
X0226063Y0261065D02*
X0236937Y0261065D01*
X0238536Y0262664D02*
X0224464Y0262664D01*
X0218536Y0262664D02*
X0209750Y0262664D01*
X0209750Y0261065D02*
X0216937Y0261065D01*
X0216000Y0259467D02*
X0209750Y0259467D01*
X0209347Y0257868D02*
X0216000Y0257868D01*
X0216000Y0256270D02*
X0206000Y0256270D01*
X0206000Y0254671D02*
X0216900Y0254671D01*
X0218499Y0253073D02*
X0202380Y0253073D01*
X0175195Y0198723D02*
X0151688Y0198723D01*
X0153470Y0197125D02*
X0174200Y0197125D01*
X0174200Y0195526D02*
X0154146Y0195526D01*
X0154300Y0193928D02*
X0174200Y0193928D01*
X0174200Y0192329D02*
X0154003Y0192329D01*
X0153126Y0190731D02*
X0174200Y0190731D01*
X0179939Y0187534D02*
X0148061Y0187534D01*
X0147143Y0189132D02*
X0146463Y0189132D01*
X0149300Y0185935D02*
X0178700Y0185935D01*
X0178700Y0184337D02*
X0149300Y0184337D01*
X0149300Y0182738D02*
X0178700Y0182738D01*
X0179465Y0181140D02*
X0148535Y0181140D01*
X0150857Y0189132D02*
X0181537Y0189132D01*
X0192463Y0160359D02*
X0153416Y0160359D01*
X0161712Y0158761D02*
X0166288Y0158761D01*
X0165088Y0157162D02*
X0162912Y0157162D01*
X0163300Y0155564D02*
X0164700Y0155564D01*
X0164911Y0153965D02*
X0163089Y0153965D01*
X0162139Y0152367D02*
X0165861Y0152367D01*
X0152375Y0150768D02*
X0180673Y0150768D01*
X0179074Y0149170D02*
X0151957Y0149170D01*
X0150628Y0147571D02*
X0178700Y0147571D01*
X0178700Y0145973D02*
X0149300Y0145973D01*
X0149269Y0144374D02*
X0178731Y0144374D01*
X0180329Y0142776D02*
X0147671Y0142776D01*
X0151800Y0141177D02*
X0175149Y0141177D01*
X0174200Y0139579D02*
X0153503Y0139579D01*
X0154165Y0137980D02*
X0174200Y0137980D01*
X0174200Y0136382D02*
X0154300Y0136382D01*
X0153984Y0134783D02*
X0174200Y0134783D01*
X0174200Y0133184D02*
X0153080Y0133184D01*
X0157086Y0106010D02*
X0162164Y0106010D01*
X0160566Y0104411D02*
X0158684Y0104411D01*
X0159300Y0102813D02*
X0159950Y0102813D01*
X0159950Y0101214D02*
X0159300Y0101214D01*
X0159300Y0099616D02*
X0159950Y0099616D01*
X0161337Y0098017D02*
X0157913Y0098017D01*
X0167564Y0096419D02*
X0174186Y0096419D01*
X0172587Y0098017D02*
X0169163Y0098017D01*
X0170550Y0099616D02*
X0171200Y0099616D01*
X0171200Y0101214D02*
X0170550Y0101214D01*
X0170550Y0102813D02*
X0171200Y0102813D01*
X0171816Y0104411D02*
X0169934Y0104411D01*
X0123230Y0096419D02*
X0093671Y0096419D01*
X0092503Y0094820D02*
X0121632Y0094820D01*
X0113639Y0086828D02*
X0093773Y0086828D01*
X0093950Y0085229D02*
X0112700Y0085229D01*
X0112700Y0083631D02*
X0093950Y0083631D01*
X0093432Y0082032D02*
X0112700Y0082032D01*
X0086166Y0080434D02*
X0056834Y0080434D01*
X0056050Y0079650D02*
X0058950Y0082550D01*
X0058950Y0084600D01*
X0058950Y0086650D01*
X0056050Y0089550D01*
X0054000Y0089550D01*
X0054000Y0084600D01*
X0054000Y0084600D01*
X0058950Y0084600D01*
X0054000Y0084600D01*
X0054000Y0084600D01*
X0054000Y0084600D01*
X0049050Y0084600D01*
X0049050Y0086650D01*
X0051950Y0089550D01*
X0054000Y0089550D01*
X0054000Y0084600D01*
X0054000Y0079650D01*
X0056050Y0079650D01*
X0054000Y0079650D02*
X0054000Y0084600D01*
X0054000Y0084600D01*
X0049050Y0084600D01*
X0049050Y0082550D01*
X0051950Y0079650D01*
X0054000Y0079650D01*
X0054000Y0080434D02*
X0054000Y0080434D01*
X0054000Y0082032D02*
X0054000Y0082032D01*
X0054000Y0083631D02*
X0054000Y0083631D01*
X0054000Y0085229D02*
X0054000Y0085229D01*
X0054000Y0086828D02*
X0054000Y0086828D01*
X0054000Y0088426D02*
X0054000Y0088426D01*
X0057174Y0088426D02*
X0085826Y0088426D01*
X0084227Y0086828D02*
X0058773Y0086828D01*
X0058950Y0085229D02*
X0084050Y0085229D01*
X0084050Y0083631D02*
X0058950Y0083631D01*
X0058432Y0082032D02*
X0084568Y0082032D01*
X0085497Y0094820D02*
X0057503Y0094820D01*
X0058671Y0096419D02*
X0084329Y0096419D01*
X0083850Y0098017D02*
X0059150Y0098017D01*
X0059150Y0099616D02*
X0083850Y0099616D01*
X0084509Y0101214D02*
X0058491Y0101214D01*
X0057070Y0102813D02*
X0085930Y0102813D01*
X0050826Y0088426D02*
X0005050Y0088426D01*
X0005050Y0086828D02*
X0049227Y0086828D01*
X0049050Y0085229D02*
X0005050Y0085229D01*
X0005050Y0083631D02*
X0049050Y0083631D01*
X0049568Y0082032D02*
X0005050Y0082032D01*
X0005050Y0080434D02*
X0051166Y0080434D01*
X0275500Y0137980D02*
X0293875Y0137980D01*
X0292276Y0139579D02*
X0275381Y0139579D01*
X0324144Y0152367D02*
X0330738Y0152367D01*
X0332337Y0150768D02*
X0325743Y0150768D01*
X0326726Y0149170D02*
X0348107Y0149170D01*
X0349388Y0150450D02*
X0346400Y0147462D01*
X0346400Y0145350D01*
X0351500Y0145350D01*
X0351500Y0145350D01*
X0351500Y0150450D01*
X0353612Y0150450D01*
X0356600Y0147462D01*
X0356600Y0145350D01*
X0351500Y0145350D01*
X0351500Y0145350D01*
X0351500Y0145350D01*
X0351500Y0150450D01*
X0349388Y0150450D01*
X0351500Y0149170D02*
X0351500Y0149170D01*
X0351500Y0147571D02*
X0351500Y0147571D01*
X0351500Y0145973D02*
X0351500Y0145973D01*
X0351500Y0145350D02*
X0346400Y0145350D01*
X0346400Y0143238D01*
X0349388Y0140250D01*
X0351500Y0140250D01*
X0353612Y0140250D01*
X0356600Y0143238D01*
X0356600Y0145350D01*
X0351500Y0145350D01*
X0351500Y0140250D01*
X0351500Y0145350D01*
X0351500Y0145350D01*
X0351500Y0144374D02*
X0351500Y0144374D01*
X0351500Y0142776D02*
X0351500Y0142776D01*
X0351500Y0141177D02*
X0351500Y0141177D01*
X0354540Y0141177D02*
X0359428Y0141177D01*
X0357829Y0142776D02*
X0356138Y0142776D01*
X0356600Y0144374D02*
X0357450Y0144374D01*
X0357450Y0145973D02*
X0356600Y0145973D01*
X0356491Y0147571D02*
X0357476Y0147571D01*
X0359074Y0149170D02*
X0354893Y0149170D01*
X0346509Y0147571D02*
X0327388Y0147571D01*
X0327599Y0145973D02*
X0346400Y0145973D01*
X0346400Y0144374D02*
X0327599Y0144374D01*
X0327241Y0142776D02*
X0346862Y0142776D01*
X0348460Y0141177D02*
X0326579Y0141177D01*
X0355138Y0109207D02*
X0359394Y0109207D01*
X0357796Y0107608D02*
X0356737Y0107608D01*
X0356800Y0106010D02*
X0357650Y0106010D01*
X0357650Y0104411D02*
X0356800Y0104411D01*
X0356458Y0102813D02*
X0358075Y0102813D01*
X0359673Y0101214D02*
X0354860Y0101214D01*
X0377666Y0129987D02*
X0390401Y0129987D01*
X0390401Y0131586D02*
X0379264Y0131586D01*
X0380750Y0133184D02*
X0390401Y0133184D01*
X0390401Y0134783D02*
X0380750Y0134783D01*
X0380750Y0136382D02*
X0390401Y0136382D01*
X0390401Y0137980D02*
X0380398Y0137980D01*
X0378800Y0139579D02*
X0390401Y0139579D01*
X0390401Y0141177D02*
X0366072Y0141177D01*
X0367972Y0187534D02*
X0390401Y0187534D01*
X0390401Y0189132D02*
X0369571Y0189132D01*
X0370050Y0190731D02*
X0390401Y0190731D01*
X0390401Y0192329D02*
X0370050Y0192329D01*
X0369710Y0193928D02*
X0390401Y0193928D01*
X0390401Y0195526D02*
X0368112Y0195526D01*
X0362388Y0195526D02*
X0359362Y0195526D01*
X0353638Y0195526D02*
X0346450Y0195526D01*
X0347050Y0197125D02*
X0390401Y0197125D01*
X0390401Y0198723D02*
X0347050Y0198723D01*
X0346389Y0200322D02*
X0390401Y0200322D01*
X0390401Y0201920D02*
X0344321Y0201920D01*
X0343692Y0203519D02*
X0390401Y0203519D01*
X0390401Y0205118D02*
X0346140Y0205118D01*
X0346943Y0206716D02*
X0390401Y0206716D01*
X0390401Y0208315D02*
X0368753Y0208315D01*
X0370050Y0209913D02*
X0390401Y0209913D01*
X0390401Y0211512D02*
X0370050Y0211512D01*
X0370050Y0213110D02*
X0390401Y0213110D01*
X0390401Y0214709D02*
X0368930Y0214709D01*
X0367331Y0216307D02*
X0390401Y0216307D01*
X0390401Y0224300D02*
X0345322Y0224300D01*
X0346604Y0225898D02*
X0390401Y0225898D01*
X0390401Y0227497D02*
X0347050Y0227497D01*
X0346897Y0229095D02*
X0390401Y0229095D01*
X0363169Y0216307D02*
X0358581Y0216307D01*
X0360180Y0214709D02*
X0361570Y0214709D01*
X0361747Y0208315D02*
X0360003Y0208315D01*
X0352997Y0208315D02*
X0347050Y0208315D01*
X0346558Y0209913D02*
X0351700Y0209913D01*
X0352040Y0193928D02*
X0344679Y0193928D01*
X0359222Y0187534D02*
X0362528Y0187534D01*
X0360929Y0189132D02*
X0360821Y0189132D01*
X0334680Y0245080D02*
X0316103Y0245080D01*
X0316927Y0246679D02*
X0333814Y0246679D01*
X0333665Y0248277D02*
X0317050Y0248277D01*
X0316573Y0249876D02*
X0334168Y0249876D01*
X0335712Y0251474D02*
X0315248Y0251474D01*
X0334701Y0264262D02*
X0348582Y0264262D01*
X0349595Y0263250D02*
X0351500Y0263250D01*
X0351500Y0267850D01*
X0346900Y0267850D01*
X0346900Y0265945D01*
X0349595Y0263250D01*
X0351500Y0264262D02*
X0351500Y0264262D01*
X0351500Y0265861D02*
X0351500Y0265861D01*
X0351500Y0267459D02*
X0351500Y0267459D01*
X0351500Y0269058D02*
X0351500Y0269058D01*
X0351500Y0270656D02*
X0351500Y0270656D01*
X0351500Y0272255D02*
X0351500Y0272255D01*
X0346900Y0267459D02*
X0336300Y0267459D01*
X0336299Y0265861D02*
X0346984Y0265861D01*
X0342034Y0281846D02*
X0341249Y0281846D01*
X0339651Y0283445D02*
X0343632Y0283445D01*
X0291700Y0323407D02*
X0291300Y0323407D01*
X0291300Y0325006D02*
X0291700Y0325006D01*
X0291700Y0326604D02*
X0291300Y0326604D01*
X0291300Y0328203D02*
X0291700Y0328203D01*
X0291700Y0329801D02*
X0291300Y0329801D01*
X0291300Y0331400D02*
X0291700Y0331400D01*
X0314316Y0353779D02*
X0331500Y0353779D01*
X0331500Y0352181D02*
X0315915Y0352181D01*
X0314023Y0355378D02*
X0331500Y0355378D01*
X0332072Y0356976D02*
X0315621Y0356976D01*
X0316800Y0358575D02*
X0333404Y0358575D01*
X0339596Y0358575D02*
X0390401Y0358575D01*
X0390401Y0360173D02*
X0316800Y0360173D01*
X0316800Y0361772D02*
X0390401Y0361772D01*
X0390401Y0363370D02*
X0315975Y0363370D01*
X0340928Y0356976D02*
X0390401Y0356976D01*
X0390401Y0355378D02*
X0341500Y0355378D01*
X0341500Y0353779D02*
X0390401Y0353779D01*
X0390401Y0352181D02*
X0341500Y0352181D01*
X0277189Y0241883D02*
X0275303Y0241883D01*
X0181235Y0310619D02*
X0175121Y0310619D01*
X0179637Y0312218D02*
X0148363Y0312218D01*
X0149300Y0313816D02*
X0178700Y0313816D01*
X0178700Y0315415D02*
X0149300Y0315415D01*
X0149300Y0317013D02*
X0178700Y0317013D01*
X0179766Y0318612D02*
X0148234Y0318612D01*
X0147559Y0320210D02*
X0146635Y0320210D01*
X0150441Y0320210D02*
X0181365Y0320210D01*
X0174200Y0321809D02*
X0152954Y0321809D01*
X0153932Y0323407D02*
X0174200Y0323407D01*
X0174200Y0325006D02*
X0154300Y0325006D01*
X0154217Y0326604D02*
X0174200Y0326604D01*
X0174200Y0328203D02*
X0153555Y0328203D01*
X0152044Y0329801D02*
X0175023Y0329801D01*
X0152306Y0310619D02*
X0146765Y0310619D01*
X0145784Y0309021D02*
X0150340Y0309021D01*
X0149700Y0307422D02*
X0146350Y0307422D01*
X0146350Y0305824D02*
X0149700Y0305824D01*
X0150321Y0304225D02*
X0145803Y0304225D01*
X0117911Y0353779D02*
X0059806Y0353779D01*
X0061404Y0355378D02*
X0116313Y0355378D01*
X0115200Y0356976D02*
X0062600Y0356976D01*
X0062600Y0358575D02*
X0115200Y0358575D01*
X0115200Y0360173D02*
X0062600Y0360173D01*
X0062455Y0361772D02*
X0115262Y0361772D01*
X0116861Y0363370D02*
X0060857Y0363370D01*
X0059258Y0364969D02*
X0118459Y0364969D01*
D32*
X0152750Y0296600D02*
X0156500Y0296600D01*
X0152750Y0296600D02*
X0148375Y0292225D01*
X0148375Y0282225D01*
X0144000Y0277850D01*
X0171500Y0296600D02*
X0195250Y0296600D01*
X0205250Y0261600D02*
X0201500Y0257850D01*
X0195250Y0251600D01*
X0195250Y0229100D01*
X0209000Y0215350D01*
X0195250Y0165350D02*
X0171500Y0165350D01*
X0156500Y0165350D02*
X0152750Y0165350D01*
X0148375Y0160975D01*
X0148375Y0150975D01*
X0144000Y0146600D01*
X0271500Y0137850D02*
X0271500Y0128448D01*
X0271500Y0186600D02*
X0280250Y0186600D01*
X0280250Y0226600D02*
X0271500Y0226600D01*
D33*
X0271500Y0137850D03*
D34*
X0201500Y0257850D03*
X0205250Y0261600D03*
M02*
